<svg xml:space="preserve" style="enable-background:new 0 0 1500 1129.9;" viewBox="0 0 1500 1129.9" y="0px" x="0px" xmlns:xlink="http://www.w3.org/1999/xlink" xmlns="http://www.w3.org/2000/svg" id="图层_1" version="1.1">
<style type="text/css">
	.st0{fill:#FFDF59;}
	.st1{fill:#000015;}
	.st2{fill:#F0F3F6;}
	.st3{fill:#3570D6;}
	.st4{fill:#FFFFFF;}
	.st5{fill:#FFAFB9;}
	.st6{fill:#FF6686;}
</style>
<path d="M990.8,199.6c-4.8,2.1-11.7,4.6-16.8,3.4c-14-3.3-5.1-18.1-0.3-25.4c12.4-18.7,28.7-34.9,45.7-50.1
	c25.5-22.9,52.3-43.7,80.1-62.4c21.3-14.3,43.4-27.9,66.4-35.9c10.8-3.8,29.7-4.9,30.4,11c0.2,5.9-1.7,11.6-5.8,17.2
	c-6.4,8.7-14,16.7-23,24.2c-9,7.5-18.1,14.6-27.4,21.3c-20.8,15.1-41.5,29.3-62.2,42.6c-5.1,3.3-10.3,6.8-15.7,10.4
	c-14.8,10.1-30,20-45.4,29.7C1008.3,191,999.6,195.7,990.8,199.6z" class="st0"></path>
<path d="M874,39.8c25.3,10.7,45.4,27.9,61.6,49.7c1.2,1.6,2,3.5,2.2,5.5c0.1,0.9-0.8,1.5-1.6,1.1
	c-1.7-1-3.1-2.1-4.1-3.4c-3.3-3.9-6.6-7.8-9.9-11.5c-16.5-18.6-36.8-32-60.7-40.3c-0.3-0.1-0.7-0.3-0.9-0.5
	c-1.6-1.5-2.1-2.6-1.5-3.3c0.9-1,1.9-1.3,3.1-1.1C865.5,36.5,869.4,37.8,874,39.8z" class="st0"></path>
<path d="M1175.5,164.1c-5.7,3.3-11.9,6.7-18.6,10.1c-6.7,3.5-16,7.5-23.4,5.7c-4.8-1.1-6.7-5.3-4.8-9.7
	c2.7-6.1,7.7-11.8,12.6-16.9c28.8-29.6,62.2-54.5,100.2-74.7c10-5.3,36.6-19.7,46.7-11.7c7.2,5.7,2.1,14.1-2.3,19.5
	c-7.1,8.6-15.8,16.6-26.2,23.8C1232,129.8,1203.9,147.7,1175.5,164.1z" class="st0"></path>
<path d="M508.8,80c-0.7-0.2-1,0-1,0.7c-0.6,9.1-1.6,17.7-3.1,25.8c-0.6,3.3-3.6,6.5-7.1,5.2c-8.9-3.3-17.2-6.2-24.9-8.8
	c-0.6-0.2-1.1,0.4-0.9,0.9c1.9,4.7,3.6,9.6,5,14.7c1.2,4.1-2,6.2-5.7,5.4c-1.2-0.3-2.3-0.4-3.4-0.4c-3.3,0.1-6.8-0.1-10.5-0.4
	c-0.4,0-0.7-0.3-0.9-0.6c-1-1.9,0.1-3.6,2.1-3.9c4.6-0.6,8.6-0.6,12.2,0c0.6,0.1,1.1-0.5,0.9-1c-1.7-5.5-3.6-10.7-5.9-15.7
	c-0.2-0.4-0.2-0.8,0-1.2l1.2-2.4c0.5-1.1,1.8-1.7,3-1.4c9.9,2.7,19.3,5.8,28.3,9.3c1.1,0.4,2.4-0.3,2.5-1.5
	c0.7-9.2,1.7-17.9,2.9-26.2c0.2-1.1,0.4-2.2,0.6-3.4c0.7-3.2,4.8-3.6,6.6-1.1c3.3,4.5,6.9,8.6,10,13.2c3.2,4.9,6.6,9.7,10.4,14.4
	c0.6,0.7,1.7,0.8,2.3,0.1c5.4-5.3,11.2-10.4,17.4-15.3c0.6-0.4,1.4-0.5,2-0.1c1.6,1,2.7,2.5,3.3,4.5c2.2,6.6,4.4,13,6.7,19.2
	c0.3,0.7,1.2,1.1,1.8,0.7c4-2.3,8.3-4.5,12.7-6.7c1.1-0.5,2.1-1.2,3-2c1.5-1.2,3.4-1.7,5.9-1.4c1.3,0.2,2,1.6,1.3,2.7
	c-0.8,1.3-1.9,2.2-3.3,2.9c-3.9,2-8,3.4-11.8,5.9c-2.3,1.5-4.6,2.6-6.9,3.4c-3.4,1.2-5.8,0.1-7.2-3.3c-2.5-6.3-4.6-12.4-6.2-18.5
	c-0.2-0.7-1-1-1.6-0.6c-3.3,2.4-6.6,5.1-9.3,8c-2.3,2.4-4.7,4.4-7.4,6c-4.2,2.5-7.2-3.1-9.1-5.7c-2.9-4.2-5.9-8.3-9-12.2
	c-2.1-2.7-3.5-5.5-5.5-8.1C509.5,80.5,509.1,80.1,508.8,80z" class="st1"></path>
<path d="M941.2,242.3c0.5,1.4,1.6,3,3.3,4.6c4.5,4.5,9.3,8.3,14.4,11.2c3,1.8,6.2,2.7,9.2,4.1c2.2,1,4.5,1.9,6.9,2.5
	c11,2.7,22,4.2,32.9,4.6c4.6,0.2,8.9,0.8,13.5,0.9c11.7,0.3,24.2,2,37.3,5c2,0.5,3.7,1.4,5.8,1.8c12.7,2.8,25.8,9.5,37.5,17.1
	c12.8,8.4,23,18.3,30.5,29.8c1.8,2.7,2.8,5.8,3.1,9.2c0.1,0.8-0.7,1.4-1.4,1.1c-2.9-1-5.5-2.7-7.8-5.1c-5.1-5.3-10.2-10.3-16.3-14.5
	c-10.9-7.5-22.2-14.3-34.9-18.8c-6.5-2.3-12.6-4.2-18.4-5.6c-1.7-0.4-3.6-0.5-5.7-0.3c-0.4,0-0.9,0-1.3-0.2
	c-2.2-1.1-4.6-1.6-7.2-1.5c-1.3,0.1-1.3,0.3-0.1,0.6c1.6,0.4,3.2,0.8,4.9,1.2c1.8,0.4,3.5,0.9,5.1,1.5c3.1,1.3,6.2,2.1,9.2,3.5
	c11,5,20,9.8,27.2,14.3c11.2,6.9,21.3,15.9,30.2,27c3.1,3.8,5.9,8.1,8.5,12.7c2.6,4.7,4.7,9.2,6.2,13.5c1.3,3.5,2.3,7.2,3,11
	c0.5,2.5,0.2,5.1-0.8,7.9c-0.2,0.5-0.2,0.9,0,1.4c0.2,0.5,0.2,1.1,0,1.6c-0.3,0.7-1.3,0.7-1.5,0l-0.7-2.2c-0.1-0.5-0.4-0.9-0.8-1.2
	c-1.8-1.6-2.9-2.9-3.3-3.8c-1.5-3.8-3-7.5-5.7-11c-2.7-3.6-5.4-7.1-8.1-10.5c-6.1-7.8-12.8-14.4-20.2-20c-4.7-3.5-9.1-7-13.1-10.4
	c-0.6-0.5-1.3-0.8-2.1-0.9c-0.7-0.1-0.8,0.2-0.3,0.6c1,1,1.5,2.2,2.6,3.1c8.9,7.9,16.4,16.4,22.6,25.7c2.5,3.7,5.2,8.2,8.2,13.5
	c1.6,2.8,2.9,5.6,3.9,8.5c3.8,10.5,9.4,21.5,3.2,32.5c-0.4,0.7-1.5,0.8-1.9,0c-2.4-3.8-5.5-7-7.4-11.1c-1.1-2.5-2.4-5-3.8-7.5
	c-1.8-3.3-2.3-3.1-1.3,0.5c2.9,11,3.9,24.7,0.8,35.8c-0.9,3-3.2,6.1-7,9.1c-1.5,1.2-3.2,1.6-4.9,1.1c-3.1-1-4.9-3.4-5.2-7.4
	c-1.3-16.3-5.4-31.8-12.2-46.6c-1.7-3.7-3.7-7.3-5.8-10.8c0-0.1-0.1-0.1-0.2,0l-0.3,0.3c-0.1,0.1-0.2,0.3-0.1,0.5
	c3.6,8,6,16.3,7.2,25c0.6,4.3,1.3,8.7,2.1,13.1c0.5,3.1-0.3,5.8,0,8.9c0.2,1.7,0.2,4,0.3,7c0,2.2-0.2,4.3-0.7,6.6
	c-1.1,5.1-2.3,10-3.6,14.6c-2.6,9.5-7.6,17-15,22.3c-7.7,5.6-12.2-3.1-13.3-9.2c-0.1-0.5-0.7-0.7-1.1-0.5c-0.3,0.2-0.5,0.5-0.6,0.9
	c-2.1,10.4-6.2,19.5-12.3,27.3c-2.1,2.7-4.7,4.4-6.9,6.8c-0.6,0.7-1.5,0.8-2.4,0.4c-0.5-0.2-0.9-0.1-1.2,0.3c-0.4,0.6-1,1-1.8,1.3
	c-0.7,0.2-1.4-0.5-1.1-1.2c2.3-6,4.3-12.4,6.2-19.2c1.2-4.3,1.9-8.7,1.9-13.1c0.1-3.6-0.4-3.7-1.5-0.2c-1.4,4.6-2.9,9.3-4.3,14
	c-0.8,2.7-2.9,4.8-3.9,7.6c-1.1,3-2.2,5.4-3.5,7.2c-3.2,4.6-5.9,9.7-10,13.6c-6.4,6.1-12.4,11.3-20.5,13.8c-0.6,0.2-0.8,0.9-0.4,1.3
	c15.7,18,29.7,38.2,41.9,60.4c3.4,6.2,6.8,12.3,10,18.4c7.3,13.5,14.3,28.1,21,43.6c5.5,12.9,10.2,27.5,11,41.6
	c0.3,5.3,0.2,10.1-0.3,14.3c-1.1,9.9-4.2,19.3-9.3,28.3c-9.4,16.4-23.2,28.8-41.4,37.1c-6.5,3-14.4,5.2-23.6,6.6
	c-9.1,1.4-19.3,1.3-30.7-0.4c-10-1.4-19-5-27.9-9.4c-1.5-0.8-1.9-1.9-1.1-3.4c3.6-7,6.1-14.3,7.6-22c2.8-14.6,1-27.7-6.9-40
	c-3.8-5.8-8.6-10.3-14.5-13.6c-9.4-5.1-19.2-7.3-29.4-6.6c-9.5,0.7-16.9,5-23.9,11.1c-0.4,0.4-0.9,0.5-1.4,0.3s-0.9-0.6-0.9-1.1
	c-1.6-12-6.4-22.2-12.8-32.6c-6.7-10.9-15.5-18.5-26.5-25.2c-14.8-9-34.5-11.5-50.4-4.6c-12.7,5.5-24.1,15.1-31.6,27.2
	c-2.6,4.3-4.9,8.4-6.9,12.5c-0.2,0.4-0.5,0.5-0.9,0.5c-2.8-0.3-5.4-0.8-7.9-1.5c-5.8-1.6-14.7,1-19.2,3.6c-4.8,2.7-8.2,5.7-10.2,8.9
	c-2.3,3.6-4.1,6-5.3,7.2l-29.7-33.2c-0.8-0.8-1-1.8-0.6-2.9c3.1-9.6,4.5-19.8,7.4-29.5c0.9-3.1,1.1-6.3,2-9.5c0.7-2.6,1.4-5.1,2-7.4
	c2.2-9,4.4-17.2,6.6-24.4c3.4-11.4,7.7-23.8,12.9-37c0.3-0.7-0.3-1.4-1-1.3c-0.3,0-0.6,0.1-0.9,0.3c-1.1,0.5-1.8,1.2-2.1,2.1
	c-2.6,6.7-5.1,13.2-7.6,19.5c-0.2,0.4-0.2,0.8-0.2,1.2l0,0.8c0,0.5-0.1,0.9-0.4,1.2c-0.9,1-1.5,2.2-2,3.6c-1.5,4.8-2.8,9.4-4,13.8
	c-5.7,20.6-10.5,42.2-14.5,64.8c-0.2,1.3-0.8,1.4-1.6,0.5c-7.6-8.2-14.9-16-21.9-23.4c-7.9-8.3-16-16.1-24.3-23.3l9.9-21.6
	c2.2-3.3,4.1-6.7,5.8-10.2c2.3-4.7,4.1-8.2,5.5-10.4c6.4-10.1,12.8-19.3,19-27.5c9.1-12.1,20.2-23.2,33.2-33.3
	c5.6-4.4,11.3-8.5,17-12.3c0.1-0.1,0.1-0.2,0.1-0.3l-0.2-0.4c-0.2-0.3-0.4-0.4-0.7-0.2c-4.6,1.9-8.6,4-12,6.4
	c-19.1,13.3-34.7,29.3-46.9,48c-0.2,0.3-2.2,3.2-6.1,8.7c-2,2.8-3.8,5.8-5.5,9.1c-2,3.9-3.4,6.7-4,8.3c-9.9-0.4-20.1,0.1-30.5,1.4
	c-1.5,0.2-2.3-0.5-2.5-1.9c-0.3-2.5-0.6-5.4-0.3-8.1c0.4-5.3,0.8-10.3,1-15.1c0.2-2.5-0.2-2.6-1-0.2c-0.7,1.9-1.6,3.3-1.8,5.4
	c-0.6,6.2-4,11.2-3.7,17.8c0,0.8-0.4,1.5-1.1,1.8c-5.1,2.4-10.2,3.1-15.1,2.1c-1.6-5.3-3.8-11.2-8.8-13.4c-0.4-0.2-0.8-0.5-1-0.8
	c-3.1-3.9-7-2.2-10.9-1.4c-0.4,0.1-0.4,0.1,0,0.1c4.4,0.2,8.1,1.8,11.2,4.6c1.3,1.2,2.6,3.2,3.9,6.1c1,2.2,2.1,4.4,3.3,6.5l2.6,3.5
	c-2-0.1-4-0.4-5.9-0.9c-2.4-0.6-4.3-0.9-5.8-0.9c-3.5,0-7,0.2-10.6,0.7c-7.9,1.3-13.8,2.8-17.6,4.5c-8.7,4-16.3,10.6-23,19.9
	c-4.6,6.4-8.5,13.1-11.7,20l-27.6,50c-7-17.7-11.9-35.6-14.6-53.7c-0.8-5.1-0.5-10.2,0.8-15.2c0.5-1.8,1.1-3.1,1.8-3.9
	c1.6-1.6,2.7-3,3.5-4.2l15.2-7.2l11.7-4.8l10.6,29.6c0.3,0.9,0.8,1,1.6,0.5c0.1-0.1,0.3-0.2,0.4-0.4c0.6-0.9,0.7-1.8,0.4-2.7
	c-2.6-8.1-5.3-15.7-8-23c-0.7-1.8-1.7-3.4-3-4.9c-0.1-0.5,0.1-0.9,0.7-1.1c2.4-1.1,8.1-3.5,17-7.3c8.5-3.6,14.4-5.9,17.7-6.9
	c0.8-0.2,2.5-1.1,4.9-2.7l16.9-5.4c0.2-0.1,0.4-0.3,0.4-0.5c0.3-8.9,0.4-17.8,0.3-26.6c0-1,0.1-1.9,0.3-2.7c0.6-2.2-0.2-4-0.3-6.2
	c-0.2-7.2,0-15.6-2.4-22.4c-0.5-1.5-2.2-2.3-3.7-1.8c-3.7,1.3-4.7,8.2-5.1,11.4c-0.3,2-0.6,4.1-1,6.2c-0.4,2.1-0.7,4.2-0.8,6.3
	c-0.4,4.7-1.3,9.2-2.8,13.5c0,1.5-0.2,2.7-0.8,3.7c-0.2,0.4-0.5,0.5-0.9,0.4c-2.2-0.6-3.6-1.7-4.3-3.1c-0.3-2.3-0.5-4.6-0.8-7
	c-0.3-2.3-0.8-4.5-1.6-6.8c-1.6-4.8-3.3-9.5-4.9-14.3c-0.5-1.5-2.2-3.9-5.2-7.1c-3.2-2-6.6-2.6-10.2-1.9c-3.5,0.7-6.8,1.8-9.9,3.2
	c-11.5,5.4-21.8,12.3-30.7,20.5c-8.6,7.9-10.8,19.5-9.7,30.6c0.8,8.5,2.2,17.6,4.2,27.3c-2.7,0.4-4.9,0.9-7.6,0.6
	c-11.4-1.3-21.4-4.1-30.1-8.4c-4-2-7.1-5.2-9.4-9.5c-0.7-1.2-1.1-1.2-1.4,0.2c-1.1,5.9-3.9,11-10.9,8.8c-5.4-1.7-9.4-4.7-12.2-9
	c-6.7-10.5-10.6-22.5-11.8-36c0-0.4-0.1-0.4-0.1,0c-1.3,7.4-1.4,15-0.5,22.7c0.1,1-0.8,1.9-1.8,1.6c-1.4-0.3-2.7-0.4-4-0.3
	c-0.5,0-0.9-0.1-1.3-0.4c-11.1-7.9-17.7-23.2-21.1-36.3c-0.8-3-1.3-3-1.6,0.1c-0.4,5.4-0.7,10.9-0.9,16.4c-0.2,6.6-3.4,9.9-9.6,10
	c-1.2,0-2.2-0.3-3-1.1c-2.9-2.5-6-5.1-8.3-8.3c-3.5-4.7-6.6-9.7-9.5-15.1c-1.9-3.6-2.9-7.3-4.3-11c-1.9-4.8-2.6-10-3.7-15.2
	c-2-8.7-1.8-18.2-0.8-27.2c0.1-0.4-0.2-0.7-0.6-0.8c-0.3,0-0.4,0.1-0.5,0.3c-2.4,5.9-5.1,12.1-8.1,18.8c0,0.1-0.1,0.2-0.3,0.3
	c-0.8,0.5-1.3,0.3-1.4-0.7l-1.6-15.6c0.2-6,0.4-12.1,0.6-18.1c0.1-2.5,0.4-5.1,0.9-7.9c4.5-23.9,13.9-45,28.3-63.4
	c1.7-2.2,1.3-2.6-1.1-1.4c-1.2,0.6-2.2,1.4-3.2,2.5c-13.7,15.4-23.6,33.3-29.6,53.7c-1.6,5.5-3.8,10.6-5.3,16.1
	c-0.3,1.2-1.1,2.4-2.4,3.8c-0.4,0.4-0.6,0.3-0.8-0.2c-0.4-1.2-0.9-2.2-1.7-3.1c-0.3-0.3-0.4-0.7-0.4-1.2
	c-0.1-10.1,0.8-18.8,2.7-26.1c2.9-11.2,7.3-22.4,13.4-33.5c9.4-17.2,24.2-32.1,40.3-44.5c2.8-2.2,2.6-2.5-0.7-1.1
	c-6.2,2.7-12.2,5-17.9,8.7c-13.6,8.9-25.2,20.2-34.6,33.9c-1.4,2.1-3.1,4.9-4.8,8.4c-1.5,3-3,5.9-4.5,8.5c-3.4,6-6.9,15-10.7,27
	c-0.2,1.4-1.1,1.9-2.5,1.4c-0.4-0.1-0.7-0.4-0.9-0.8l-1.6-3.3c0.2-2.4,0.1-5.2-0.3-8.5c-0.2-1.5,0-2.9,0.6-4.4
	c1-2.3,0.4-4.7,0.9-7.2c2.3-10.9,5.3-19.9,8.9-26.9c6.8-13.1,16.3-24.5,28.6-34.3c8.1-6.5,16.1-11.7,23.8-15.8
	c4.2-2.2,8.9-4.4,14-6.6c6.1-2.7,12.3-4.6,18.7-7.2c5.5-2.3,11.5-3.3,17-5.6c4.1-1.8,8.6-2.7,12.7-4.8c3.6-1.9,7.3-3.1,10.5-5.9
	c2.2-2,4.9-2.5,7.2-4.7c4.5-4.3,8.2-8.5,11.3-12.8c3.3-4.7,6.8-9.1,10.3-13.5c3.9-5.1,9-9.1,13.5-13.7c1.5-1.5,3.1-2.9,5-4.1
	c4.5-3.1,8.3-6.5,13.3-9.1c3.8-2,7.1-4.4,11-6c8.3-3.6,16.4-7.6,25.1-9.9c4.6-1.3,9.1-2.5,13.6-3.8c0.3-0.1,0.3-0.2,0-0.2
	c-2.2-0.3-4.2-0.4-6-0.4c-8.2,0.4-16.6,1.4-25.2,3.1c-2.1,0.4-4.2,1-6.4,1.8c-3.6,1.3-7.3,2.9-11.2,3.7c-2.9,0.6-5.1,3-7.9,4.3
	c-4,1.8-8.4,4.4-13.2,7.8c-3.5,2.5-5.4,6.1-9.4,7.8c-2.2,1-4.2,2.1-6.1,3.3c-0.8,0.5-0.9,0.3-0.5-0.5c1.2-2.3,2.4-4.7,3.5-7.1
	c2.3-5,6.2-10.2,10.4-14c8.2-7.3,17.1-13.5,26.7-18.5c2.8-1.4,7.8-3.7,15.3-6.7c2.6-1.1,5.1-1.9,7.5-2.5c4-0.9,7.9-2.5,11.9-3.1
	c1.6-0.2,3.2-0.6,4.9-1c2.4-0.7,4.7-0.9,6.8-0.8c0.1,0,0.2-0.1,0.3-0.2c0-0.1,0-0.2,0-0.3c-0.1-0.1-0.1-0.1-0.2-0.1
	c-11-0.7-18.5-0.7-22.7-0.1c-6.5,1-14.7,2.4-21,5.3c-3.9,1.8-8.4,2.3-11.8,4.8c-6.4,4.6-13.7,8.5-19.4,13.7
	c-6.5,6-10.6,10-12.2,12.1c-4.4,5.5-8.6,10.3-12.7,14.6c-0.9,1-1.3,0.8-1.2-0.5c0.4-3.7,0.1-6.3,2.4-9.7
	c10.2-15.1,23.6-27,40.2-35.6c6-3.1,10.9-5.5,14.7-7.3c2.2-1.1,4.7-1.2,6.7-2.6c0.7-0.5,1.5-0.9,2.5-1.2c10.5-3.4,20.1-5.4,28.6-6.2
	c8.3-0.7,17-1,25.8-0.9c11.3,0.1,24.8-0.2,35.2-4c5.4-2,11.6-4.3,16.3-7.8c5.7-4.2,11.4-8,16.8-12.8c11.9-10.5,21.8-18.5,34.4-25.7
	c6.7-3.9,13.9-6,21.1-8.9c1-0.4,1-0.6-0.1-0.6c-5.6,0-10.6,1.1-16.1,2.1c-2.7,0.5-5.4,1.4-8.1,2.6c-6,2.6-11.7,4.6-17,8.6
	c-8.4,6.3-16.5,12.6-24.4,18.8c-4,3.2-7.7,5.7-11.1,7.6c-3.8,2.2-7.8,3.9-12.1,5.2c-5.3,1.6-11.5,2.6-18.8,3
	c-7.2,0.4-13.7,0.3-19.5,0c-3.9-0.3-7.4-0.4-10.3-0.3c-2.1,0.1-4-0.2-5.8-0.7c-2-0.6-4.2-0.7-6.4-0.5c-3.8,0.3-4.4-0.9-2-3.7
	c0.3-0.3,1.1-0.7,2.4-0.9c0.8-0.2,1.6-0.2,2.4-0.2c8.4,0.4,16.8,0.8,25.2,1c14,0.4,31.5,0.2,43.5-8.2c3-2.1,6.1-3.9,9-6.3
	c6.1-5,12.3-9.9,18.5-14.7c5.1-4,9.5-7,13.2-9.1c4.4-2.5,9.3-4.7,14.7-6.4c2.7-0.9,5.4-1.7,8-2.5c2.6-0.9,5.3-1.4,7.9-1.6
	c6.1-0.6,12.4-0.5,19.2,0.2c2.6,0.3,5.2,0.9,7.7,1.9c0.6,0.2,1.3,0.1,1.8-0.4c16.6-19.3,37.7-31.4,63.1-36.2
	c2.1-0.4,4.3-0.8,6.4-1.2c6.5-1.3,13.7-1.1,20.3-1c2.1,0,4.1,0.2,6,0.6c4,0.9,7.8,0.5,11.8,1.8c1.7,0.6,3.4,1.2,5.2,1.8
	c2.2,0.8,1.7,4-0.6,4.1c-3.1,0.1-7-0.6-10-1.2c-3-0.6-6-0.9-8.9-1c-6.8-0.2-13.6-0.1-20.7,0.3c-3,0.2-5.7,0.6-8.1,1.2
	c-3.7,1-7.3,0.7-11,2.1c-5,1.8-9.7,3-14.5,5.7c-4.6,2.5-9.2,4.6-13.7,7.5c-7.2,4.8-13.7,10.3-19.4,16.7c-0.4,0.5-0.3,1.2,0.3,1.5
	c0.7,0.3,1.5,0.3,2.2-0.1c2.8-1.7,4.5-2.6,8.2-3.8c1.3-0.4,2.7-1.1,4.2-1.9c3.3-1.8,12.8-5.6,28.5-11.1c2.3-0.8,5-0.9,7.4-1.7
	c5-1.7,10-1.8,15-3.2c2.1-0.6,4.4-1,6.8-1.2c6.6-0.5,13.2-0.8,19.8-1c2.6-0.1,5.1,0.1,7.7,0.5c3.4,0.6,6.8,0.5,10.3,1
	c8,1.2,16.4,3,25.2,5.5c2.7,0.8,5.1,1.7,7.1,2.7c1.7,0.8,3.6,0.8,5,1.9c0.5,0.4,1.2,0.8,2,1.2c4.6,1.9,7.7,3.4,9.3,4.5
	c4.6,3.1,9.7,5.4,14.1,8.5c2.4,1.6,4.7,3.2,7.2,4.8c2.4,1.5,4.8,3.4,7.3,5.5c22.3,19.2,40.6,38.8,52.1,63.5
	c5.2,11.2,10.3,22.6,15.3,34.2C933.3,230.7,936.8,236.7,941.2,242.3z M653.8,116.2c0-0.3-0.7-0.5-1.5-0.4c-0.8,0.1-1.5,0.4-1.4,0.7
	c0,0.3,0.7,0.5,1.5,0.4C653.2,116.8,653.9,116.5,653.8,116.2z M846.7,150.2c0.6-1,0.3-2.2-0.7-2.8l-9.6-5.8c-1-0.6-2.2-0.3-2.8,0.7
	l-0.1,0.1c-0.6,1-0.3,2.2,0.7,2.8l9.6,5.8c1,0.6,2.2,0.3,2.8-0.7L846.7,150.2z M837.4,167.9l2.2-2.4c0.4-0.5,0.4-1.2-0.1-1.6
	l-6.1-5.6c-3.6-3.3-7.2-5.3-8-4.4l-0.8,0.8c-0.8,0.9,1.4,4.3,5,7.6l6.1,5.6C836.2,168.4,836.9,168.4,837.4,167.9z M815.8,167.1
	c-0.8-1-2.3-1.2-3.3-0.4l-0.3,0.3c-1,0.8-1.2,2.3-0.4,3.3l8.7,10.8c0.8,1,2.3,1.2,3.3,0.4l0.3-0.3c1-0.8,1.2-2.3,0.4-3.3
	L815.8,167.1z M803,176.3c-0.6-0.8-1.7-0.9-2.4-0.4l-0.8,0.6c-0.8,0.6-0.9,1.7-0.4,2.4l8.7,11.8c0.6,0.8,1.7,0.9,2.4,0.4l0.8-0.6
	c0.8-0.6,0.9-1.7,0.4-2.4L803,176.3z M779.4,190.4c-0.2-0.4-0.6-0.7-1-0.9l-2.3-1c-1.9-0.8-3.7,1.2-2.7,3l7.2,13
	c0.6,1.1,2.1,1.5,3.1,0.7l1.4-1c0.9-0.6,1.2-1.8,0.6-2.8L779.4,190.4z M760.6,203.4c0.2,1.2,0,2,0.7,3.2c1.1,1.7,2,3.4,2.9,5.2
	c0.7,1.4,1.7,1.8,3.1,1.3c1.5-0.6,2.4-2.1,2.1-3.7c-0.1-0.6-0.1-1.2,0-1.8c0.1-0.5-0.1-0.9-0.6-1.2c-0.5-0.3-0.7-0.6-0.7-1.1
	c0-0.4-0.1-0.8-0.3-1.2c-1.1-2.8-2.5-5.4-4.2-7.9c-0.3-0.4-0.6-0.6-1-0.7c-1.3-0.2-2.6,0-3.7,0.7c-0.4,0.3-0.6,0.6-0.5,1.1
	c0.3,2,0.9,3.7,1.8,5.1C760.4,202.6,760.5,203,760.6,203.4z M576.4,198.8c0.5-0.6,0.4-1.5-0.2-2l-0.1,0c-0.6-0.5-1.5-0.4-2,0.2
	l-6.7,8c-0.5,0.6-0.4,1.5,0.2,2l0.1,0c0.6,0.5,1.5,0.4,2-0.2L576.4,198.8z M893.4,214.2c-7.2-2-10.1-7.7-10.9-14.5
	c-0.1-0.4-0.3-0.8-0.7-1c-1-0.6-1.9-0.5-2.9,0.2c-0.3,0.2-0.5,0.5-0.6,0.9c-1.2,6.9-3.6,14.7-10.7,17.6c-0.4,0.2-0.8,0.5-0.9,1
	c-0.3,0.9-0.3,1.8,0.1,2.7c0.2,0.4,0.4,0.6,0.9,0.7c8.9,1.5,8.8,9.1,10.6,15.9c0.3,1,1.2,1.6,2.2,1.4c0.9-0.2,1.5-0.8,1.7-1.8
	c1.1-5.5,1.2-11.6,5.8-15.4c2-1.6,4-3.3,6-5C894.9,216,894.6,214.5,893.4,214.2z M591.9,204.4c0.6-0.8,0.3-2-0.5-2.5l-0.1-0.1
	c-0.8-0.6-2-0.3-2.5,0.5l-10,14.9c-0.6,0.8-0.3,2,0.5,2.5l0.1,0.1c0.8,0.6,2,0.3,2.5-0.5L591.9,204.4z M726.7,219.3
	c0.3,2.1,1,4.2,2.2,6.4c0.3,0.6,0.8,0.8,1.4,0.8c1.8-0.1,3.4-0.6,4.7-1.7c0.4-0.4,0.7-0.9,0.6-1.4c-0.2-2.6-0.9-5.1-2.2-7.3
	c-0.2-0.4-0.3-0.8-0.2-1.2c0.2-0.6,0-1.2-0.6-1.5c-0.1-0.1-0.2-0.2-0.3-0.3l-2.7-5.3c-0.4-0.8-1.4-1.1-2.1-0.6c-0.9,0.6-1.9,1-3,1.2
	c-0.8,0.2-1.1,0.6-0.7,1.4c0.6,1.3,0.9,2.7,0.8,4.1c0,0.4,0.1,0.7,0.3,1c1.1,1.3,0.1,2.4,0.7,3.6c0.1,0.2,0.3,0.4,0.5,0.4
	C726.5,218.8,726.7,219,726.7,219.3z M604.3,211.2c0.5-1.1,0-2.4-1.1-2.8l-0.1-0.1c-1.1-0.5-2.4,0-2.8,1.1l-7,15.8
	c-0.5,1.1,0,2.4,1.1,2.8l0.1,0.1c1.1,0.5,2.4,0,2.8-1.1L604.3,211.2z M618.4,215.8c0.4-1.1-0.2-2.3-1.3-2.7l-1-0.4
	c-1.1-0.4-2.3,0.2-2.7,1.3l-5.6,16.1c-0.4,1.1,0.2,2.3,1.3,2.7l1,0.4c1.1,0.4,2.3-0.2,2.7-1.3L618.4,215.8z M713.3,219.2
	c0.7-2.2,0.1-3.7-1.8-4.6c-0.2-0.1-0.4-0.2-0.5-0.3c-0.2-0.1-0.3-0.3-0.4-0.5c-0.1-0.4-0.4-0.7-0.9-0.7c-1.6-0.2-2.9,0.2-3.9,1.1
	c-0.5,0.4-0.7,1.1-0.6,1.7l1.3,7.3c0.1,0.4,0.2,0.7,0.4,1.1c0.3,0.5,0.4,1.1,0.3,1.7c-0.1,0.3-0.1,0.5,0,0.8l1.5,4.5
	c0.4,1.2,1.2,1.6,2.3,1.1l3.8-1.4c1.2-0.4,1.5-1.2,1.2-2.4c-0.4-1.3-0.5-2.6-0.3-3.9c0.1-0.5-0.2-1-0.5-1.2l-0.4-0.3
	c-0.3-0.2-0.4-0.5-0.3-0.9c0.6-1.4,0.3-2.3-1-2.7C713.3,219.4,713.2,219.3,713.3,219.2z M690.5,225.3c0.1-0.1,0.2-0.2,0.3-0.2
	c0.2-0.2,0.3-0.4,0.2-0.7c-0.9-1.9-1.3-3.7-1.3-5.5c0-0.4-0.2-0.8-0.6-1c-0.3-0.2-0.5-0.5-0.6-0.9c-0.2-0.8-1-1.2-1.7-0.8
	c-1.8,0.8-2.5,2.2-2.1,4.1c0.1,0.3,0,0.6-0.1,0.9l-0.2,0.4c-0.2,0.4-0.3,0.9,0,1.3c0.5,1,0.6,2,0.4,3.1c-0.1,0.5,0,1,0.2,1.5
	c0.5,1.1,0.5,2.1,0.1,3c-0.1,0.3-0.1,0.6,0.2,0.8c0.1,0.1,0.2,0.1,0.3,0.1c0.5,0.1,0.7,0.3,0.5,0.8c-0.5,1.4,0.1,2.6,1.7,3.5
	c0.8,0.5,1.6,0.4,2.2-0.3l1.9-2.1c0.3-0.4,0.3-0.7-0.1-1.1c-0.7-0.6-0.8-1.3-0.3-2.1c0.2-0.4,0.2-0.8,0.1-1.2l-0.2-0.4
	c-0.1-0.3-0.1-0.6,0.1-0.9c0.4-0.6,0.4-1.2-0.1-1.7c-0.1-0.1-0.2-0.1-0.2-0.2c-0.2-0.1-0.3-0.1-0.4,0
	C690.1,226,690,225.8,690.5,225.3z M641.5,218.8l-1.3,17.3c-0.1,0.7,0.5,1.4,1.2,1.4l1.6,0.1c1.6,0.1,3.1-2.3,3.3-5.4l0.7-8.7
	c0.2-3.1-0.9-5.7-2.5-5.8l-1.6-0.1C642.2,217.5,641.5,218.1,641.5,218.8z M659.3,220.4V219c0-0.6-0.3-1-0.9-1.1c-1-0.2-2-0.1-3,0.1
	c-0.6,0.1-1,0.5-1,1.2l-0.4,13.8c0,0.3,0.1,0.7,0.2,1c0.3,0.5,0.3,1.1,0.1,1.7c-0.5,1.6,0,2.4,1.8,2.3c0.8-0.1,1.6-0.1,2.5-0.1
	c1.2,0,1.8-0.6,1.8-1.8c0-4.4-0.1-9.2-0.1-14.4c0-0.3-0.2-0.6-0.5-0.7C659.5,220.9,659.3,220.7,659.3,220.4z M796.7,417
	c1.4-0.8,3-1.8,4.5-3.2c7-5.9,13.5-12.2,19.6-18.9c4.9-5.3,8.8-11.8,12.9-17.9l6.6-12.4c0.3-0.5,0.9-0.8,1.5-0.5
	c1.4,0.5,3,0.9,4.6,1.2c5.8,1,10.6,1.5,14.6,1.5c10.8,0.1,20.3-2.5,28.6-8c5.7-3.7,10.2-8.5,13.6-14.4c2.4-4.2,3.3-8.5,5-12.7
	c0.9-2.1,1.3-6.4,1.2-12.9c0-1.1,0.4-1.7,0.1-2.8c-0.5-2.3-1-4.6-1.5-6.9c-1-5.3-3.5-10.1-7.7-14.4c-2.6-2.7-6.1-4.8-10.6-6.3
	c-11.2-3.8-22.2-2.2-32.8,5c-0.5,0.3-0.9,0.9-1,1.5c-0.7,3.7-1.5,7.2-1.6,11c-0.4,11.5-1,23.1-1.7,34.6c-0.1,5-1.4,11.9-6.4,14.5
	c-1.6,0.8-3.2,0.8-4.9,0c-3.1-1.6-5.1-4.3-6.1-8.1c-0.8-3.1-1.6-6.3-2.6-9.5c-0.9-3-1.3-6.9-1.3-11.8c0-1.3-0.7-2.3-0.7-3.5
	c-0.3-9.2,0.1-18.4,1-27.4c0.1-0.9-0.3-1.2-1.2-1c-4.7,1.3-9.6,1.5-14.8,0.7c-16.6-2.5-31.2-8.9-43.7-19.1c-0.2-0.1-0.4-0.2-0.6-0.2
	c-0.3,0-0.5,0.2-0.6,0.6c-0.1,0.2,0,0.4,0.1,0.6c3.2,4.4,6.1,10.7,5,16.1c-0.7,3-1.9,5.2-3.8,6.4c-5.2,3.3-11,4-17.3,2.2
	c-7.3-2-13.7-5.3-19.2-9.9c-0.6-0.5-0.8-0.4-0.6,0.4c0.6,2.2,0.9,4.9,0.9,8c0,6.8-6.6,10.7-12.9,11.1c-2.2,0.1-4.2-0.8-6.4-0.9
	c-1.6-0.1-3.2-0.4-4.9-0.9c-6.3-2-12.2-5.3-17.7-9.7c-1.1-0.9-1.5-0.6-1.3,0.8c0.7,4.2-0.7,13.2-5.8,15.3c-3.5,1.5-7,2.2-10.2,2.3
	c-2.8,0-5.4-1-8.2-1.6c-2.1-0.5-4.2-1.3-6.4-2.5c-13.4-6.9-22.4-19.5-26.1-34.5c-0.5-2-1.2-3.8-2.1-5.6c-0.2-0.4-0.4-0.4-0.6,0
	c-0.5,1.2-0.9,2.4-1.1,3.7c-2.6,13.2-3.8,26.1-3.6,38.8c0.1,8.1-2.2,16.7-12.4,16c-4.8-0.3-9-2-12.8-4.7c-2.9-2-3.6-1.4-2.1,1.8
	c5.5,12.1,10.3,24.2,14.6,36.5c3,8.7,4,17.9,3,27.5c-0.7,6.9,0.2,13.5,2.1,20c0.8,2.7,2.1,5.4,3.9,8.1c2.5,3.7,4.5,6.2,5.9,7.4
	c5.4,4.8,11.2,8.4,17.4,10.8c4.1,1.6,8.5,3,13.2,4.3c10,2.8,21.2,3.6,31.7,3.9c6.2,0.2,13.7-0.3,22.6-1.4c4.1-0.5,8.1-1.2,12-2.1
	c3.8-0.9,7.9-1.5,12.2-1.8c1.1-0.1,1.7,0.4,1.9,1.5l1.9,10.3c0.1,0.7,0.8,1.2,1.5,1c4.4-1,9-1.9,13.2-3.4c3.9-1.4,8.1-2.7,12.5-3.8
	c0.7-0.2,1.4,0.2,1.6,0.9c1,3.7,2.7,7.4,4.8,10.5c1.6,2.4,2.9,4.9,3.8,7.5c1.5,4.1,3.3,8.4,5.2,12.8c1.5,3.5,2.7,6.9,3.5,10.2
	c0.2,1,0.9,1.5,1.9,1.5c0.8,0,1.4-0.3,1.9-1c0.3-0.4,0.4-1,0.2-1.4c-3.1-10-6.2-18.2-9.4-24.6c-2.4-4.8-6.5-9.4-8.6-14.7
	c-0.2-0.4-0.4-0.8-0.8-1l-1-0.6c-0.5-0.3-0.5-0.7-0.1-1.1c0.2-0.2,0.5-0.4,0.8-0.5c0.9-0.3,1.3-1,1-2l-3-10.7
	c-0.3-1.1,0.3-2.3,1.3-2.8C782,427.3,789.5,422.7,796.7,417z M473.2,274.6c-0.6,0.1-1.1,0.5-1.2,1c-0.9,3.2-2,6.4-3,9.8
	c-0.4,1.4-2.5,4-6.3,8c-1.6,1.7-3.9,1.9-5.7,3.3c-0.7,0.5-0.7,1.7,0.1,2.1c2.5,1.5,4.9,3.1,7.1,4.9c4.3,3.5,5.6,7.8,7.5,12.5
	c0.8,2,3.6,2.1,4.6,0.2c1.1-2.3,1.6-5.1,2.5-7.6c1.9-5.4,7.2-7.6,11.9-10.3c1.2-0.7,1-2.4-0.3-2.9c-4.1-1.3-7.3-3.5-9.6-6.4
	c-3-3.7-3.6-9.1-5.5-13.5C474.9,274.9,474.2,274.5,473.2,274.6z M961.6,332c-1.3,10.3-6.1,17.5-14.2,21.6c-1.9,1-3.3,3.4-2.5,5.5
	c0.2,0.4,0.4,0.7,0.8,0.9c4.3,2.1,7.2,4,8.6,5.8c3.5,4.3,6,9.9,7.4,16.9c0.3,1.4,1.9,2.1,3.1,1.4c1-0.6,1.7-1.5,1.9-2.6
	c0.9-5.3,2.4-11.7,5.6-15.9c2.6-3.5,6.2-5.7,9.3-8.6c1.5-1.4,1.9-3,1.2-4.8c-0.2-0.5-0.5-0.9-1-1.1c-5.5-2.9-9.6-5.7-11.8-12.1
	c-1.3-3.7-2.4-7.3-3.3-10.7c-0.5-1.8-3-2.1-3.8-0.3C962.1,329.3,961.7,330.6,961.6,332z M1130.7,329.2c0.2-0.3-0.5-1-1.6-1.5
	c-1-0.5-2-0.6-2.2-0.3c-0.2,0.3,0.5,1,1.6,1.5C1129.5,329.4,1130.5,329.5,1130.7,329.2z M616.1,415.4c0.8-0.1,1.1-0.5,0.8-1.3
	c-2.2-6.8-3.1-13.9-2.7-21.2c0.4-6.5,0.5-10.6,0.3-12.3c-0.5-5.7-1.9-11.4-4-16.9c-2.4-6.3-4.9-13.1-7.5-20.5
	c-0.3-0.8-1.1-1.4-2-1.4c-2.2,0-4.3-0.7-6.5-0.1c-13.7,3.6-20.3,13.4-22.9,26.5c-0.3,1.8-0.4,3.5-0.3,5.1c0.3,4.6,0.2,9.1,1.6,13.5
	c4.2,13.3,13.1,22.3,26.7,27.1C604.8,415.6,610.2,416.1,616.1,415.4z M440.7,402.4c-1.5,1.3-3.6,1.5-4.3,3.7
	c-0.4,1.3-0.4,2.4-0.1,3.5c0.1,0.5,0.4,0.9,0.9,1.2c2.8,1.9,5.8,3.7,8.8,5.4c8.5,4.8,12.3,13.2,15.3,22.5c0.6,2,1.3,3.9,2.1,5.8
	c1.2,3.2,3.1,4.7,6.4,5.1c3.5,0.5,6.1-3.5,6.9-6.4c1.2-4.5,2.4-8.9,3.6-13.3c2.1-7.6,9.4-15.9,16.2-21.4c2.1-1.7,3.2-4,3.1-6.9
	c0-0.5-0.3-1-0.7-1.2c-8.2-4-15-9.2-18.1-18.1c-2.2-6.1-4.4-12.4-6.8-18.8c-0.6-1.7-1.6-2.5-3.1-2.6c-6.5-0.3-7.3,6.1-8.8,10.8
	c-0.3,0.9-0.7,2.8-1.4,5.6c-1.5,6.4-4.5,11.9-8.9,16.5C448.6,397.3,444.3,399.3,440.7,402.4z M375.2,413.9
	c-6.7-2.4-9.3-9.2-10.4-15.8c-0.2-1.4-1.8-2-2.9-1.3c-0.9,0.6-1.7,2-1.9,3.1c-1.1,6.8-4.9,11.8-11.3,15.1c-1.5,0.8-1.5,3,0.1,3.7
	c1.2,0.5,2.3,1,3.5,1.4c5,1.9,6.1,10.4,7.2,14.7c1,3.9,2.4,4,4,0.3c0.6-1.4,1.2-3.6,1.7-6.5c1.1-6.5,5.9-8.8,10.3-12.4
	C376.4,415.5,376.2,414.3,375.2,413.9z M866.4,418.4c-1.7,4.4-3.1,9.5-4.1,15.2c-0.8,4.2-1.1,7.9-0.8,11.1c-0.3,1.8-0.9,3.3-1.6,4.4
	c-0.6,0.9-1.6,1.3-3.2,1.3c-1.4-3.4-2.8-6.9-4.1-10.3c-0.9-2.3-1.5-4.5-1.8-6.8c-0.4-2.6-1.1-4.9-2.1-7c-1-2-1.9-4.1-2.7-6.1
	c-0.4-1-1-1.8-1.9-2.3c-1.3-0.8-3,0-3.2,1.5c-2.5,13.1-1.9,26.3,1.9,39.8c2.7,9.6,6.5,18.7,11.4,27.3c0.3,0.5,0.5,1.1,0.5,1.8
	c0,1.5,0.5,1.6,1.5,0.6c1.2-1.3,2.6-2.3,4.3-2.8c3.1-1,6.1-2.2,8.9-3.7c3.7-1.9,7.8-2.3,11.8-4.1c3.9-1.3,7.9-2.6,12-4
	c4.5-1.5,9.2-2.3,13.5-4.2c3.4-1.5,6.9-1.6,10.5-2.9c2.3-0.8,5-1.5,8-2.2c3-0.6,6-1.5,8.9-2.5l5-1.7c0.5-0.2,0.8-0.6,0.6-1.1
	c-2-7-4.1-13.9-6.3-20.8c-1.8-5.5-3.5-9.6-5.1-12.2c-7.2-11.6-20.8-17.9-34-21.7c-7.8-2.2-17.7-4-23.8,3
	C869.2,409.4,867.8,412.9,866.4,418.4z M796.3,434.2c-4.9,0.5-12.9,1-14.4,5.1c-0.3,0.7,0.4,1.3,1.1,1c6.5-2.8,13.7-3.9,21.7-3.3
	c2.7,0.2,5,1.1,7,2.8c5.5,4.7,10.4,10.7,14.7,18c0.4,0.7,1,1.3,1.7,1.7c1.4,0.8,1.8,0.4,1.2-1.1c-3.1-8.3-7.7-14.8-14-19.5
	c-3.8-2.8-7.3-2.7-11.4-4.4C802.4,434,799.9,433.9,796.3,434.2z M816,461.5c-3.9-5.8-12.9-15.8-20.4-16.7c-2.5-0.3-2.6,0.2-0.5,1.6
	c3.8,2.4,7.6,4.8,10.6,8.2c4.8,5.5,9.2,11.2,13.1,17.3c0.6,0.9,1.4,1.2,2.4,0.8c0.5-0.2,0.8-0.6,1-1.2c0.1-0.4,0-0.8-0.2-1.2
	C820.1,467.5,818.1,464.6,816,461.5z M761.1,489.6c0.2-0.5,0.1-0.9-0.2-1.4c-0.2-0.4-0.4-0.8-0.4-1.2c0-2.6-0.4-5.3-1.1-8.2
	c-0.2-0.9-0.2-1.7,0.1-2.5c0.2-0.4,0.2-0.8,0.1-1.2c-0.1-0.3-0.2-0.7-0.5-1c-0.3-0.4-0.4-0.8-0.2-1.2c0.3-0.7,0.1-1.4-0.4-2
	c-0.3-0.3-0.4-0.8-0.3-1.2l0.3-0.8c0.1-0.4,0.1-0.9-0.2-1.2c-0.4-0.6-0.4-1.2,0-1.8c0.3-0.4,0.3-0.9,0.1-1.4
	c-0.5-0.8-0.7-1.6-0.6-2.6c0.2-1.7-0.4-3.5-0.8-5.2c-0.2-0.8-1.2-1-1.7-0.4c-0.5,0.7-0.8,1.5-0.8,2.4c-0.1,5.3,0.1,10.4,0.5,15.4
	c0.7,8.3,1.9,17,3.4,26c0.1,0.6,0.4,1,0.9,1.3c0.6,0.3,1.2,0.3,1.8,0c0.4-0.2,0.6-0.5,0.7-1c0.4-3.3,0.2-6.6-0.7-9.8
	C761,490.3,761,490,761.1,489.6z M972,513.8c-3.9-10.5-8.1-21.5-12.5-31.8c-2.6-6.2-8.7-17-15.4-20.6c-2.7-1.5-3-1-1,1.3
	c6.5,7.3,10.8,14.2,14.5,23.3c4,9.6,8.4,19.4,11.7,29.5c0.2,0.6,0.7,0.9,1.3,0.9c0.2,0,0.4-0.1,0.6-0.2
	C972.1,515.6,972.4,514.8,972,513.8z M729.6,482.2c-1.4,4.6-2.3,10.1-2.6,16.3c0,0.4,0.2,0.7,0.6,0.8c0.2,0.1,0.4,0.1,0.6,0
	c0.4-0.2,0.6-0.4,0.8-0.8c0.9-2,1.5-3.9,1.9-5.9c0.3-1.7,0.7-3.3,1.1-5c1.9-7.6,3.7-15,5.2-22.1c0.2-1.1,0.7-2.3,1.5-3.6
	c0.5-0.8,0.2-1.2-0.7-1.2c-0.4,0-0.7,0-1.1,0.1c-0.9,0.3-1.6,0.9-1.9,1.8c-1.9,4.8-3.3,9.6-4.2,14.7c-0.1,0.5-0.3,0.9-0.5,1.3
	C729.5,479.9,730,480.9,729.6,482.2z M924.2,466.8l-2.1,0.9c-0.3,0.1-0.5,0.5-0.3,0.8l16.2,38.2c4.3,10.1,8.2,18.2,8.7,18l1.4-0.6
	c0.5-0.2-2.6-8.6-6.9-18.8L925,467.2C924.9,466.9,924.5,466.7,924.2,466.8z M908.4,473.8c-0.3-0.8-1.2-1.3-2-1l0,0
	c-0.8,0.3-1.3,1.2-1,2l18.1,53.5c0.3,0.8,1.2,1.3,2,1l0,0c0.8-0.3,1.3-1.2,1-2L908.4,473.8z M903.2,538.2l1.9-0.6
	c0.3-0.1,0.5-0.4,0.4-0.8l-14-44.9c-2.3-7.4-4.6-13.3-5-13.2l-1.3,0.4c-0.5,0.2,1,6.3,3.3,13.7l14,44.9
	C902.6,538.1,902.9,538.3,903.2,538.2z M855.6,518.9c0.8,2.2,0.6,4.3,1.6,6.4c0.6,1.3,1.2,2.6,1.7,4c2,5.4,5.3,12.3,9.9,20.8
	c0.2,0.3,0.5,0.4,0.8,0.2l0.3-0.2c0.8-0.5,0.9-1.1,0.6-1.9c-2.4-5.1-4.6-10.2-6.8-15.2c-2.9-6.8-5.1-14.2-7.4-21.4
	c-2.8-8.8-3.5-15.8-2.1-21.1c0.2-0.7-0.1-0.8-0.7-0.5l-0.5,0.2c-0.6,0.3-1,0.8-1.2,1.4c-0.9,3.6-1.2,6.8-0.8,9.6
	C851.9,507,853.4,512.9,855.6,518.9z M880.3,529.7c-1.6-3.6-1.8-8.2-3-12.3c-2.4-8.6-4.2-17.2-5.2-25.6c-0.4-3-1-3.1-1.9-0.2
	c-0.1,0.4-0.1,1.6,0.1,3.6c0.5,5.4,1.3,11.1,2.5,17c1.2,5.7,3.3,11.3,4.5,17.1c1.2,5.6,3.4,10.8,5.5,16.1c0.2,0.5,0.8,0.8,1.4,0.5
	c0.4-0.2,0.5-0.6,0.4-1.2C883.9,539.6,882.5,534.6,880.3,529.7z M871.1,557.4c0.8,6.5,1.4,12.6,1.7,18.3c0.1,2,0.9,3.6,1.1,5.5
	c0.8,7.3,1.8,14.2,3.6,21.6c2.7,11.3,5.3,22.5,7.7,33.6c0.9,4,3.3,13.7,1,17.2c-4.7,6.8-10.8-4.4-12.2-8.4
	c-5.6-15.2-9.1-30.1-11.7-46.7c-0.8-5.1-1.1-11.8-2.2-17.5c-0.3-1.8,0-3.3-0.1-5c-0.1-1.5-0.6-1.7-1.7-0.6c-0.9,1-1.3,2.2-1,3.7
	c0.9,6,0.8,12.2,1.6,18c2.3,17,6.1,34.3,13,51c1.5,3.6,3.5,6.3,6.1,8.3c4.3,3.4,9.9,3.2,11.7-2.8c2-6.5-0.4-14.9-1.9-21.4
	c-5-21.3-10.3-42.6-12.6-64.6c-0.4-3.6-1-7.4-1.9-11.4c-0.1-0.4-0.5-0.6-0.9-0.5l-0.4,0.1C871.4,556.1,871.1,556.7,871.1,557.4z
	 M529.5,560.8c-0.4-0.1-0.5,0.1-0.4,0.4l4.3,11.5c0.4,1,1.7,1.1,2.2,0.2c0.4-0.6,0.4-1.3,0-2c-1.3-2.8-2.8-5.8-4.4-9
	c-0.3-0.5-0.7-0.9-1.3-1L529.5,560.8z M811.5,585c7.6,1.9,8.5,8.5,10,14.9c0.1,0.5,0.8,0.7,1.2,0.3c0.9-0.9,1.5-2,1.8-3.3
	c0.6-2.6,1.3-5.2,2.1-7.7c1.4-4.1,5.1-6.3,8.3-8.7c1.5-1.1,1.3-1.8-0.5-2.1c-6.9-1-8.6-5.5-10.2-11.7c-0.1-0.4-0.4-0.7-0.8-0.9
	c-0.7-0.3-1.4-0.2-1.9,0.4c-0.4,0.4-0.7,0.8-0.7,1.4c-0.5,2.8-0.7,5.4-2.2,7.9c-1.8,3-4.1,5.4-7,7c-0.6,0.4-0.9,0.9-0.8,1.6
	C810.8,584.6,811.1,584.9,811.5,585z M511.7,569.8c-0.3-0.7-1-1-1.7-0.8l-0.4,0.1c-0.7,0.3-1,1-0.8,1.7l5.8,15.3
	c0.3,0.7,1,1,1.7,0.8l0.4-0.1c0.7-0.3,1-1,0.8-1.7L511.7,569.8z M488.9,630.6c-2.4-8.5-4.7-16.8-6.7-25c-0.8-3.3-1.6-7-2.3-11.1
	c-0.6-3.7-1.6-7.4-3.1-11.1c-0.1-0.3-0.3-0.4-0.7-0.4c-0.4,0.1-0.8,0.4-0.8,0.9c0.1,2,0.2,4.1,0.6,6.2c2.2,14.3,5.8,28.5,10.9,42.7
	c0.2,0.5,0.5,0.6,1,0.5c0.7-0.2,1.1-0.9,1.2-2.2C489,631,489,630.8,488.9,630.6z" class="st1"></path>
<path d="M375.9,85.8c1.3-0.3,2.2,0,2.6,1.1c2.2,5.4,3.6,9.4,4.1,12.2c1.3,6.9,3.9,13.4,7.9,19.3
	c2.5,3.7,5.8,5.8,8.6,9.2c1,1.3,2.2,2.2,3.6,2.7c4.3,1.8,8.4,4.8,12.2,9.2c0.2,0.3,0.3,0.6,0.3,0.9c-1.1,6.3-6.7,7.2-11.7,9.3
	c-8.7,3.7-14.5,12.8-17.5,21.7c-2.4,7.2-4.5,14-6.1,20.3c-0.7,2.7-1.9,5.2-3.2,7.6c-0.2,0.4-0.6,0.7-1,0.8l-3.4,0.9
	c-0.5,0.1-0.9,0-1.3-0.3c-3.6-2.6-5-8.8-5.3-13.1c-0.1-1.7-0.9-2.6-1.1-4.1c-0.6-5.9-3.5-11.6-5.8-16.9c-1.7-4-4.9-7.4-7.5-10.9
	c-1.5-2.1-3.7-2.5-5.3-4.2c-2.5-2.6-5.1-5-7.9-7.2c-0.4-0.3-0.7-0.8-0.8-1.4c-0.5-2.5,0-6,2.5-7.4c4.4-2.5,9-6,13.7-10.4
	c6.5-6.1,9.3-12,11.4-21.2c1.1-4.7,2.5-9.5,4.2-14.2c0.9-2.5,2.1-4,4.7-4.8c0.7-0.2,1.2,0,1.6,0.6C375.3,85.8,375.6,85.9,375.9,85.8
	z" class="st1"></path>
<path d="M994.8,109.9c-0.9,2.6-3,3.7-5.6,3.2c-4.6-0.9-9.4-1.2-14.6-0.8c-5.1,0.4-9.9-0.9-15-0.4
	c-2.5,0.3-4.5-0.7-5.9-2.8c-0.1-0.2-0.2-0.3-0.3-0.5c-1.1-2.2-0.5-3.6,1.9-4.2c2.4-0.6,4.8-0.9,7.2-0.9c8.2,0,16.3,0.1,24.5,0.3
	c0.7,0,1.4,0,2.1,0C992.3,103.5,996,106.3,994.8,109.9z" class="st1"></path>
<path d="M957.7,236.8c2.1,2.6,4.8,5.4,8.1,8.6c0.7,0.7,0.8,1.7,0.3,2.9c-0.1,0.2-0.2,0.3-0.4,0.4
	c-1,0.5-1.8,0.5-2.3,0.1c-4.8-3.5-8.8-7.5-12-11.9c-10.3-13.5-16.3-28.9-22.8-44.3c-1.7-4-5-10.6-10-19.8
	c-5.8-10.7-13.5-20.6-23.1-29.5c-7.9-7.4-15.3-13.2-22-17.4c-4.9-3.1-9.6-6.2-14.1-9.4c-0.7-0.5-1-1.4-0.8-2.2
	c0.2-0.7,0.7-1.1,1.5-1.1c0.6,0,1.2,0.1,1.8,0.4c17.8,8.1,36.4,23,49.1,38.6c9.3,11.3,17.5,27.2,22.8,39.9
	C940.5,208.4,946.9,223.7,957.7,236.8z" class="st1"></path>
<ellipse ry="0.6" rx="1.5" cy="116.3" cx="652.3" class="st2" transform="matrix(0.9969 -7.845910e-02 7.845910e-02 0.9969 -7.1131 51.54)"></ellipse>
<path d="M836.4,141.6l9.6,5.8c1,0.6,1.3,1.8,0.7,2.8l-0.1,0.1c-0.6,1-1.8,1.3-2.8,0.7l-9.6-5.8c-1-0.6-1.3-1.8-0.7-2.8
	l0.1-0.1C834.2,141.4,835.5,141.1,836.4,141.6z" class="st2"></path>
<path d="M837.4,167.9c-0.4,0.4-1.1,0.5-1.6,0.1l-6.1-5.6c-3.6-3.3-5.8-6.7-5-7.6l0.8-0.8c0.8-0.9,4.4,1.1,8,4.4l6.1,5.6
	c0.4,0.4,0.5,1.1,0.1,1.6L837.4,167.9z" class="st2"></path>
<path d="M251.3,201.2c4.2,4.1,7.8,7.2,10.7,9.1c2.6,1.7,2.9,3.9,1,6.4c-3.2,4.4-10.2,6.4-12.5,8.8
	c-7.2,7.5-9,18.4-11.3,28.2c-0.5,2.1-1.4,4.1-2.7,5.8c-0.2,0.3-0.5,0.5-0.9,0.5c-3.7,0.8-6-0.7-7-4.3c-1.7-5.9-3.5-11.7-5.6-17.5
	c-0.9-2.5-3.2-5.5-6.9-8.9c-3-3.2-5.5-5.4-7.4-6.4c-4.9-2.6-10.7-5.3-8.9-11.9c0.4-1.4,1.3-2.7,2.7-3.7c6.8-4.9,14.4-10.6,17.9-18.2
	c2-4.3,4.1-11.5,6.4-21.6c0.4-1.6,1.7-3.8,3.9-6.7c0.3-0.4,0.7-0.6,1.2-0.6l2.9,0.1c1.5,0,2.5,0.7,3.1,2c2.5,5.6,4,11.4,4.6,17.4
	c0.2,2.4,0.8,4.8,1.7,7C246.2,192.1,247,196.2,251.3,201.2z" class="st1"></path>
<path d="M812.1,167l0.3-0.3c1-0.8,2.5-0.7,3.3,0.4l8.7,10.8c0.8,1,0.7,2.5-0.4,3.3l-0.3,0.3c-1,0.8-2.5,0.7-3.3-0.4
	l-8.7-10.8C810.9,169.3,811.1,167.9,812.1,167z" class="st2"></path>
<path d="M799.8,176.5l0.8-0.6c0.8-0.6,1.9-0.4,2.4,0.4l8.7,11.8c0.6,0.8,0.4,1.9-0.4,2.4l-0.8,0.6
	c-0.8,0.6-1.9,0.4-2.4-0.4l-8.7-11.8C798.9,178.1,799.1,177,799.8,176.5z" class="st2"></path>
<path d="M326.7,186c1.7,3.2,3.9,5.9,5.7,9c2.8,5,5.6,9.9,8.6,14.8c3.1,5.1,5.8,10.4,8.8,15.5c0.9,1.5,1.3,3.2,1.5,4.9
	c0.3,1.9-0.4,3.2-2.2,3.9c-2,0.8-3.6,0.2-4.7-1.7c-1.9-3.4-4.4-6.3-6.4-9.7c-3.2-5.5-6.4-11-9.8-16.5c-0.2-0.4-1.6-3-4.2-7.7
	c-1.4-2.6-3.1-5.1-4.9-7.4c-0.9-1.2-1.1-3.3-0.6-6.3c0.1-0.4,0.3-0.8,0.7-1C322.6,182.2,325.1,183,326.7,186z" class="st1"></path>
<path d="M779.4,190.4l6.2,10.9c0.5,1,0.3,2.2-0.6,2.8l-1.4,1c-1,0.8-2.5,0.4-3.1-0.7l-7.2-13c-1-1.8,0.8-3.8,2.7-3
	l2.3,1C778.8,189.6,779.2,189.9,779.4,190.4z" class="st2"></path>
<path d="M370.4,264c-7.3,2.3-14.3,4.3-21.1,6.1c-9.8,2.6-19.4,5.7-28.8,9.4c-19.3,7.5-39.2,20.1-50.3,37.3
	c-0.7,1.1-0.6,2.1,0.5,3l0.3,0.2c0.7,0.6,1.8,0.5,2.4-0.2c4.1-4.9,7.3-8.4,9.5-10.6c10.5-10,23.1-18,37.5-23.9
	c9.7-4,16.2-6.4,19.5-7.3c11.9-3.2,23.6-6.6,35-10.1c2.4,0.7,4,1.3,4.9,1.9c2.2,1.4,3.9,3.1,5,5.2c0.6,1.1,0.3,2.4-0.6,3.2
	c-3.2,2.9-7,5.3-11.2,7c-7.9,3.3-16.4,6.7-24.9,9.4c-17.8,5.8-32.2,11.7-43.2,17.8c-29.9,16.5-52.7,47.7-55.7,82.4
	c-0.3,3,0.3,6.3,1.8,9.7c2,4.6,4.1,9.3,6.2,14.2l1.6,3.3c0.2,0.4,0.5,0.7,0.9,0.8c1.5,0.4,2.3-0.1,2.5-1.4c1.7,4.1,2.4,8,4.2,12
	c1.1,2.4,1.4,5.1,0.9,8.2c-1.9,12.1-15,3-20.3-1.3c-7.1-5.8-14-11.2-20.8-17.5c-23.2-21.4-44.5-42.3-63.8-62.7
	c-9.8-10.4-18.4-19.9-25.8-28.6c-4.9-5.9-8.1-11.6-7.3-19.5c0.3-2.4,1.6-5.1,3.9-7.9c4.4-5.3,8.2-9.5,11.6-12.5
	c8.7-7.8,17.7-15.8,26.7-23.5c15-12.7,29.8-25.5,44.4-38.7c3.7,3.5,6,6.4,6.9,8.9c2.1,5.8,3.9,11.6,5.6,17.5c1,3.6,3.4,5,7,4.3
	c0.3-0.1,0.7-0.3,0.9-0.5c1.3-1.8,2.2-3.7,2.7-5.8c2.3-9.8,4.2-20.7,11.3-28.2c2.3-2.4,9.3-4.5,12.5-8.8c1.9-2.6,1.5-4.7-1-6.4
	c-3-2-6.5-5-10.7-9.1c2.6-3.5,5.8-6.4,9.5-8.7c2.8-1.7,5.4-2.4,7.9-2.1c9.9,1.2,17.7,9.5,25.4,15.1c15.9,11.6,33.3,24.5,52.3,38.9
	C354.3,250.5,362.4,257.1,370.4,264z M293.6,233.4c-0.1-5.2-0.9-11.7-5.4-15c-0.4-0.3-0.8-0.3-1.2,0.1c-3.3,3.3-4,8.5-4.8,12.9
	c-1.1,6.4-5.6,8.3-10.4,11.4c-0.5,0.3-0.8,0.8-0.8,1.4c-0.1,1.9,0.2,3.7,0.9,5.3c0.2,0.5,0.5,0.8,1,1c5,2.5,9.5,7.8,9.6,13.6
	c0,2.5,1.2,5.3,3.3,8.3c0.6,0.8,1.3,1,2.2,0.5c4.4-2.2,4.2-5.4,4.9-9.5c0.9-6,3.9-10.1,8.9-12.1c2.5-1,6.2-5.4,3.1-7.8
	c-3.7-2.9-7.2-5.8-10.7-8.8C293.9,234.4,293.6,233.9,293.6,233.4z M210.6,328.4c1.6-6.3,5.9-12.7,11.1-16.5c6-4.4-1.6-9-4.7-11.4
	c-4-3.1-7.5-8.5-9.8-13.2c-2.3-4.5-6-11.7-12.2-7.7c-2,1.3-3.4,3.1-4.1,5.3c-2.8,8.1-7.3,13.4-14.6,18.4c-6.1,4.2-6.7,9.2-0.1,13.5
	c9,5.9,13.4,14.1,17.6,23.6c2,4.6,7.2,6.8,11,2.5C207.9,339.2,209.4,333.1,210.6,328.4z" class="st0"></path>
<path d="M1041.4,900.6c-0.3-0.4-0.7-0.6-1.1-0.6c-6.4-0.2-13.4-0.1-19.6,1.7c-6.4,1.9-12.3,4.4-17.6,7.7
	c-4.1,2.5-8.3,6.3-12.3,9.5c-2.6,2.1-5.5,4.7-8.7,7.8c-7,6.8-14.6,12.9-22.9,18.3l-7.6,3.3c-4.3,1.5-8,2.5-11,3
	c-10.7,1.7-24-2.2-33.7-6.8c-7.2-3.5-14.6-7.2-22.2-11.1c-6.6-3.4-13.2-6-19.9-7.9c-3.6-1.5-6.9-2.5-9.9-2.9
	c-12.6-1.8-25.9-2.8-39.9-2.8c-11.6-0.1-25.5,0.4-41.8,1.3c-16.5,1-47.1,3.7-91.5,8.4c-1.5,0.2-3.1,0.4-4.8,0.7
	c-1.9,0.3-3.4,0.5-4.8,0.5c-13.9,1.3-26.2,1.7-36.7,1.1c-15.8-0.9-34.5-7.2-46.2-18.7c-11.3-11-18-27.4-19.6-42.5
	c-1-9.7-1.2-18.9-0.5-27.5c0.1-1.3-0.3-1.5-1.2-0.5c-10.6,12.2-20.5,24.3-29.8,36.2c-10.6,13.5-19.9,25.8-28,36.9
	c-1.1,1.6-2.3,3.1-3.4,4.7c-1.2,1.7-2.4,3.2-3.6,4.6c-3.3,1.8-5.8,2.8-7.4,3c-14.4,1.6-27.5-1.8-39.3-10.2
	c11.9-21,23.6-42.1,35-63.4c3.9-7.3,6.4-12.8,7.5-16.3l62.3-119.1l4.6,6.5c12.9,18.5,25.1,37.4,36.8,56.6c0.2,0.4,0.7,0.5,1.1,0.2
	c4-2.6,8.3-5,12.7-7.1c8.2-3.8,17.8-5.1,27-4.6c4,0.2,7.9,0.3,11.7,0.3c1.5,0,3.1-0.1,4.7-0.4c3.9-0.6,8-0.9,11.5-2.5
	c3.4-1.5,7.2-4.2,11.3-8c2.3-2.1,3.2-5.8,2.8-8.7c-1.8-13.8-1.7-27.5,0.3-41.1c1.2-8.5,4-17.7,8.2-27.6c1.2-1.2,3-3.5,5.3-7.2
	c2-3.2,5.4-6.2,10.2-8.9c4.5-2.6,13.4-5.1,19.2-3.6c2.4,0.7,5.1,1.2,7.9,1.5c0.4,0,0.7-0.1,0.9-0.5c2-4.1,4.3-8.2,6.9-12.5
	c7.4-12.1,18.9-21.7,31.6-27.2c15.9-6.9,35.6-4.4,50.4,4.6c11,6.7,19.7,14.3,26.5,25.2c6.4,10.4,11.2,20.6,12.8,32.6
	c0.1,0.5,0.4,0.9,0.9,1.1s1,0.1,1.4-0.3c7-6.1,14.4-10.4,23.9-11.1c10.2-0.7,20,1.5,29.4,6.6c5.9,3.2,10.8,7.7,14.5,13.6
	c7.9,12.3,9.8,25.3,6.9,40c-1.5,7.7-4,15-7.6,22c-0.8,1.5-0.4,2.7,1.1,3.4c8.9,4.3,17.9,7.9,27.9,9.4c11.4,1.6,21.6,1.8,30.7,0.4
	c9.2-1.4,17-3.6,23.6-6.6c18.2-8.4,32-20.8,41.4-37.1c5.1-9,8.3-18.4,9.3-28.3c0.5-4.3,0.6-9,0.3-14.3c-0.7-14.1-5.4-28.7-11-41.6
	c-6.7-15.5-13.7-30.1-21-43.6c-3.3-6.1-6.6-12.2-10-18.4c-12.3-22.2-26.2-42.4-41.9-60.4c-0.4-0.4-0.2-1.2,0.4-1.3
	c8.1-2.6,14.2-7.7,20.5-13.8c4.1-3.9,6.8-9,10-13.6c1.3-1.9,2.4-4.3,3.5-7.2c1-2.8,3.1-4.9,3.9-7.6c1.4-4.8,2.9-9.4,4.3-14
	c1.1-3.4,1.6-3.4,1.5,0.2c-0.1,4.4-0.7,8.8-1.9,13.1c-1.9,6.8-4,13.2-6.2,19.2c-0.3,0.7,0.4,1.4,1.1,1.2c0.7-0.3,1.3-0.7,1.8-1.3
	c0.3-0.4,0.7-0.5,1.2-0.3c0.8,0.4,1.8,0.2,2.4-0.4c2.2-2.4,4.9-4.2,6.9-6.8c6-7.8,10.1-17,12.3-27.3c0.1-0.4,0.3-0.7,0.6-0.9
	c0.4-0.3,1,0,1.1,0.5c1.1,6,5.5,14.8,13.3,9.2c7.3-5.4,12.3-12.8,15-22.3c1.3-4.6,2.5-9.4,3.6-14.6c0.5-2.2,0.7-4.4,0.7-6.6
	c0-3-0.1-5.3-0.3-7c-0.3-3.1,0.5-5.8,0-8.9c-0.8-4.4-1.5-8.8-2.1-13.1c-1.2-8.7-3.6-17-7.2-25c-0.1-0.2,0-0.4,0.1-0.5l0.3-0.3
	c0.1-0.1,0.1-0.1,0.2,0c2.2,3.5,4.1,7.1,5.8,10.8c6.8,14.8,10.8,30.3,12.2,46.6c0.3,3.9,2,6.4,5.2,7.4c1.7,0.5,3.3,0.2,4.9-1.1
	c3.8-3,6.1-6.1,7-9.1c3.2-11.1,2.1-24.8-0.8-35.8c-0.9-3.6-0.5-3.8,1.3-0.5c1.4,2.5,2.6,4.9,3.8,7.5c1.9,4.2,5,7.3,7.4,11.1
	c0.4,0.7,1.5,0.7,1.9,0c6.2-10.9,0.6-22-3.2-32.5c-1-2.8-2.3-5.6-3.9-8.5c-3-5.3-5.7-9.8-8.2-13.5c-6.1-9.3-13.6-17.9-22.6-25.7
	c-1.1-1-1.6-2.2-2.6-3.1c-0.5-0.5-0.4-0.7,0.3-0.6c0.8,0.1,1.5,0.4,2.1,0.9c4.1,3.4,8.4,6.9,13.1,10.4c7.5,5.6,14.1,12.3,20.2,20
	c2.7,3.4,5.4,6.9,8.1,10.5c2.7,3.5,4.2,7.1,5.7,11c0.3,0.9,1.4,2.1,3.3,3.8c0.4,0.3,0.6,0.7,0.8,1.2l0.7,2.2c0.2,0.7,1.2,0.8,1.5,0
	c0.2-0.5,0.2-1.1,0-1.6c-0.2-0.5-0.2-0.9,0-1.4c1-2.8,1.2-5.5,0.8-7.9c-0.7-3.8-1.7-7.5-3-11c-1.5-4.3-3.6-8.8-6.2-13.5
	c-2.6-4.7-5.4-8.9-8.5-12.7c-9-11.1-19.1-20.1-30.2-27c-7.2-4.5-16.3-9.2-27.2-14.3c-3-1.4-6.2-2.2-9.2-3.5
	c-1.6-0.7-3.3-1.2-5.1-1.5c-1.7-0.4-3.3-0.8-4.9-1.2c-1.2-0.3-1.2-0.5,0.1-0.6c2.6-0.2,5,0.3,7.2,1.5c0.4,0.2,0.8,0.3,1.3,0.2
	c2.1-0.2,4-0.1,5.7,0.3c5.7,1.4,11.8,3.3,18.4,5.6c12.8,4.5,24,11.3,34.9,18.8c6,4.2,11.2,9.2,16.3,14.5c2.3,2.4,4.9,4.1,7.8,5.1
	c0.7,0.3,1.5-0.3,1.4-1.1c-0.3-3.4-1.3-6.5-3.1-9.2c-7.5-11.5-17.7-21.4-30.5-29.8c-11.7-7.6-24.9-14.3-37.5-17.1
	c-2-0.4-3.7-1.3-5.8-1.8c-13.2-3.1-25.6-4.7-37.3-5c-4.6-0.1-9-0.7-13.5-0.9c-11-0.4-21.9-1.9-32.9-4.6c-2.4-0.6-4.7-1.4-6.9-2.5
	c-3.1-1.5-6.2-2.4-9.2-4.1c-5.1-3-9.9-6.7-14.4-11.2c-1.6-1.6-2.7-3.2-3.3-4.6c3.6-0.9,7-2.6,10.2-5.3c3.2,4.4,7.2,8.4,12,11.9
	c0.6,0.4,1.4,0.4,2.3-0.1c0.2-0.1,0.3-0.2,0.4-0.4c0.5-1.3,0.5-2.2-0.3-2.9c-3.2-3.2-5.9-6-8.1-8.6c9.7-2.2,19.5-3.6,29.3-4.3
	c4.1-0.3,7.9-1.3,12-1.7c4.2-0.5,8.3-1.5,12.5-2.4c1.6-0.3,3.3-0.8,4.9-1.3c13.4-4.1,26.8-8.7,40.3-13.8
	c14.6-5.6,28.1-9.4,40.7-11.6c8.6-1.5,17.6-1.5,27,0c4.3,0.7,8,1.9,11,3.6c4,2.2,8.8,4.6,12,7.8c5.9,5.9,10.5,13.3,14.9,21.1
	c1.7,3,4.5,4.2,8.2,3.5c4.4-0.8,8.4-2,11.8-3.6c6.4-3,12.8-5.7,18.9-8.9c4.6-2.4,9.3-4.1,13.7-6.7c1.8-1,3.5-2,5.4-2.9
	c13.1-6.5,26.2-13,40.4-17.3c12.1-3.6,24.1-5.5,36-5.6c21.5-0.1,43.6,8.5,54,28.5c2.6,5,4.1,8.3,4.5,9.9c0.7,2.7,1.3,5.4,2,7.8
	c3.4,12.7,1.9,26.6-3.3,37.8c-5.5,11.9-14,21.3-25.4,28.1c-13,7.8-25.7,13.3-40.6,17.9c-9.4,2.9-18.7,5.8-28,8.7
	c-7.8,2.5-15.3,5.5-22.3,9.1c-0.6,0.3-0.7,0.7-0.2,1.1c5.1,5,9,11.1,11.8,18.4c5.4,14.1,2.6,30.4-6,42.4
	c-11.7,16.3-34.5,26.4-53.8,30.5c-0.8,0.2-1.3,1-1,1.9c2.2,6.4,3.5,12.9,3.8,19.7c0.3,6.6-0.8,13.1-3.1,19.7
	c-6.5,18.3-17.1,31.2-31.5,43.4c-0.5,0.4-0.5,1.3,0.1,1.7c4.8,3.2,8.2,7.1,10.4,11.8c4,8.6,4.9,17.1,2.8,25.5
	c-0.2,0.8,0.1,1.1,0.9,0.8l1.8-0.6c0.1,0,0.3-0.1,0.4-0.1c6.5-0.1,12.9,1,19,4.7c2.7,1.6,5.4,3.2,8,4.6c5.5,3,9.8,8.1,14.2,12.8
	c9.2,9.9,11.5,23.6,13.7,36.3c0.1,0.5,0.4,0.8,0.8,0.9c4.1,1.2,7.7,0.2,10.7-2.9c3.1-3.1,5.2-6,6.4-8.5c2.4-5,4.8-9.8,7-14.7
	c5.8-13,11.4-23.3,16.9-31.1c12.1-17.1,31.6-31.9,53.2-33.3c18.5-1.1,35,4.4,49.3,16.8c15.1,13,27.5,32,35.6,50.4
	c1.7,4,3.5,8.2,5.3,12.6c1.8,4.4,3.1,8.5,3.9,12.3c1.1,4.9,2.1,10.3,3,16c0.8,4.8,1.3,10.1,1.4,15.9c0.7,25.1-4.4,50.2-17.3,71.9
	c-1.9,3.2-4.6,6.9-8,11.1c-8.6,10.5-19.9,18.5-32.7,23.3c-9.5,3.6-19.2,6.3-29,8.2c-6,1.1-11.9,2.4-17.8,3.6c-5.9,1.3-12,3.4-16.7,7
	c-3.7,2.9-4.6,8.9-2.3,12.6c2.6,4.3,8.7,6.7,13.4,8.5c8.5,3.2,17.6,4.3,26.1,7.3c7.9,2.8,14.3,5.1,21.6,10.1
	c4.6,3.1,8.3,6.5,11,10.2c3.8,5.2,6.6,9.9,8.3,14.1c5.9,14.5,8.3,29.6,7.2,45.2c-0.6,8.1-2.2,16.4-4.9,25
	c-10.5,33.9-31.4,59.5-62.5,76.9c-4.9,2.7-9.9,4.5-15,6.7c-2.1,0.9-4.1,1.6-6.2,2.1c-7.6,1.8-15.4,3.1-23.4,3.7
	c-3.8,0.3-7.6,0.2-11.2-0.4c-5.4-0.8-10.7-0.8-16.1-2.4c-6.8-1.9-13.3-4.5-19.7-7.7c-6.4-3.2-12.8-7.9-19.2-14.2
	c-0.3-0.3-0.7-0.3-1-0.1c-7.5,5.8-15.6,11.4-24.8,14.6c-5.3,1.9-9.4,3.1-12.3,3.8c-3.8,0.9-8,1.5-12.8,1.9
	c-4.7,0.4-8.9-0.5-13.4-0.7c-4-0.2-7.9-1.7-11.8-2.8c-1.6-0.4-3.2-0.9-4.7-1.6c-23.4-9.5-35.9-28.3-46.3-50.4
	c-2.8-5.9-6-11.5-9.1-17.1c-1.6-2.9-4.3-6.3-7.9-10.1c-2.6-2.8-5.5-4.8-8.6-6.2c-4.7-2-8.8-3.3-12.4-4.1
	C1042,899.8,1041.5,900,1041.4,900.6z M1228,309.6c-0.4-1.6-2.1-2.6-3.7-2.1l-33.1,8.9c-1.6,0.4-2.6,2.1-2.1,3.7l0,0.1
	c0.4,1.6,2.1,2.6,3.7,2.1l33.1-8.9c1.6-0.4,2.6-2.1,2.1-3.7L1228,309.6z M1132,438.9c-1.1-2.7-2-5.7-2.7-8.9
	c-0.2-0.8-0.6-1.3-1.3-1.6c-0.8-0.4-1.8,0.1-2.1,1c-0.8,2.6-1.6,5.2-2.4,7.7c-1.5,4.9-6,7.1-9.6,10.1c-0.7,0.5-0.5,1.6,0.2,1.9
	c1.9,0.9,3.7,1.9,5.3,3.1c3.9,2.8,5,8.1,6.2,12.6c0.2,0.6,0.5,1,0.9,1.4c0.5,0.4,1.2,0.5,1.9,0.1c0.3-0.2,0.6-0.5,0.7-0.9
	c0.9-3,1.9-5.9,2.9-8.5c1.5-4.1,5.8-6.5,8.7-9.8c0.4-0.5,0.3-1.3-0.3-1.5C1137.4,444.1,1133.4,442.3,1132,438.9z M1084.6,545
	c0.4-8.3,3.2-15.7,11.2-19.2c1.2-0.5,1.3-2.2,0.1-2.8c-5.2-2.7-9.5-6.4-10.5-12.5c-0.4-2.3-0.8-4.7-1.3-7c-0.1-0.7-0.8-1.1-1.4-1
	c-1.2,0.2-2,1-2.1,2.4c-1,7.6-2.8,15.2-10.8,18.3c-1.1,0.4-2.1,1.2-2.8,2.3c-0.4,0.6-0.1,1.5,0.6,1.7c6.3,2.2,10.1,5.6,11.3,12.2
	c0.5,3.1,1.2,6.1,2,9c0.2,0.8,1.2,1.2,1.9,0.6C1083.9,547.9,1084.5,546.6,1084.6,545z M1051.3,585.7c-4-12.7-10.2-25-17.8-36
	c-1-1.5-2.5-2.6-4.3-3.2c-0.6-0.2-1.3,0.2-1.3,0.9c-0.1,1.4,0.3,2.6,1.2,3.8c4.5,5.7,7.4,12,10.7,18.2c3.2,6,5.7,14,9.1,20.6
	c0.6,1.1,2.2,1,2.6-0.2C1051.8,588.6,1051.8,587.2,1051.3,585.7z M1167.8,667.5c-2.7,1.8-5.8,2.2-8.3,4.4c-0.9,0.8-0.8,2.3,0.2,3
	c4.6,3,10.9,6.4,12.7,11.6c1.2,3.5,2.5,7.3,3.7,11.4c0.3,0.9,0.9,1.5,1.7,1.6c0.9,0.1,1.9-0.4,2.1-1.4c2.1-7.9,4.1-15.3,11.1-20.2
	c1.8-1.2,3.6-2.5,5.4-3.8c1.3-0.9,1-3-0.5-3.6c-5.5-1.9-10.1-5.8-12.6-10.8c-1.4-2.9-1.7-7.1-2.6-10.5c-0.3-1.3-1.7-1.9-2.8-1.2
	c-0.8,0.5-1.3,1.2-1.5,2.2C1175.3,657,1174,663.5,1167.8,667.5z M766.6,704.6c-3.2-2.4-3.8-7.7-4.5-11.4c-0.3-1.5-1.1-2.2-2.5-2.1
	c-0.7,0-1.3,0.6-1.5,1.3c-1.5,8.2-5.2,14.8-13.1,18c-1.1,0.5-1.4,2-0.4,2.7c2.3,1.9,5.2,3,7.2,5.1c3.6,3.9,3.7,9,5,14
	c0.2,0.7,1,0.9,1.5,0.5c1.2-0.8,1.9-2,2-3.6c0.9-8.2,5.2-13.9,12.8-17.1c0.7-0.3,0.9-1.2,0.3-1.8C771.3,708.4,769,706.5,766.6,704.6
	z M1095.4,834.4c1.7-6.5,4-14.6,9.2-19.2c3.7-3.3,7.8-6.6,12.2-10c2.5-1.9,4.2-3.9,5-6.1c2-5.2,2.3-11.2-2.1-15.3
	c-4.7-4.4-9.9-8.5-15.4-12.5c-1.8-1.3-3-2.8-3.7-4.4c-2-5.3-4.2-10.7-6.5-16.2c-2.4-5.7-8.1-9.2-13-3.3c-2.2,2.6-3.8,5.7-4.9,9.3
	c-2.1,6.7-4.5,12.8-9.5,17.9c-3.2,3.2-7.5,5.9-11.4,8.5c-2.8,1.8-4.2,4.1-5.2,7.2c-2.3,7.2,3.1,12.2,8.8,15.2
	c12.8,6.6,14.2,19.2,18.3,31c1.5,4.3,4.3,6.6,8.5,6.9C1091.2,844,1094.3,838.8,1095.4,834.4z M1217.1,807c0.2,0.9,0.5,1.8,1,2.5
	c0.5,0.7,1.1,0.8,1.8,0.3c0.6-0.4,1-1,1.2-1.8c1.2-6.3,2.6-14.4,6.7-19.5c2.2-2.8,6.2-4,9.4-5.7c1.6-0.8,2.6-2.4,1.3-4
	c-0.3-0.4-0.7-0.7-1.2-0.8c-9.9-2.4-14.1-11.4-15.5-20.9c-0.1-1.1-0.6-1.8-1.4-2.3c-1.2-0.6-2.6,0-2.9,1.3
	c-2.1,9.5-3.6,18.9-14.1,22.1c-2,0.6-3.9,1.9-4.2,4.1c-0.1,0.5,0.2,1.1,0.7,1.4c1.8,0.9,3.7,1.6,5.5,2.1c5.3,1.4,8.7,5.1,9.8,10.6
	C1215.8,799.8,1216.5,803.4,1217.1,807z M715.3,801.8c-0.4-2.3-0.8-4.5-0.9-6.5c-0.1-1.4-0.9-1.9-2.3-1.4c-0.8,0.3-1.4,0.9-1.6,1.7
	c-1.2,5-1.7,10.5-5.7,14.4c-1.8,1.8-4.7,2.8-7.1,4.1c-0.8,0.4-1.2,0.8-1.3,1.4c-0.2,1,0.2,1.8,1.1,2.3c1.9,1,3.7,1.9,5.4,2.8
	c6.4,3.1,5.3,12.1,6.6,17.7c0.3,1.2,1.8,1.7,2.7,0.9c0.9-0.8,1.4-1.8,1.7-3c1-4.8,1.9-9.9,4.9-13.9c2.5-3.3,6-4.4,8.9-7.3
	c0.7-0.7,0.3-1.8-0.6-2C721.1,811.8,716.5,807.9,715.3,801.8z M804.4,837.4c-2.4,1-5.7,2.1-6.4,5c-0.3,1.3,0.4,2.6,1.6,2.9
	c9.9,3.1,12.1,10.6,13.8,19.8c0.3,1.5,1.2,2.3,2.6,2.6c1.4,0.3,2.3-0.3,2.6-1.8c0.9-4.7,2.2-9.5,4.1-14.5c1.7-4.7,6.7-6.7,10.9-8.8
	c1.1-0.5,1.5-1.4,1.2-2.5c-0.2-0.7-0.7-1.2-1.3-1.4c-6.7-2.6-11.4-3.6-13.9-11.4c-0.8-2.6-1.4-5.5-1.7-8.5c-0.1-0.6-0.7-1-1.2-0.8
	c-0.8,0.2-1.3,0.7-1.6,1.5C812.5,826.4,811.8,834.4,804.4,837.4z M1249.6,926.3c1.1-7.1,2.4-19.3,9.7-23c2.5-1.3,5.1-2.9,7.8-4.9
	c1.9-1.4,1.5-4.8,0.7-6.5c-0.3-0.6-0.8-1-1.4-1.1c-7-1.4-12.6-6.3-13.8-13.4c-0.6-3.6-1-8-3.4-10.8c-0.9-1-2.4-1.1-3.4-0.3
	c-3.2,2.6-3.9,8.1-4.7,11.9c-0.9,4.7-4.5,9.8-9.5,11.1c-1.2,0.3-2.4,0.7-3.5,1c-0.5,0.2-0.8,0.5-1.1,0.9c-1.1,2-1.4,4-0.9,6.1
	c0.1,0.5,0.4,0.8,0.8,1.1c7.8,5,13.8,10.5,14.9,20c0.3,2.8,0.7,5.6,1.1,8.3C1243.2,930.9,1249,930.4,1249.6,926.3z" class="st3"></path>
<path d="M760.2,202.3c-0.9-1.4-1.5-3.1-1.8-5.1c-0.1-0.5,0.1-0.9,0.5-1.1c1.1-0.7,2.4-0.9,3.7-0.7
	c0.4,0.1,0.8,0.3,1,0.7c1.7,2.5,3.1,5.1,4.2,7.9c0.1,0.4,0.2,0.8,0.3,1.2c0,0.5,0.3,0.9,0.7,1.1c0.5,0.3,0.7,0.7,0.6,1.2
	c-0.1,0.6-0.1,1.2,0,1.8c0.3,1.6-0.6,3.1-2.1,3.7c-1.4,0.5-2.4,0.1-3.1-1.3c-0.9-1.8-1.9-3.5-2.9-5.2c-0.7-1.2-0.5-2-0.7-3.2
	C760.5,203,760.4,202.6,760.2,202.3z" class="st2"></path>
<path d="M576.2,196.8L576.2,196.8c0.7,0.5,0.7,1.4,0.2,2l-6.7,8c-0.5,0.6-1.4,0.7-2,0.2l-0.1,0c-0.6-0.5-0.7-1.4-0.2-2
	l6.7-8C574.7,196.4,575.6,196.3,576.2,196.8z" class="st4"></path>
<path d="M882.6,199.7c0.8,6.8,3.7,12.4,10.9,14.5c1.2,0.3,1.5,1.8,0.6,2.6c-2,1.7-4,3.4-6,5c-4.6,3.8-4.7,9.9-5.8,15.4
	c-0.2,1-0.8,1.6-1.7,1.8c-1,0.2-1.9-0.4-2.2-1.4c-1.8-6.8-1.7-14.4-10.6-15.9c-0.4-0.1-0.7-0.3-0.9-0.7c-0.4-0.9-0.4-1.8-0.1-2.7
	c0.2-0.4,0.5-0.8,0.9-1c7.1-2.8,9.5-10.7,10.7-17.6c0.1-0.4,0.3-0.7,0.6-0.9c1-0.7,2-0.8,2.9-0.2
	C882.3,198.9,882.5,199.3,882.6,199.7z" class="st4"></path>
<path d="M591.3,201.8L591.3,201.8c0.9,0.6,1.1,1.8,0.6,2.6l-10,14.9c-0.6,0.8-1.7,1.1-2.5,0.5l-0.1-0.1
	c-0.8-0.6-1.1-1.7-0.5-2.5l10-14.9C589.3,201.4,590.4,201.2,591.3,201.8z" class="st2"></path>
<path d="M726.3,218.7c-0.2-0.1-0.4-0.2-0.5-0.4c-0.6-1.2,0.4-2.3-0.7-3.6c-0.2-0.3-0.4-0.6-0.3-1
	c0.1-1.4-0.2-2.8-0.8-4.1c-0.3-0.8-0.1-1.3,0.7-1.4c1.1-0.2,2.1-0.6,3-1.2c0.8-0.5,1.7-0.2,2.1,0.6l2.7,5.3c0.1,0.1,0.2,0.2,0.3,0.3
	c0.5,0.4,0.7,0.9,0.6,1.5c-0.1,0.4-0.1,0.8,0.2,1.2c1.3,2.2,2,4.7,2.2,7.3c0,0.5-0.2,1.1-0.6,1.4c-1.4,1.1-2.9,1.7-4.7,1.7
	c-0.6,0-1.1-0.3-1.4-0.8c-1.2-2.1-1.9-4.2-2.2-6.4C726.7,219,726.5,218.8,726.3,218.7z" class="st4"></path>
<path d="M603.1,208.3l0.1,0.1c1.1,0.5,1.6,1.7,1.1,2.8l-7,15.8c-0.5,1.1-1.7,1.6-2.8,1.1l-0.1-0.1
	c-1.1-0.5-1.6-1.7-1.1-2.8l7-15.8C600.8,208.3,602,207.8,603.1,208.3z" class="st2"></path>
<path d="M616.1,212.8l1,0.4c1.1,0.4,1.7,1.6,1.3,2.7l-5.6,16.1c-0.4,1.1-1.6,1.7-2.7,1.3l-1-0.4
	c-1.1-0.4-1.7-1.6-1.3-2.7l5.6-16.1C613.8,212.9,615,212.4,616.1,212.8z" class="st2"></path>
<path d="M713.4,219.4c1.3,0.4,1.6,1.3,1,2.7c-0.2,0.4-0.1,0.7,0.3,0.9l0.4,0.3c0.4,0.3,0.6,0.8,0.5,1.2
	c-0.2,1.3-0.1,2.6,0.3,3.9c0.4,1.2,0,2-1.2,2.4l-3.8,1.4c-1.2,0.4-1.9,0.1-2.3-1.1l-1.5-4.5c-0.1-0.3-0.1-0.5,0-0.8
	c0.2-0.6,0.1-1.2-0.3-1.7c-0.2-0.3-0.3-0.7-0.4-1.1l-1.3-7.3c-0.1-0.6,0.1-1.3,0.6-1.7c1-0.9,2.3-1.3,3.9-1.1c0.5,0,0.8,0.3,0.9,0.7
	c0.1,0.2,0.2,0.4,0.4,0.5c0.2,0.1,0.4,0.3,0.5,0.3c2,0.9,2.6,2.4,1.8,4.6C713.2,219.3,713.3,219.4,713.4,219.4z" class="st2"></path>
<path d="M690.8,225.7c0.1-0.1,0.3-0.1,0.4,0c0.1,0,0.2,0.1,0.2,0.2c0.5,0.5,0.5,1.1,0.1,1.7c-0.2,0.3-0.2,0.6-0.1,0.9
	l0.2,0.4c0.2,0.4,0.1,0.8-0.1,1.2c-0.4,0.8-0.3,1.5,0.3,2.1c0.4,0.3,0.4,0.7,0.1,1.1l-1.9,2.1c-0.6,0.7-1.4,0.8-2.2,0.3
	c-1.6-0.9-2.2-2.1-1.7-3.5c0.2-0.5,0-0.7-0.5-0.8c-0.1,0-0.2-0.1-0.3-0.1c-0.3-0.2-0.3-0.5-0.2-0.8c0.4-0.9,0.3-1.9-0.1-3
	c-0.2-0.5-0.3-1-0.2-1.5c0.2-1.1,0-2.2-0.4-3.1c-0.2-0.5-0.2-0.9,0-1.3l0.2-0.4c0.2-0.3,0.2-0.6,0.1-0.9c-0.4-1.9,0.3-3.3,2.1-4.1
	c0.7-0.3,1.5,0.1,1.7,0.8c0.1,0.4,0.3,0.7,0.6,0.9c0.4,0.2,0.6,0.6,0.6,1c0,1.8,0.4,3.6,1.3,5.5c0.1,0.3,0.1,0.5-0.2,0.7
	c-0.1,0.1-0.2,0.2-0.3,0.2C690,225.8,690.1,226,690.8,225.7z" class="st2"></path>
<path d="M641.5,218.8c0.1-0.7,0.7-1.3,1.4-1.2l1.6,0.1c1.6,0.1,2.7,2.7,2.5,5.8l-0.7,8.7c-0.2,3.1-1.7,5.5-3.3,5.4
	l-1.6-0.1c-0.7-0.1-1.3-0.7-1.2-1.4L641.5,218.8z" class="st4"></path>
<path d="M659.7,221c0.4,0.1,0.5,0.4,0.5,0.7c0,5.2,0.1,10,0.1,14.4c0,1.2-0.6,1.8-1.8,1.8c-0.9,0-1.7,0-2.5,0.1
	c-1.7,0.1-2.3-0.7-1.8-2.3c0.2-0.6,0.2-1.2-0.1-1.7c-0.1-0.3-0.2-0.7-0.2-1l0.4-13.8c0-0.6,0.3-1,1-1.2c1-0.2,2-0.2,3-0.1
	c0.6,0.1,0.9,0.4,0.9,1.1v1.4C659.3,220.7,659.5,220.9,659.7,221z" class="st4"></path>
<path d="M294.3,234.8c3.4,3,7,6,10.7,8.8c3.1,2.4-0.5,6.8-3.1,7.8c-5,2.1-8,6.1-8.9,12.1c-0.7,4.1-0.5,7.3-4.9,9.5
	c-0.9,0.4-1.6,0.3-2.2-0.5c-2.2-3-3.3-5.8-3.3-8.3c-0.1-5.9-4.7-11.1-9.6-13.6c-0.4-0.2-0.8-0.6-1-1c-0.8-1.6-1.1-3.4-0.9-5.3
	c0-0.6,0.3-1.1,0.8-1.4c4.8-3.1,9.3-5.1,10.4-11.4c0.8-4.5,1.4-9.6,4.8-12.9c0.4-0.4,0.8-0.4,1.2-0.1c4.5,3.4,5.3,9.8,5.4,15
	C293.6,233.9,293.9,234.4,294.3,234.8z" class="st1"></path>
<path d="M374.9,267.9c-11.4,3.6-23.1,7-35,10.1c-3.3,0.9-9.8,3.3-19.5,7.3c-14.5,5.9-27,13.9-37.5,23.9
	c-2.3,2.2-5.5,5.7-9.5,10.6c-0.6,0.7-1.7,0.8-2.4,0.2l-0.3-0.2c-1.1-0.9-1.2-1.9-0.5-3c11.1-17.2,31-29.8,50.3-37.3
	c9.4-3.7,19-6.8,28.8-9.4c6.8-1.8,13.8-3.8,21.1-6.1c5.4-1.6,11-4.3,16.9-8.1c0.8-0.5,1.9-0.2,2.2,0.7
	C391.6,261.5,378.3,266.4,374.9,267.9z" class="st1"></path>
<path d="M852.8,340.6l8.5-7.1c1.2-1,2.6-1.6,4.2-1.9c2.8-0.4,5.3-0.8,7.7-1c8.7-0.7,15.4-3.9,22.1-10.1
	c4.9-4.5,7.3-11.4,7.2-17.6c-0.1-2.9-1.2-5.3-3.3-7.1c-1.5-1.3-3.3-2.4-5.5-3.3c-0.4-0.2-0.8-0.5-1.2-0.9l-2.7-3.2
	c4.4,1.5,7.9,3.6,10.6,6.3c4.2,4.3,6.7,9.1,7.7,14.4c0.4,2.3,0.9,4.6,1.5,6.9c0.3,1.1-0.1,1.7-0.1,2.8c0.1,6.4-0.3,10.7-1.2,12.9
	c-1.7,4.2-2.6,8.6-5,12.7c-3.4,5.8-8,10.6-13.6,14.4c-8.2,5.5-17.8,8.1-28.6,8c-3.9,0-8.8-0.6-14.6-1.5c-1.6-0.3-3.2-0.7-4.6-1.2
	c-0.6-0.2-1.2,0-1.5,0.5l-6.6,12.4c-0.3,0-0.5,0-0.7-0.1c-0.3-0.1-0.5-0.5-0.3-0.9c0.3-0.7,0.4-1.3,0.1-1.9
	c-2.7-7.2-7.3-12.6-13.5-16.1c-4-2.3-13.1-5-17.6-2.2c-0.5,0.3-1.1,1.2-2,2.6c-0.7,1.1-1.6,1.8-2.8,2.2c6.3-10.5,3.7-24.9-3.2-34.2
	c-2-2.7-4.9-4.4-8.6-5.1c-3-0.5-5.9,0.4-8.7,2.8c-4.2,3.6-6.2,8.1-6.2,13.3c0,2.8,0,5.6,0.1,8.5c0,7.4,5.9,18.5,14.6,19.3
	c-1.4,0.6-2.9,0.9-4.5,0.9c-1.5,0-3,1.3-4.2,3.7c-5.6,10.7-5.8,21.4-0.4,32.2c3,5.9,7.6,10.3,13.8,13.2c0.9,0.4,2,0.7,3.5,0.8
	c1.3,0.1,2.5,0.4,3.6,0.8c-7.3,5.7-14.8,10.3-22.5,13.7c-1.1,0.5-1.6,1.7-1.3,2.8l3,10.7c0.3,1-0.1,1.6-1,2
	c-0.3,0.1-0.6,0.3-0.8,0.5c-0.5,0.4-0.4,0.8,0.1,1.1l1,0.6c0.4,0.2,0.7,0.6,0.8,1c2,5.3,6.2,9.9,8.6,14.7c3.2,6.4,6.3,14.6,9.4,24.6
	c0.2,0.5,0.1,1-0.2,1.4c-0.5,0.7-1.1,1-1.9,1c-1,0-1.6-0.5-1.9-1.5c-0.8-3.3-1.9-6.7-3.5-10.2c-1.9-4.4-3.7-8.7-5.2-12.8
	c-1-2.6-2.2-5.1-3.8-7.5c-2.1-3.1-3.9-6.8-4.8-10.5c-0.2-0.7-0.9-1.1-1.6-0.9c-4.4,1.1-8.5,2.4-12.5,3.8c-4.2,1.5-8.8,2.4-13.2,3.4
	c-0.7,0.2-1.4-0.3-1.5-1l-1.9-10.3c-0.2-1.1-0.8-1.6-1.9-1.5c-4.3,0.3-8.3,1-12.2,1.8c-3.9,0.9-7.9,1.6-12,2.1
	c-8.9,1.1-16.4,1.6-22.6,1.4c-10.6-0.3-21.7-1.1-31.7-3.9c-4.7-1.3-9.1-2.7-13.2-4.3c-6.2-2.4-12-6-17.4-10.8
	c-1.4-1.2-3.3-3.7-5.9-7.4c-1.9-2.7-3.2-5.4-3.9-8.1c-1.9-6.5-2.8-13.2-2.1-20c1-9.6,0-18.8-3-27.5c-4.3-12.3-9.2-24.4-14.6-36.5
	c-1.5-3.2-0.8-3.8,2.1-1.8c3.8,2.7,8.1,4.4,12.8,4.7c10.1,0.7,12.5-7.9,12.4-16c-0.2-12.6,1-25.6,3.6-38.8c0.2-1.3,0.6-2.5,1.1-3.7
	c0.2-0.4,0.4-0.5,0.6,0c0.9,1.8,1.6,3.7,2.1,5.6c3.8,15,12.8,27.6,26.1,34.5c2.2,1.1,4.3,1.9,6.4,2.5c2.7,0.7,5.4,1.6,8.2,1.6
	c3.3,0,6.7-0.8,10.2-2.3c5-2.1,6.4-11.1,5.8-15.3c-0.2-1.4,0.2-1.6,1.3-0.8c5.5,4.4,11.4,7.7,17.7,9.7c1.7,0.5,3.3,0.9,4.9,0.9
	c2.2,0.1,4.2,1,6.4,0.9c6.2-0.4,12.9-4.3,12.9-11.1c0-3.1-0.3-5.8-0.9-8c-0.2-0.7,0-0.8,0.6-0.4c5.5,4.6,11.9,7.9,19.2,9.9
	c6.3,1.8,12.1,1,17.3-2.2c1.9-1.2,3.2-3.3,3.8-6.4c1.2-5.4-1.8-11.7-5-16.1c-0.1-0.2-0.2-0.4-0.1-0.6c0.1-0.4,0.3-0.6,0.6-0.6
	c0.2,0,0.4,0,0.6,0.2c12.5,10.2,27.1,16.6,43.7,19.1c5.1,0.8,10.1,0.5,14.8-0.7c0.9-0.2,1.3,0.1,1.2,1c-0.9,9.1-1.2,18.2-1,27.4
	c0,1.2,0.8,2.2,0.7,3.5c-0.1,4.9,0.4,8.8,1.3,11.8c1,3.2,1.9,6.4,2.6,9.5c0.9,3.8,2.9,6.5,6.1,8.1c1.7,0.8,3.3,0.8,4.9,0
	C851.3,352.6,852.7,345.7,852.8,340.6z M805,311c-1.9-1.8-3.4-3.5-5.8-4.6c-3.3-1.5-6.5-2.8-9.5-4.1c-4-1.6-10.3-1.9-14.6-1.2
	c-4.8,0.9-10.9,3.6-14.7,7.1c-9,8.4-13.3,19.1-12.6,32.1c0.1,1.4,0.8,2.1,2.1,2.1c1.2,0.1,2.2-1.1,3-3.4c0.1-0.3,0.1-0.6,0.1-0.9
	c0.2-8.7,3.2-16.6,9.2-23.6c3.1-3.7,6.9-6,11.4-7.1c5.5-1.3,10.5-1.3,14.8,0.2c6.4,2.1,11.3,5,14.6,8.7c2.9,3.2,5.9,6.8,9,10.6
	c0.7,0.9,1.6,1.6,2.6,2.1c0.4,0.2,0.8,0.2,1.2,0c1.4-0.7,2.2-2.2,1.4-3.7c-1.8-3-3.8-5.8-6.3-8.3c-1-1-0.9-2.6,0.2-3.4
	c2.6-2.1,5.3-4.3,8.2-6.6c0.9-0.7,1.3-1.5,1.2-2.4c-0.2-1.6-1.9-2.4-3.3-1.7c-4.2,2.2-7.7,4.9-10.5,7.9
	C806.1,311.3,805.4,311.4,805,311z M626.3,346.6l-1.5,10.4c-0.2,1.4,0.8,2.6,2.1,2.7l0.9,0.1c1.2,0.1,1.9-0.4,2-1.6
	c0.5-3.8,1.1-7.8,1.7-11.9c0.4-2.6,1.8-4.7,2.5-7.2c0.2-0.9,0.6-1.9,1.2-2.8c1.4-2.4,2.4-4.5,4.5-6.3c6.3-5.5,13.6-7.1,21.7-4.8
	c2,0.5,3.7,1.4,5.3,2.6c7.3,5.4,12.3,11.3,14.8,17.7c0.7,1.6,1.9,2.4,3.6,2.2c0.2,0,0.4,0,0.5-0.1c1.8-0.3,2.2-1.3,1.3-2.8
	c-1.5-2.7-2.1-5.5-4-8c-8.1-11-17.9-19.3-32.1-17.9c-4.7,0.5-8.3,1.7-10.9,3.8c-5.5,4.4-9.5,9.9-12.1,16.4c-0.2,0.5-0.6,0.8-1.2,0.7
	c-3.4-0.6-8-1.9-11.3-0.8c-0.5,0.2-0.9,0.6-0.9,1.2c-0.2,1.4,0.4,2.3,1.9,2.7c3.1,0.9,6.1,1.7,9,2.4
	C626.1,345.5,626.4,345.9,626.3,346.6z M654.7,377.7c-0.3,0.9-0.8,0.9-1.5,0.1c-0.6-0.7-1.6-1.1-2.6-0.9c-7.4,1.4-14,5.4-19.8,12
	c-6.9,8-10.4,20.5-4.6,30.1c2.6,4.2,5.3,7.4,8.2,9.8c7.7,6.2,18.3,11.3,28.4,7.9c9.1-3.1,17.3-8.6,22.1-16.9
	c1.7-2.9,1.9-6.1,2.8-9.2c0.7-2.4,0.9-4.7,0.7-7c-1.1-10-4.9-19-13.1-25c1.7-2.8,2.7-5.1,3-6.8c1.6-9.1,0.2-17.5-4.4-25.2
	c-3.7-6.3-10.4-11-17.5-6.1c-6.3,4.3-7.2,11.6-7.5,18.7C648.8,365.8,650.7,372,654.7,377.7z M717.6,361.6c0.3-2.2,0.2-3.9-0.6-5.3
	c-4.2-7.7-14.4-6.5-21.1-2.4c-3.3,2-6.1,4.4-6.1,8.6c-0.1,2.8-0.4,7.5,2.1,9.3c4.9,3.7,14.5,1.3,19.6-1.5
	C714.9,368.5,716.9,365.6,717.6,361.6z M714.9,375.6c-8.7-0.9-10.2,5.4-13.6,11.3c-0.2,0.4-0.3,0.8-0.3,1.3
	c0.2,3.4,0.5,6.8,0.8,10.3c0.3,3.3,2,6.1,2.9,9.2c1.3,4.7,5.7,9.9,9.1,12.6c4.4,3.4,12.9,5,17.3,0.4c5.4-5.6,4.4-14,3.1-21.1
	c-0.5-2.8-1.9-5.3-2.6-8c-0.6-2.1-1.5-4-2.7-5.8C725.2,380.3,722.3,376.4,714.9,375.6z" class="st4"></path>
<path d="M473.2,274.6c1-0.1,1.7,0.3,2.1,1.1c1.9,4.5,2.6,9.8,5.5,13.5c2.3,2.9,5.5,5,9.6,6.4c1.3,0.4,1.5,2.2,0.3,2.9
	c-4.8,2.7-10.1,4.8-11.9,10.3c-0.9,2.5-1.4,5.3-2.5,7.6c-0.9,2-3.8,1.9-4.6-0.2c-1.9-4.8-3.1-9.1-7.5-12.5c-2.2-1.8-4.6-3.4-7.1-4.9
	c-0.8-0.5-0.9-1.6-0.1-2.1c1.9-1.4,4.1-1.6,5.7-3.3c3.7-3.9,5.8-6.6,6.3-8c1.1-3.3,2.1-6.6,3-9.8
	C472.1,275.1,472.6,274.7,473.2,274.6z" class="st3"></path>
<path d="M210.6,328.5c-1.2,4.7-2.6,10.8-5.9,14.5c-3.8,4.4-9,2.2-11-2.5c-4.1-9.6-8.5-17.7-17.6-23.6
	c-6.6-4.3-6-9.3,0.1-13.5c7.2-5,11.8-10.3,14.6-18.4c0.8-2.2,2.1-4,4.1-5.3c6.2-4,10,3.1,12.2,7.7c2.4,4.7,5.8,10.1,9.8,13.2
	c3,2.4,10.6,6.9,4.7,11.4C216.5,315.7,212.2,322.1,210.6,328.5z M204.3,291.4c-1.3-3-2.8-5.5-4.7-7.6c-0.8-0.8-2.1-0.7-2.7,0.3
	c-2.7,4.8-4.6,9.9-8,14.4c-3.4,4.4-8.6,7.5-12.7,11.2c-0.6,0.5-0.5,1.5,0.1,1.9c2.8,1.9,5.5,3.9,7.8,5.8c6.6,5.4,9.7,12.7,13.4,20.2
	c0.6,1.2,1.4,2.2,2.5,3c0.3,0.3,0.8,0.2,1-0.2c1.5-2.5,3-5.2,3.6-8.1c0.9-3.8,1.9-7.2,3.1-10.2c2.2-5.5,6.3-9.5,10.3-13.9
	c0.4-0.4,0.3-1.1-0.2-1.4C211.7,303.3,207.1,298.1,204.3,291.4z" class="st1"></path>
<path d="M204.3,291.4c2.8,6.7,7.4,11.9,13.6,15.4c0.5,0.3,0.6,1,0.2,1.4c-4,4.3-8.1,8.4-10.3,13.9
	c-1.2,3-2.2,6.4-3.1,10.2c-0.7,2.8-2.1,5.6-3.6,8.1c-0.2,0.4-0.7,0.4-1,0.2c-1.1-0.8-1.9-1.8-2.5-3c-3.8-7.5-6.8-14.8-13.4-20.2
	c-2.4-1.9-5-3.9-7.8-5.8c-0.7-0.4-0.7-1.4-0.1-1.9c4.2-3.6,9.3-6.8,12.7-11.2c3.5-4.5,5.3-9.6,8-14.4c0.5-1,1.9-1.1,2.7-0.3
	C201.5,285.8,203.1,288.4,204.3,291.4z" class="st4"></path>
<path d="M889.9,288.5l2.7,3.2c0.3,0.4,0.7,0.7,1.2,0.9c2.1,0.9,4,2,5.5,3.3c2.2,1.8,3.3,4.2,3.3,7.1
	c0.1,6.2-2.3,13.2-7.2,17.6c-6.7,6.1-13.5,9.3-22.1,10.1c-2.4,0.2-5,0.5-7.7,1c-1.5,0.2-3,0.9-4.2,1.9l-8.5,7.1
	c0.7-11.6,1.3-23.1,1.7-34.6c0.2-3.8,0.9-7.3,1.6-11c0.1-0.6,0.5-1.1,1-1.5C867.7,286.4,878.7,284.7,889.9,288.5z" class="st5"></path>
<path d="M806.4,310.9c2.8-3.1,6.3-5.7,10.5-7.9c1.4-0.7,3.1,0.1,3.3,1.7c0.1,0.9-0.3,1.7-1.2,2.4
	c-2.9,2.3-5.6,4.5-8.2,6.6c-1.1,0.9-1.2,2.5-0.2,3.4c2.5,2.5,4.6,5.3,6.3,8.3c0.9,1.5,0.1,3.1-1.4,3.7c-0.4,0.2-0.8,0.2-1.2,0
	c-1-0.5-1.8-1.2-2.6-2.1c-3.1-3.9-6-7.4-9-10.6c-3.4-3.7-8.2-6.6-14.6-8.7c-4.4-1.4-9.3-1.5-14.8-0.2c-4.5,1.1-8.3,3.5-11.4,7.1
	c-5.9,7-9,14.9-9.2,23.6c0,0.3-0.1,0.6-0.1,0.9c-0.8,2.3-1.8,3.4-3,3.4c-1.4-0.1-2.1-0.8-2.1-2.1c-0.6-13,3.6-23.7,12.6-32.1
	c3.8-3.5,9.9-6.3,14.7-7.1c4.3-0.8,10.7-0.5,14.6,1.2c3.1,1.2,6.2,2.6,9.5,4.1c2.5,1.1,3.9,2.8,5.8,4.6
	C805.4,311.4,806.1,311.3,806.4,310.9z" class="st1"></path>
<path d="M1191.2,316.4l33.1-8.9c1.6-0.4,3.3,0.5,3.7,2.1l0,0.1c0.4,1.6-0.5,3.3-2.1,3.7l-33.1,8.9
	c-1.6,0.4-3.3-0.5-3.7-2.1l0-0.1C1188.6,318.5,1189.5,316.8,1191.2,316.4z" class="st4"></path>
<path d="M625.4,345.3c-2.9-0.7-5.9-1.4-9-2.4c-1.5-0.4-2.1-1.3-1.9-2.7c0.1-0.5,0.4-1,0.9-1.2c3.3-1.1,7.9,0.2,11.3,0.8
	c0.6,0.1,1-0.1,1.2-0.7c2.6-6.5,6.6-12,12.1-16.4c2.6-2.1,6.2-3.3,10.9-3.8c14.2-1.4,24,6.9,32.1,17.9c1.8,2.5,2.5,5.3,4,8
	c0.9,1.6,0.4,2.5-1.3,2.8c-0.2,0-0.4,0.1-0.5,0.1c-1.8,0.1-3-0.6-3.6-2.2c-2.5-6.4-7.5-12.3-14.8-17.7c-1.6-1.2-3.4-2-5.3-2.6
	c-8.2-2.3-15.4-0.7-21.7,4.8c-2.1,1.8-3.1,3.8-4.5,6.3c-0.5,0.9-0.9,1.9-1.2,2.8c-0.6,2.5-2.1,4.6-2.5,7.2
	c-0.6,4.1-1.2,8.1-1.7,11.9c-0.2,1.2-0.8,1.7-2,1.6l-0.9-0.1c-1.4-0.1-2.3-1.4-2.1-2.7l1.5-10.4
	C626.4,345.9,626.1,345.5,625.4,345.3z" class="st1"></path>
<path d="M797,360.6c-3.3,3.6-7.3,5.2-12,4.8c-8.7-0.9-14.6-11.9-14.6-19.3c0-2.9,0-5.8-0.1-8.5c0-5.2,2-9.7,6.2-13.3
	c2.8-2.5,5.7-3.4,8.7-2.8c3.7,0.7,6.6,2.4,8.6,5.1C800.7,335.7,803.3,350.1,797,360.6z" class="st1"></path>
<path d="M961.6,332c0.2-1.4,0.6-2.8,1.2-4c0.8-1.7,3.3-1.5,3.8,0.3c0.9,3.4,2,7,3.3,10.7c2.2,6.4,6.4,9.2,11.8,12.1
	c0.5,0.2,0.8,0.6,1,1.1c0.7,1.8,0.3,3.4-1.2,4.8c-3.1,2.9-6.7,5.1-9.3,8.6c-3.2,4.2-4.7,10.6-5.6,15.9c-0.2,1.1-0.8,2-1.9,2.6
	c-1.3,0.7-2.8,0-3.1-1.4c-1.4-7-3.9-12.6-7.4-16.9c-1.4-1.8-4.3-3.7-8.6-5.8c-0.4-0.2-0.7-0.5-0.8-0.9c-0.8-2,0.6-4.5,2.5-5.5
	C955.5,349.5,960.2,342.3,961.6,332z" class="st4"></path>
<ellipse ry="2.1" rx="0.7" cy="328.3" cx="1128.8" class="st3" transform="matrix(0.4431 -0.8965 0.8965 0.4431 334.3545 1194.7876)"></ellipse>
<path d="M675.3,378.5c-5.4,6.5-15.8,6.3-20.6-0.9c-4.1-5.6-6-11.8-5.8-18.5c0.2-7.1,1.1-14.4,7.5-18.7
	c7.1-4.9,13.8-0.2,17.5,6.1c4.5,7.7,6,16.1,4.4,25.2C678,373.4,677,375.7,675.3,378.5z" class="st1"></path>
<path d="M616.1,415.4c-5.9,0.7-11.3,0.2-16.4-1.6c-13.6-4.8-22.5-13.8-26.7-27.1c-1.4-4.5-1.3-8.9-1.6-13.5
	c-0.1-1.6,0-3.4,0.3-5.1c2.5-13.1,9.2-23,22.9-26.5c2.1-0.6,4.3,0.1,6.5,0.1c0.9,0,1.7,0.6,2,1.4c2.7,7.4,5.2,14.3,7.5,20.5
	c2.1,5.6,3.4,11.2,4,16.9c0.2,1.8,0.1,5.9-0.3,12.3c-0.4,7.3,0.5,14.4,2.7,21.2C617.2,414.9,616.9,415.3,616.1,415.4z" class="st6"></path>
<path d="M717.6,361.6c-0.7,4-2.7,6.9-6.1,8.8c-5.1,2.8-14.7,5.2-19.6,1.5c-2.5-1.9-2.1-6.5-2.1-9.3
	c0.1-4.2,2.8-6.6,6.1-8.6c6.6-4.1,16.9-5.4,21.1,2.4C717.7,357.7,717.9,359.4,717.6,361.6z" class="st5"></path>
<path d="M833.9,377c-4.1,6.1-8.1,12.6-12.9,17.9c-6.1,6.7-12.7,13-19.6,18.9c-1.6,1.3-3.1,2.4-4.5,3.2
	c-1.1-0.4-2.3-0.7-3.6-0.8c-1.5-0.2-2.6-0.4-3.5-0.8c-6.3-2.9-10.9-7.3-13.8-13.2c-5.4-10.8-5.3-21.5,0.4-32.2
	c1.3-2.4,2.7-3.7,4.2-3.7c1.6,0,3.1-0.3,4.5-0.9c4.7,0.4,8.8-1.2,12-4.8c1.2-0.3,2.1-1.1,2.8-2.2c0.9-1.4,1.6-2.3,2-2.6
	c4.5-2.8,13.6-0.1,17.6,2.2c6.3,3.5,10.8,8.9,13.5,16.1c0.2,0.6,0.2,1.3-0.1,1.9c-0.2,0.3,0,0.7,0.3,0.9
	C833.4,377,833.6,377.1,833.9,377z M803.3,375.5c-0.1-0.7-0.7-1.3-1.4-1.2l-0.1,0c-0.7,0.1-1.3,0.7-1.2,1.4l1.6,18.7
	c0.1,0.7,0.7,1.3,1.4,1.2l0.1,0c0.7-0.1,1.3-0.7,1.2-1.4L803.3,375.5z M813.6,391.5c0.8-0.1,1-4,0.4-8.7c-0.6-4.7-1.7-8.5-2.6-8.4
	c-0.8,0.1-1,4-0.4,8.7C811.6,387.9,812.7,391.6,813.6,391.5z M792.4,378.3c-0.1-0.8-0.8-1.4-1.7-1.3l-0.1,0
	c-0.8,0.1-1.4,0.8-1.3,1.7l2.4,20.8c0.1,0.8,0.8,1.4,1.7,1.3l0.1,0c0.8-0.1,1.4-0.8,1.3-1.7L792.4,378.3z" class="st5"></path>
<path d="M440.7,402.4c3.6-3.1,7.8-5.1,11.2-8.5c4.5-4.6,7.4-10.1,8.9-16.5c0.7-2.8,1.1-4.7,1.4-5.6
	c1.5-4.7,2.3-11,8.8-10.8c1.4,0.1,2.5,0.9,3.1,2.6c2.3,6.5,4.6,12.7,6.8,18.8c3.2,8.8,10,14.1,18.1,18.1c0.4,0.2,0.7,0.7,0.7,1.2
	c0,2.8-1,5.1-3.1,6.9c-6.8,5.5-14.1,13.8-16.2,21.4c-1.2,4.4-2.4,8.8-3.6,13.3c-0.8,2.9-3.4,6.9-6.9,6.4c-3.3-0.5-5.2-2-6.4-5.1
	c-0.8-1.9-1.5-3.9-2.1-5.8c-3-9.3-6.8-17.7-15.3-22.5c-3-1.7-5.9-3.5-8.8-5.4c-0.4-0.3-0.7-0.7-0.9-1.2c-0.3-1-0.3-2.2,0.1-3.5
	C437.1,403.9,439.2,403.7,440.7,402.4z" class="st4"></path>
<path d="M1261.8,472.1c-6.3,2.6-13,4-20,4.1c-2,0-3.9-0.6-5.6-2c-3.4-2.7,0.1-8.1,2.1-10.9c6.5-9.3,13.6-16.4,21.3-24
	c23.8-23.2,49.9-42.6,78.2-58.2c9-4.9,18-8.9,27-12c3-1,6.3-1.4,10-1.4c4.1,0.1,6.2,2.2,6.5,6.2c0.5,6.9-4.3,14-8.7,19.4
	c-5,6.3-10.6,12.2-16.6,17.4c-14.4,12.7-31.4,25-50.9,37.1C1288.3,458.4,1276.1,466.1,1261.8,472.1z M1374,376.8
	c-0.3-0.6-1.2-0.6-2.1-0.2c-0.9,0.4-1.4,1.2-1.1,1.8c0.3,0.6,1.2,0.6,2.1,0.2C1373.8,378.1,1374.3,377.3,1374,376.8z" class="st0"></path>
<path d="M132.6,402.6c10.2,21.8,27.9,40.3,47.5,55.4c1.3,1,2.2,2.2,2.7,3.6c0.3,0.9-0.4,1.8-1.3,1.8
	c-2.2-0.2-4.5-1.1-6.3-2.5c-27-20.3-47.7-46.7-55.6-79.1c-0.6-2.3-0.6-4.8-0.2-7.4c0.1-0.5,0.4-0.9,0.9-1.1c1.6-0.5,2.6,0.1,3,1.7
	C125.9,385.7,129,394.9,132.6,402.6z" class="st0"></path>
<path d="M801.7,374.3L801.7,374.3c0.8-0.1,1.5,0.5,1.5,1.2l1.6,18.7c0.1,0.7-0.5,1.4-1.2,1.4l-0.1,0
	c-0.7,0.1-1.4-0.5-1.4-1.2l-1.6-18.7C800.5,375,801,374.3,801.7,374.3z" class="st6"></path>
<ellipse ry="8.6" rx="1.5" cy="382.9" cx="812.5" class="st6" transform="matrix(0.9921 -0.1253 0.1253 0.9921 -41.5872 104.8513)"></ellipse>
<path d="M714.9,375.6c7.4,0.8,10.3,4.6,14,10.2c1.2,1.8,2.1,3.7,2.7,5.8c0.8,2.7,2.1,5.2,2.6,8
	c1.4,7.2,2.3,15.5-3.1,21.1c-4.4,4.6-13,3-17.3-0.4c-3.4-2.6-7.8-7.9-9.1-12.6c-0.9-3.1-2.6-5.9-2.9-9.2c-0.3-3.5-0.6-6.9-0.8-10.3
	c0-0.5,0.1-0.9,0.3-1.3C704.7,381.1,706.2,374.7,714.9,375.6z M711.3,397.4c6.1,1.2,11-0.6,14-6.2c1.9-3.5-4.2-8.6-6.8-10.3
	c-3.3-2.1-9.6-1-11.2,2.9C705.2,388.9,703.9,395.9,711.3,397.4z" class="st1"></path>
<ellipse ry="1.1" rx="1.8" cy="377.6" cx="1372.4" class="st4" transform="matrix(0.898 -0.4399 0.4399 0.898 -26.1612 642.2863)"></ellipse>
<path d="M790.6,377l0.1,0c0.8-0.1,1.6,0.5,1.7,1.3l2.4,20.8c0.1,0.8-0.5,1.6-1.3,1.7l-0.1,0c-0.8,0.1-1.6-0.5-1.7-1.3
	l-2.4-20.8C789.2,377.8,789.8,377.1,790.6,377z" class="st6"></path>
<path d="M654.7,377.7c4.8,7.2,15.2,7.4,20.6,0.9c8.3,5.9,12,14.9,13.1,25c0.3,2.3,0,4.7-0.7,7c-0.9,3.1-1.1,6.3-2.8,9.2
	c-4.8,8.3-13,13.9-22.1,16.9c-10.1,3.4-20.7-1.7-28.4-7.9c-2.9-2.3-5.6-5.6-8.2-9.8c-5.9-9.6-2.4-22.1,4.6-30.1
	c5.8-6.7,12.4-10.7,19.8-12c0.9-0.2,1.9,0.2,2.6,0.9C653.9,378.5,654.4,378.5,654.7,377.7z M672.2,397.9c-0.1-0.8-0.9-1.4-1.7-1.3
	l-0.1,0c-0.8,0.1-1.4,0.9-1.3,1.7l2,14c0.1,0.8,0.9,1.4,1.7,1.3l0.1,0c0.8-0.1,1.4-0.9,1.3-1.7L672.2,397.9z M650.6,421.5l2.1-0.2
	c0.5-0.1,0.8-0.5,0.7-0.9l0-0.2c-1.5-13-3.4-23.4-4.1-23.4l-1,0.1c-0.8,0.1-0.2,10.7,1.4,23.7l0,0.2
	C649.8,421.3,650.2,421.6,650.6,421.5z M662.6,418.7c1-0.1,1.3-4.9,0.6-10.8c-0.7-5.8-2.1-10.5-3.1-10.3c-1,0.1-1.3,4.9-0.6,10.8
	C660.2,414.2,661.5,418.8,662.6,418.7z" class="st5"></path>
<path d="M725.4,391.2c-3,5.6-8,7.4-14,6.2c-7.4-1.5-6.1-8.4-4-13.6c1.6-4,7.9-5.1,11.2-2.9
	C721.2,382.6,727.3,387.6,725.4,391.2z" class="st4"></path>
<path d="M670.4,396.6l0.1,0c0.8-0.1,1.6,0.5,1.7,1.3l2,14c0.1,0.8-0.5,1.6-1.3,1.7l-0.1,0c-0.8,0.1-1.6-0.5-1.7-1.3
	l-2-14C668.9,397.5,669.5,396.7,670.4,396.6z" class="st6"></path>
<path d="M364.8,398.1c1.1,6.6,3.7,13.4,10.4,15.8c0.9,0.3,1.2,1.6,0.4,2.2c-4.4,3.7-9.2,6-10.3,12.4
	c-0.5,2.9-1.1,5.1-1.7,6.5c-1.6,3.7-2.9,3.6-4-0.3c-1.1-4.3-2.3-12.8-7.2-14.7c-1.2-0.4-2.4-0.9-3.5-1.4c-1.6-0.7-1.7-2.9-0.1-3.7
	c6.4-3.3,10.2-8.3,11.3-15.1c0.2-1,1-2.5,1.9-3.1C363,396.1,364.6,396.7,364.8,398.1z" class="st4"></path>
<path d="M650.6,421.5c-0.4,0.1-0.9-0.3-0.9-0.7l0-0.2c-1.5-13-2.1-23.6-1.4-23.7l1-0.1c0.8-0.1,2.6,10.4,4.1,23.4l0,0.2
	c0.1,0.5-0.3,0.9-0.7,0.9L650.6,421.5z" class="st6"></path>
<ellipse ry="10.6" rx="1.9" cy="408.1" cx="661.3" class="st6" transform="matrix(0.993 -0.1184 0.1184 0.993 -43.6723 81.1721)"></ellipse>
<path d="M934.1,462.4c-1.9-1.2-3.9-2-6.2-2.5c-3.3-0.7-5.5-1.2-6.4-1.4c-3.9-1-7.8-1.2-11.8-0.6c1.3-10,3-17.7,5.1-22.9
	c0.5-1.3,1.2-2.5,2-3.7c0.7-1.1,0.5-2-0.7-2.6l-1-0.5c-1-0.5-2.3,0-2.7,1l-5.1,13.4c0.1-0.7,0-1.3-0.3-1.6c-0.3-0.3-0.7-0.4-1.1-0.3
	c-1.7,0.4-3.1,0.2-4.4-0.5c-2.2-1.2-4-2-5.2-2.4l3.1-10.7c0.3-1.2-0.5-2.3-1.7-2.4c-2.2-0.1-2.3,1.1-3,2.6c-1.5,3-2.7,6.5-3.5,10.5
	c-3.7-2.4-6.9-5.6-9.6-9.5c0.4-1.9,1.1-4.2,2.1-6.9c0.4-1,0.1-2-0.8-2.9c-0.2-0.2-0.5-0.3-0.8-0.3c-0.9,0-1.5,0.4-1.9,1.2l-3.9,8.2
	l-7.6-3.2c-1-0.4-1.4-1.2-1.3-2.2c0.3-2.1-0.1-3.2-1.2-3.3c1.4-5.5,2.8-9,4.2-10.7c6.1-6.9,16-5.2,23.8-3
	c13.1,3.8,26.7,10.2,34,21.7c1.6,2.6,3.3,6.7,5.1,12.2c2.2,6.9,4.3,13.8,6.3,20.8c0.2,0.6-0.1,0.9-0.6,1.1L934.1,462.4z" class="st5"></path>
<path d="M856.8,450.4l8,14.9c-1.9,0.5-2.5,1.3-1.7,2.3c1.5,2.1,7.3,5.6,10.5,3.8c2.9,1.7,5.4,3.9,7.5,6.7
	c-4,1.9-8.1,2.2-11.8,4.1c-2.8,1.4-5.7,2.7-8.9,3.7c-1.7,0.5-3.1,1.5-4.3,2.8c-1,1.1-1.5,0.9-1.5-0.6c0-0.6-0.2-1.2-0.5-1.8
	c-4.9-8.6-8.7-17.7-11.4-27.3c-3.8-13.4-4.4-26.7-1.9-39.8c0.3-1.5,1.9-2.2,3.2-1.5c0.9,0.5,1.5,1.3,1.9,2.3
	c0.8,2.1,1.7,4.1,2.7,6.1c1,2,1.7,4.3,2.1,7c0.4,2.2,1,4.5,1.8,6.8C854,443.5,855.3,447,856.8,450.4z" class="st4"></path>
<path d="M881.6,428c-1,2.9-1.8,5.7-2.7,8.5c-1.7,5.6,0.1,10.8-3.4,15.9c-0.5-0.5-1.2-0.9-2.2-1.1
	c-0.9-2.2-1.2-4.5-0.8-6.8c1-5.8,2.2-11.6,3.8-17.3l3.9-8.2c0.4-0.8,1-1.2,1.9-1.2c0.3,0,0.6,0.1,0.8,0.3c0.9,0.9,1.2,1.9,0.8,2.9
	C882.7,423.9,882,426.2,881.6,428z" class="st1"></path>
<path d="M866.4,418.4c1,0.1,1.4,1.2,1.2,3.3c-0.1,1.1,0.3,1.8,1.3,2.2l7.6,3.2c-1.5,5.7-2.8,11.4-3.8,17.3
	c-0.4,2.3-0.1,4.6,0.8,6.8c-4.6-0.5-8.3-3.8-11.9-6.6c-0.3-3.2,0-6.9,0.8-11.1C863.4,427.9,864.8,422.8,866.4,418.4z" class="st4"></path>
<path d="M896.4,437.7l-3.8,19.2l-0.3,1.8c-0.1,0.5-0.4,0.8-0.9,0.9c-0.7,0.2-1.5-0.2-2-0.8c-0.7-0.9-1.2-2-1.4-3.1
	c0.3-5,0.8-8.5,1.4-10.4c0.7-2.1,1-3.8,1-5.1c0-0.5,0.3-1.4,0.8-2.7c0.8-3.9,2-7.4,3.5-10.5c0.8-1.5,0.8-2.7,3-2.6
	c1.2,0.1,2,1.2,1.7,2.4L896.4,437.7z" class="st1"></path>
<path d="M909.6,457.8c-0.6,0.7-1.6,1.1-2.8,1.2c-0.4,0-0.8-0.1-1-0.5c-0.5-0.8-0.6-1.6-0.4-2.4l2-13.6l5.1-13.4
	c0.4-1.1,1.6-1.6,2.7-1l1,0.5c1.2,0.6,1.4,1.5,0.7,2.6c-0.8,1.2-1.5,2.5-2,3.7C912.6,440.1,910.9,447.8,909.6,457.8z" class="st1"></path>
<path d="M881.6,428c2.7,3.9,5.9,7.1,9.6,9.5c-0.6,1.4-0.8,2.3-0.8,2.7c0.1,1.3-0.3,3-1,5.1c-0.6,1.9-1.1,5.4-1.4,10.4
	c-4.6-0.1-8.8-1.3-12.4-3.4c3.5-5.1,1.7-10.3,3.4-15.9C879.8,433.8,880.7,430.9,881.6,428z" class="st4"></path>
<path d="M1132,438.9c1.4,3.4,5.3,5.2,8.5,6.7c0.6,0.3,0.8,1,0.3,1.5c-2.9,3.3-7.2,5.7-8.7,9.8c-1,2.6-1.9,5.5-2.9,8.5
	c-0.1,0.4-0.4,0.7-0.7,0.9c-0.7,0.3-1.3,0.3-1.9-0.1c-0.5-0.4-0.8-0.8-0.9-1.4c-1.2-4.4-2.4-9.8-6.2-12.6c-1.6-1.2-3.4-2.2-5.3-3.1
	c-0.8-0.4-0.9-1.4-0.2-1.9c3.7-3,8.1-5.2,9.6-10.1c0.8-2.5,1.6-5.1,2.4-7.7c0.3-0.9,1.2-1.3,2.1-1c0.7,0.3,1.1,0.8,1.3,1.6
	C1130,433.2,1130.9,436.2,1132,438.9z" class="st0"></path>
<path d="M796.3,434.2c3.6-0.3,6.2-0.2,7.6,0.4c4.1,1.6,7.6,1.5,11.4,4.4c6.2,4.7,10.9,11.2,14,19.5
	c0.5,1.5,0.1,1.8-1.2,1.1c-0.7-0.4-1.3-1-1.7-1.7c-4.3-7.3-9.2-13.3-14.7-18c-2-1.7-4.3-2.6-7-2.8c-8-0.6-15.2,0.5-21.7,3.3
	c-0.7,0.3-1.4-0.4-1.1-1C783.4,435.2,791.4,434.7,796.3,434.2z" class="st2"></path>
<path d="M896.4,437.7c1.2,0.4,3,1.2,5.2,2.4c1.3,0.7,2.8,0.9,4.4,0.5c0.4-0.1,0.8,0,1.1,0.3c0.3,0.4,0.4,0.9,0.3,1.6
	l-2,13.6c-3.7,1.8-7.9,2-12.8,0.7L896.4,437.7z" class="st4"></path>
<path d="M795.7,444.8c7.4,1,16.4,10.9,20.4,16.7c2.1,3.1,4.1,6,6,8.8c0.2,0.3,0.3,0.8,0.2,1.2c-0.2,0.6-0.5,1-1,1.2
	c-1,0.4-1.8,0.2-2.4-0.8c-3.9-6.1-8.2-11.9-13.1-17.3c-3-3.3-6.8-5.8-10.6-8.2C793,445,793.2,444.5,795.7,444.8z" class="st4"></path>
<path d="M861.5,444.7c3.6,2.8,7.3,6.1,11.9,6.6c1,0.3,1.7,0.6,2.2,1.1c3.7,2.1,7.8,3.2,12.4,3.4
	c0.2,1.1,0.7,2.1,1.4,3.1c0.4,0.6,1.3,0.9,2,0.8c0.5-0.1,0.8-0.5,0.9-0.9l0.3-1.8c4.8,1.3,9.1,1,12.8-0.7c-0.3,0.8-0.1,1.5,0.4,2.4
	c0.2,0.4,0.6,0.5,1,0.5c1.3-0.1,2.2-0.5,2.8-1.2c4-0.6,7.9-0.4,11.8,0.6c1,0.2,3.1,0.7,6.4,1.4c2.3,0.5,4.4,1.3,6.2,2.5
	c-2.9,1.1-5.8,1.9-8.9,2.5c-3,0.6-5.7,1.3-8,2.2c-3.6,1.3-7.1,1.4-10.5,2.9c-4.3,1.8-9,2.6-13.5,4.2c-4.1,1.4-8.1,2.8-12,4
	c-2.1-2.8-4.6-5-7.5-6.7c-1.9-3.5-4.9-5.6-8.8-6.1l-8-14.9c1.5,0.1,2.6-0.4,3.2-1.3C860.7,448,861.2,446.5,861.5,444.7z" class="st6"></path>
<path d="M761.1,490.7c0.9,3.2,1.2,6.5,0.7,9.8c-0.1,0.4-0.3,0.7-0.7,1c-0.5,0.3-1.1,0.3-1.8,0c-0.5-0.2-0.8-0.7-0.9-1.3
	c-1.5-9-2.7-17.7-3.4-26c-0.4-5-0.6-10.1-0.5-15.4c0-0.9,0.3-1.7,0.8-2.4c0.5-0.6,1.5-0.4,1.7,0.4c0.4,1.7,0.9,3.4,0.8,5.2
	c-0.1,0.9,0.1,1.8,0.6,2.6c0.3,0.5,0.3,0.9-0.1,1.4c-0.4,0.6-0.4,1.2,0,1.8c0.3,0.4,0.3,0.8,0.2,1.2l-0.3,0.8
	c-0.1,0.4,0,0.9,0.3,1.2c0.6,0.6,0.7,1.2,0.4,2c-0.2,0.4-0.1,0.9,0.2,1.2c0.2,0.3,0.4,0.6,0.5,1c0.1,0.4,0.1,0.8-0.1,1.2
	c-0.3,0.8-0.3,1.6-0.1,2.5c0.7,2.9,1.1,5.6,1.1,8.2c0,0.4,0.1,0.8,0.4,1.2c0.3,0.4,0.3,0.9,0.2,1.4C761,490,761,490.3,761.1,490.7z" class="st4"></path>
<path d="M460.1,574.3l3.8,13.3c-0.8,1.2-1.9,2.6-3.5,4.2c-0.8,0.8-1.4,2.1-1.8,3.9c-1.3,5-1.5,10.1-0.8,15.2
	c2.7,18.1,7.6,36,14.6,53.7c-3.4,7-7,14.3-10.7,21.7c-8.5,16.6-16.4,33.4-24.4,50.3c-7.9,16.7-15.3,31.9-22.2,45.6
	c-0.4,0.8-0.9,1.6-1.4,2.3c-0.7,1-1,1.9-0.9,2.7c-1-0.1-1.7,0.1-1.9,0.6c-11.6,22.2-23.7,45.2-36.4,68.8
	c-0.7-16.4-0.7-31.6,0.1-45.6c0.5-10,0.8-19.9,0.7-29.6c0-0.8-0.6-1.4-1.4-1.4l-0.5,0c-1.8-0.1-2.8,0.8-2.9,2.6
	c-2.3,32.6-3.2,62-2.6,88.2c0,0.6-0.2,1.2-0.7,1.8c-0.3,0.4-0.7,0.3-1.3-0.1c-0.2-0.2-0.4-0.4-0.5-0.7c-3.1-8.5-4.9-15.1-5.4-19.8
	c-1.1-10.4-2.3-21.6-2.4-31.8c-0.1-9.6-0.8-19.7-2.3-30.1c-0.2-1.3-0.9-1.9-2.2-1.7l-0.4,0c-1,0.1-1.8,1-1.7,2
	c0.4,12.8,0.9,25.8,1.5,39.1c0.2,3.5,0.5,7.2,1,11.2c0,0.1,0,0.2-0.2,0.3l-0.4,0.1c-0.2,0.1-0.4,0-0.4-0.2c-2.3-8-5.1-14.7-8.5-19.9
	c-3-4.7-7.2-6.4-12.6-5.3c-3.9,0.8-7.1,5.3-8.6,8.8c-1.7,3.8-1.8,8.4-2.3,12.7c-2.5-4.2-5.1-8.4-7.6-12.5c-3.3-5.4-6.2-9.3-8.6-11.8
	c-5.1-5.4-11.2-9.5-18.2-12.3c-3.2-2.1-6.5-2.9-10.1-2.3c-3.1,0.5-6,2-8.7,4.4c-3.2,1.5-5.3,4.3-6.3,8.6c-1.7,7-2.7,14.2-3.2,21.4
	c-0.7,9.5-0.4,22,0.7,37.5c-6.3-0.1-12.8-0.2-18.7,1.7c-0.5-2.6-0.7-6.1-0.7-10.7c-0.1-13.2,0.5-25.9,1.7-38c0.1-1.5,0-3.1-0.4-4.6
	c-0.2-0.7-0.7-1-1.4-0.8c-0.5,0.1-0.9,0.5-1.1,1c-1.1,2.9-1.8,6-2.2,9.2c-1.7,14.7-2,29.3-1,43.9c-6.3,2.7-12.5,5.4-18.7,8.1
	c-1.4,0.6-2.5,1.6-3.9,2.2c-3.3,1.4-6.6,3-9.9,4.9c-7.1,4.1-16,8.1-26.5,11.8c-10.3,3.7-21.3,5.9-32.9,6.6c-2.7,0.2-5.4,0-8.1-0.5
	c-3.6-0.7-7.3-0.9-10.7-2.2c-3.4-1.2-6.9-2.6-10.7-4.3c-1.6-0.7-3.2-1.8-4.6-3.1c-2.2-2.1-4.8-3.6-6.8-6c-6.7-8.4-10.5-18-11.5-28.8
	c-0.3-3.6,0.1-6.9,0-10.5c-0.1-2.2,0.3-4.3,1-6.3c1.2-3.1,0.9-6.4,2.1-9.6c3.1-8.4,7.3-17.2,13-24.1c2.7-3.2,5-6.2,8.1-9.1
	c8.7-8.3,19.8-14.5,33.2-18.7c9.5-3,17.7-5.3,24.6-6.8c12.2-2.7,24-6.6,35.9-11.1c16.3-6.2,32.2-16.9,46.7-28.8
	c8.2-6.7,16.9-14,26-22c7.9-6.9,16.2-13.7,24.7-20.5c0.5-0.4,0.5-0.7-0.1-1.1c-3-2-6.3-3.9-8.9-6.5c-5.5-5.6-9.5-12-12.2-19.3
	c-4-10.8-5.6-22.7-4.7-35.5c0.5-7,1.4-13.1,2.7-18.2c1.7-6.5,5.2-12,7.1-18.5c0.1-0.4,0-0.7-0.4-0.8c-1.2-0.4-2.5-0.7-3.8-0.8
	c-12.1-0.8-23.1-2.4-33.1-4.7c-15-3.5-25.8-12.5-32.4-27c-2.2-4.9-2-9.1-3.2-14.1c-1.5-6.5,0.1-14.2,2-21.1
	c5.4-20.1,15.2-36.2,29.3-48.1c12.6-10.7,27.8-16.6,45.6-17.8l1.6,15.6c0.1,1,0.6,1.2,1.4,0.7c0.1-0.1,0.2-0.2,0.3-0.3
	c2.9-6.7,5.6-12.9,8.1-18.8c0.1-0.2,0.3-0.3,0.5-0.3c0.4,0.1,0.6,0.4,0.6,0.8c-1.1,9-1.2,18.5,0.8,27.2c1.2,5.1,1.9,10.3,3.7,15.2
	c1.5,3.7,2.4,7.5,4.3,11c2.9,5.4,6,10.4,9.5,15.1c2.4,3.2,5.4,5.7,8.3,8.3c0.8,0.7,1.8,1.1,3,1.1c6.2-0.1,9.3-3.4,9.6-10
	c0.2-5.5,0.5-11,0.9-16.4c0.2-3.1,0.8-3.2,1.6-0.1c3.4,13,10.1,28.3,21.1,36.3c0.4,0.3,0.8,0.4,1.3,0.4c1.3-0.1,2.6,0,4,0.3
	c1,0.2,2-0.6,1.8-1.6c-0.9-7.7-0.7-15.3,0.5-22.7c0.1-0.4,0.1-0.4,0.1,0c1.2,13.4,5.1,25.4,11.8,36c2.7,4.4,6.8,7.4,12.2,9
	c7.1,2.2,9.8-2.9,10.9-8.8c0.3-1.4,0.7-1.4,1.4-0.2c2.3,4.3,5.4,7.5,9.4,9.5c8.7,4.4,18.7,7.2,30.1,8.4
	C455.2,575.2,457.4,574.7,460.1,574.3z M361,577.2c1.2-1.2,1.2-3.2,0-4.4l-0.1-0.1c-1.2-1.2-3.2-1.2-4.4,0l-21.7,22
	c-1.2,1.2-1.2,3.2,0,4.4l0.1,0.1c1.2,1.2,3.2,1.2,4.4,0L361,577.2z M388.3,686.8c3.7-4.7,7.8-8.3,12.3-10.6c4.7-2.5,2.2-6.2-1-8.2
	c-9-5.2-14.6-10.6-14.7-21.7c0-3.7-0.6-9.7-3.1-12.7c-0.3-0.4-0.7-0.6-1.2-0.6c-1.8,0-3,0.9-3.6,2.8c-1.2,3.2-1.9,6.3-2.1,9.1
	c-0.7,7.5-2.3,13-7.4,18.7c-2.6,2.9-6.1,4.6-9.3,6.8c-0.5,0.3-0.7,0.8-0.8,1.4c-0.1,2.1,0.6,4.7,2.7,5.7c8.2,4,13,11.4,14.3,22.3
	c0.3,2.8,0.7,9.8,4.8,9.7c0.4,0,0.8-0.2,1.1-0.5c1-1.1,1.7-2.5,2-4.3C383.6,698.7,384.3,691.9,388.3,686.8z M363.9,721.4
	c-2.1,0.1-3.9,0.8-5.4,2.2c-11.1,10.4-20.7,20.2-29,29.4c-1,1.1-1.2,2.4-0.5,3.7c0.5,0.9,1.8,1.2,3.8,0.7c0.5-0.1,0.9-0.3,1.3-0.7
	c12.3-11.5,22.4-22.1,30.5-31.7c0.8-0.9,0.9-1.9,0.3-3C364.6,721.5,364.3,721.3,363.9,721.4z" class="st3"></path>
<path d="M959.5,482c4.4,10.3,8.6,21.3,12.5,31.8c0.4,1,0.1,1.8-0.7,2.4c-0.2,0.1-0.4,0.2-0.6,0.2
	c-0.7,0-1.1-0.3-1.3-0.9c-3.3-10.1-7.7-19.9-11.7-29.5c-3.7-9-7.9-16-14.5-23.3c-2.1-2.3-1.7-2.7,1-1.3
	C950.8,465.1,956.9,475.9,959.5,482z" class="st2"></path>
<path d="M729.6,482.2c0.4-1.3-0.2-2.4,0.6-3.6c0.3-0.4,0.4-0.9,0.5-1.3c0.9-5,2.3-9.9,4.2-14.7c0.3-0.9,1-1.5,1.9-1.8
	c0.4-0.1,0.7-0.2,1.1-0.1c0.9,0.1,1.1,0.5,0.7,1.2c-0.7,1.2-1.2,2.4-1.5,3.6c-1.5,7.2-3.3,14.6-5.2,22.1c-0.4,1.6-0.8,3.3-1.1,5
	c-0.3,1.9-1,3.9-1.9,5.9c-0.2,0.4-0.4,0.6-0.8,0.8c-0.2,0.1-0.4,0.1-0.6,0c-0.4-0.1-0.6-0.4-0.6-0.8
	C727.3,492.3,728.2,486.8,729.6,482.2z" class="st4"></path>
<path d="M864.8,465.3c4,0.5,6.9,2.6,8.8,6.1c-3.2,1.8-9-1.7-10.5-3.8C862.4,466.5,862.9,465.8,864.8,465.3z" class="st1"></path>
<path d="M924.2,466.8c0.3-0.1,0.7,0,0.8,0.3l16.2,38.2c4.3,10.2,7.4,18.6,6.9,18.8l-1.4,0.6c-0.5,0.2-4.4-7.8-8.7-18
	l-16.2-38.2c-0.1-0.3,0-0.7,0.3-0.8L924.2,466.8z" class="st2"></path>
<path d="M906.3,472.8L906.3,472.8c0.9-0.3,1.8,0.2,2.1,1l18.1,53.5c0.3,0.8-0.2,1.8-1,2l0,0c-0.8,0.3-1.8-0.2-2-1
	l-18.1-53.5C905,474,905.5,473.1,906.3,472.8z" class="st2"></path>
<path d="M903.2,538.2c-0.3,0.1-0.7-0.1-0.8-0.4l-14-44.9c-2.3-7.4-3.8-13.5-3.3-13.7l1.3-0.4c0.5-0.2,2.7,5.7,5,13.2
	l14,44.9c0.1,0.3-0.1,0.7-0.4,0.8L903.2,538.2z" class="st2"></path>
<path d="M623.9,576.9l5.3-14c0.6-1.6,1.9-4.4,4-8.3c1.7-3.3,3.5-6.3,5.5-9.1c3.8-5.5,5.9-8.3,6.1-8.7
	c12.2-18.6,27.8-34.6,46.9-48c3.4-2.4,7.4-4.6,12-6.4c0.3-0.1,0.5-0.1,0.7,0.2l0.2,0.4c0.1,0.1,0,0.2-0.1,0.3
	c-5.7,3.8-11.4,7.9-17,12.3c-13,10.1-24,21.2-33.2,33.3c-6.2,8.2-12.6,17.4-19,27.5c-1.4,2.2-3.2,5.6-5.5,10.4
	C628.1,570.1,626.1,573.6,623.9,576.9z" class="st4"></path>
<path d="M855.6,518.9c-2.2-6-3.7-11.9-4.5-17.6c-0.4-2.9-0.1-6.1,0.8-9.6c0.2-0.7,0.6-1.1,1.2-1.4l0.5-0.2
	c0.6-0.3,0.8-0.1,0.7,0.5c-1.4,5.3-0.7,12.4,2.1,21.1c2.3,7.2,4.4,14.6,7.4,21.4c2.2,5,4.4,10.1,6.8,15.2c0.4,0.8,0.2,1.5-0.6,1.9
	l-0.3,0.2c-0.3,0.2-0.7,0.1-0.8-0.2c-4.6-8.5-7.9-15.4-9.9-20.8c-0.5-1.4-1.1-2.7-1.7-4C856.2,523.2,856.4,521,855.6,518.9z" class="st4"></path>
<path d="M880.3,529.7c2.1,4.8,3.6,9.9,4.3,15c0.1,0.6-0.1,1-0.4,1.2c-0.5,0.3-1.2,0.1-1.4-0.5
	c-2.1-5.3-4.3-10.5-5.5-16.1c-1.2-5.8-3.4-11.4-4.5-17.1c-1.2-6-2-11.6-2.5-17c-0.2-1.9-0.2-3.1-0.1-3.6c0.9-2.9,1.5-2.8,1.9,0.2
	c1,8.4,2.7,17,5.2,25.6C878.5,521.5,878.7,526.1,880.3,529.7z" class="st4"></path>
<path d="M533.3,556.7c-0.6-4.2-0.2-8.1,1.1-11.8c1.4-4.2,4.8-13.4,0.7-16.2c1.4-4.3,2.4-8.8,2.8-13.5
	c0.2-2.1,0.5-4.2,0.8-6.3c0.4-2.2,0.7-4.2,1-6.2c0.4-3.2,1.4-10.1,5.1-11.4c1.5-0.5,3.2,0.2,3.7,1.8c2.4,6.8,2.2,15.2,2.4,22.4
	c0.1,2.1,0.8,4,0.3,6.2c-0.2,0.8-0.3,1.7-0.3,2.7c0.1,8.8,0,17.7-0.3,26.6c0,0.2-0.2,0.5-0.4,0.5L533.3,556.7z" class="st4"></path>
<path d="M516.5,494.5c-0.6,0.1-0.8,0.5-0.8,1.3c0,0.4,0.2,0.8,0.5,1.1c2,1.9,2.9,4.7,2.6,8.3c-0.5,5.9-3.2,9.3-8.2,9.9
	c-1.2-2.5-3.1-4.1-6-4.7c-1-0.2-1.8,0.8-1.3,1.7l3.3,6c-2.3,4.6-5.9,8-10.9,10.2c-1.1-1.6-2.2-3.4-3.4-5.4c-0.8-1.4-1.7-2.5-2.8-3.2
	c-1.1-0.8-2.7-0.2-2.9,1.2c-0.2,1,0,1.9,0.6,2.7c1.3,1.9,2.5,3.8,3.6,5.8c-3.6,4.5-7.7,8.2-12.2,11.1l-3.5-4.3c-0.5-0.6-1-1-1.7-1.4
	c-1.6-0.9-2.6-1-3-0.3c-0.8,1.2-0.9,2.2-0.1,3.1c4.6,5.8,7.8,12.3,9.7,19.6c-2.5,7.9-2.8,15.7-1.1,23.3l-15.2,7.2l-3.8-13.3
	c-1.9-9.7-3.3-18.8-4.2-27.3c-1.1-11.2,1.1-22.7,9.7-30.6c9-8.3,19.2-15.1,30.7-20.5c3.2-1.5,6.5-2.6,9.9-3.2
	C510,491.9,513.4,492.5,516.5,494.5z" class="st5"></path>
<path d="M1257.4,493.6l47.6,1.2c2.2,0.1,4,1.9,3.9,4.1l0,0.2c-0.1,2.2-1.9,4-4.1,3.9l-47.6-1.2c-2.2-0.1-4-1.9-3.9-4.1
	l0-0.2C1253.3,495.3,1255.2,493.6,1257.4,493.6z" class="st1"></path>
<path d="M516.5,494.5c2.9,3.2,4.7,5.6,5.2,7.1c1.6,4.8,3.2,9.5,4.9,14.3c0.8,2.2,1.3,4.5,1.6,6.8c0.3,2.4,0.6,4.7,0.8,7
	c-3.3,3.4-7,5.6-11.1,6.5l-7.3-21.1c5-0.7,7.7-4,8.2-9.9c0.3-3.6-0.6-6.4-2.6-8.3c-0.3-0.3-0.5-0.7-0.5-1.1
	C515.7,495,516,494.6,516.5,494.5z" class="st4"></path>
<path d="M1095.8,525.7c-8.1,3.5-10.8,11-11.2,19.2c-0.1,1.6-0.7,2.9-1.9,3.9c-0.7,0.5-1.7,0.2-1.9-0.6c-0.8-3-1.5-6-2-9
	c-1.2-6.6-5-10.1-11.3-12.2c-0.7-0.2-1-1.1-0.6-1.7c0.7-1.1,1.6-1.8,2.8-2.3c8-3.1,9.8-10.7,10.8-18.3c0.2-1.4,0.9-2.2,2.1-2.4
	c0.7-0.1,1.3,0.3,1.4,1c0.5,2.3,0.9,4.7,1.3,7c1,6.1,5.2,9.8,10.5,12.5C1097,523.6,1097,525.2,1095.8,525.7z" class="st0"></path>
<path d="M510.7,515.1l7.3,21.1c-1.2,2.5-2.8,3.4-4.8,2.7c-1-4.8-2.2-9.6-3.5-14.3c-0.3-1-1.3-3.2-2.9-6.6l-3.3-6
	c-0.5-0.9,0.3-1.9,1.3-1.7C507.5,511,509.5,512.6,510.7,515.1z" class="st1"></path>
<path d="M506.7,518c1.7,3.4,2.6,5.6,2.9,6.6c1.3,4.7,2.5,9.5,3.5,14.3l-11.4,8c-1.2-6.2-3.2-12.5-5.8-18.6
	C500.8,526.1,504.4,522.7,506.7,518z" class="st4"></path>
<path d="M495.8,528.3c2.7,6.2,4.6,12.4,5.8,18.6c-0.4,4.4-2.1,5.6-4.8,3.6c0.3-1.3,0.4-2.4,0.2-3.2
	c-1.6-6.1-3.6-12.1-6-18c-1.1-2-2.3-3.9-3.6-5.8c-0.6-0.8-0.8-1.7-0.6-2.7c0.2-1.3,1.8-2,2.9-1.2c1,0.8,2,1.8,2.8,3.2
	C493.6,524.9,494.7,526.7,495.8,528.3z" class="st1"></path>
<path d="M535,528.6c4.2,2.8,0.8,12-0.7,16.2c-1.3,3.7-1.6,7.7-1.1,11.8c-2.4,1.6-4.1,2.5-4.9,2.7
	c-3.3,1-9.2,3.3-17.7,6.9c-9,3.8-14.6,6.2-17,7.3c-0.6,0.3-0.8,0.7-0.7,1.1c-0.7,0.1-1.4,0.4-2,0.9l-11.7,4.8
	c-1.7-7.7-1.4-15.5,1.1-23.3c0.8,1.3,2.3,1.5,4.4,0.7c1.1-0.4,1.6-1.2,1.3-2.1l10.9-5.1c2.8,1.9,4.4,0.7,4.8-3.6l11.4-8
	c2.1,0.7,3.7-0.3,4.8-2.7c4.1-0.9,7.7-3.1,11.1-6.5c0.6,1.4,2,2.4,4.3,3.1c0.4,0.1,0.7,0,0.9-0.4C534.8,531.3,535.1,530.1,535,528.6
	z" class="st6"></path>
<path d="M491,529.3c2.3,5.9,4.3,11.9,6,18c0.2,0.8,0.2,1.9-0.2,3.2l-10.9,5.1l-7.1-15.1
	C483.4,537.6,487.5,533.9,491,529.3z" class="st4"></path>
<path d="M478.8,540.5l7.1,15.1c0.3,1-0.2,1.7-1.3,2.1c-2.1,0.8-3.6,0.6-4.4-0.7c-1.9-7.3-5.1-13.8-9.7-19.6
	c-0.7-0.9-0.7-2,0.1-3.1c0.4-0.7,1.5-0.5,3,0.3c0.7,0.4,1.2,0.8,1.7,1.4L478.8,540.5z" class="st1"></path>
<path d="M629.2,562.8l-5.3,14l-9.9,21.6c-9.7-9.1-18.5-16.1-26.5-21.1c-1.9-1.2-6.3-3.2-13-6.1l-2.6-3.5
	c1,0,1.7-0.6,2.2-1.8c4.9,1,10,0.4,15.1-2.1c0.7-0.3,1.1-1,1.1-1.8c-0.3-6.6,3.1-11.5,3.7-17.8c0.2-2.1,1.1-3.5,1.8-5.4
	c0.8-2.4,1.2-2.3,1,0.2c-0.3,4.8-0.6,9.8-1,15.1c-0.2,2.7,0,5.6,0.3,8.1c0.2,1.5,1,2.1,2.5,1.9C609.1,562.9,619.3,562.5,629.2,562.8
	z" class="st3"></path>
<path d="M694.1,682.6c-4.2,9.9-7,19.1-8.2,27.6c-2,13.7-2.1,27.4-0.3,41.1c0.4,3-0.5,6.6-2.8,8.7
	c-4.1,3.8-7.9,6.4-11.3,8c-3.5,1.6-7.6,1.8-11.5,2.5c-1.6,0.2-3.1,0.4-4.7,0.4c-3.8,0-7.7-0.1-11.7-0.3c-9.2-0.4-18.8,0.8-27,4.6
	c-4.5,2.1-8.7,4.4-12.7,7.1c-0.4,0.2-0.9,0.1-1.1-0.2c-11.7-19.3-24-38.1-36.8-56.6c2.2-4.3,3.1-8.7,2.7-13.2
	c-0.1-1.2-0.7-1.7-1.8-1.6c-0.5,0.1-0.9,0.3-1.1,0.7l-4.5,7.6L498.9,838c-4.7-5.1-9-9.9-12.8-14.2c-1.8-2-6-5.6-12.7-10.8
	c-2.8-2.2-5.8-4-8.7-6.1c-2-1.5-4.2-2.9-6.6-4.3c-8.7-5-16.7-8.9-24-11.6c-4.6-1.7-10-3.2-16.3-4.4c-0.8-0.2-2.5,0-5,0.5
	c-0.1-0.8,0.2-1.7,0.9-2.7c0.5-0.8,1-1.6,1.4-2.3c6.9-13.7,14.3-28.9,22.2-45.6c8-16.9,15.9-33.6,24.4-50.3
	c3.8-7.4,7.3-14.6,10.7-21.7l27.6-50c0,2-0.5,4-1.5,6.1c-0.2,0.4-0.2,0.8-0.1,1.2c1.1,4.5,2.7,8.2,4.8,11.2
	c3.1,4.4,8.8,9.9,13.9,12.5c6.2,3.3,13,5.2,20.3,5.6c2.1,0.1,3.9-1,6.1-1.2c6.1-0.5,11.7-2.3,16.7-5.3c11.4-6.8,19.7-16.3,22.6-29.5
	c4.4-19.4-4.4-37.8-24.1-43.5c-1.4-0.4-3.8,0.6-5.5-0.1c-0.7-0.3-1-0.8-1.1-1.4c3.5-0.4,7-0.7,10.6-0.7c1.4,0,3.4,0.3,5.8,0.9
	c1.9,0.5,3.8,0.8,5.9,0.9c6.7,2.9,11,4.9,13,6.1c8,4.9,16.8,12,26.5,21.1c8.4,7.2,16.5,15,24.3,23.3c7,7.4,14.4,15.2,21.9,23.4
	c0.9,0.9,1.4,0.8,1.6-0.5c4-22.6,8.8-44.2,14.5-64.8c1.2-4.4,2.6-9,4-13.8c0.4-1.4,1.1-2.6,2-3.6c0.3-0.3,0.4-0.7,0.4-1.2l0-0.8
	c0-0.4,0.1-0.8,0.2-1.2c2.4-6.3,5-12.8,7.6-19.5c0.3-0.9,1.1-1.6,2.1-2.1c0.3-0.1,0.6-0.2,0.9-0.3c0.7-0.1,1.3,0.6,1,1.3
	c-5.2,13.3-9.5,25.6-12.9,37c-2.2,7.2-4.4,15.3-6.6,24.4c-0.6,2.3-1.2,4.8-2,7.4c-0.9,3.2-1.1,6.4-2,9.5c-2.9,9.7-4.3,19.9-7.4,29.5
	c-0.3,1.1-0.1,2,0.6,2.9L694.1,682.6z" class="st4"></path>
<path d="M1033.5,549.8c7.6,10.9,13.8,23.2,17.8,36c0.5,1.5,0.5,2.8,0.1,4.1c-0.4,1.2-2,1.3-2.6,0.2
	c-3.5-6.6-5.9-14.6-9.1-20.6c-3.3-6.2-6.3-12.5-10.7-18.2c-0.9-1.2-1.3-2.4-1.2-3.8c0.1-0.7,0.7-1.1,1.3-0.9
	C1031,547.2,1032.4,548.2,1033.5,549.8z" class="st4"></path>
<path d="M574.2,565.9c-0.5,1.2-1.3,1.8-2.2,1.8c-1.2-2.1-2.3-4.3-3.3-6.5c-1.3-2.8-2.6-4.9-3.9-6.1
	c-3.1-2.9-6.9-4.4-11.2-4.6c-0.4,0-0.4-0.1,0-0.1c3.9-0.8,7.8-2.6,10.9,1.4c0.3,0.4,0.6,0.6,1,0.8
	C570.3,554.7,572.5,560.6,574.2,565.9z" class="st2"></path>
<path d="M154.4,699.2c6.4,8.7,10.9,18.4,13.3,29.1c1,4.2,5.4,12.2,10.2,6.1c1.1-1.4,1.8-2.9,2.2-4.5
	c1.2-5.1,2.5-10,4-14.6c1-3.2,3-7,5.8-11.4c1.6-2.6,3.5-4.7,5.5-6.2c4.5-3.3,8.9-6.6,13.4-9.7c3.3-2.3,5.4-8.3,1.4-11.1
	c-4.8-3.4-9.2-6.5-13.2-9.4c-1.5-1-2.8-2.4-4.2-4c-4.2-5.1-6.7-10.1-8.2-16.9c-1.3-5.7-2.6-11.2-4-16.4c-0.9-3.4-3-5.8-6.1-7.1
	c-0.4-0.2-0.9-0.1-1.3,0.2c-3.2,2.4-5,5-5.6,8c-1.9,9.4-4.6,18.2-8.1,26.3c-1.6,3.6-4.6,7-9,10.3c-4.1-10.1-6.3-19.7-6.7-28.9
	c-0.2-4.7,1.5-9.6,4.9-14.7c3.6-5.3,7.4-10.4,11.5-15.4c14.6-18,29.4-35.8,44.4-53.6c0.8-0.9,1.6-1.7,2.4-2.4
	c0.5-0.4,1.3-0.1,1.5,0.5c0.3,1.7,0.7,3.4,1.3,5c2,5.3,4.5,10.5,7.2,15.6c4.3,7.9,11,14.6,20,20.2c6,3.7,13.4,3.9,20.2,4.7
	c8.4,1,16,5,14.6,14.7c-1.3,8.9-1.8,17.5-1.4,26.1c0.2,6.5,1.5,13.6,3.8,21.1c2.1,6.8,4.6,13.1,7.7,18.9c0.4,0.8,0.4,1.9-0.2,2.6
	c-1.2,1.5-2.4,2.8-3.8,4c-22,19.2-44.4,38.8-67.1,57.8c-7.2,6-18.8,15-28.6,11.5c-2.9-1-5.3-3.9-7.8-6c-2.5-2.1-4.4-6.2-5.6-9
	c-1.2-2.9-2.5-5.8-3.8-8.6c-1-2-1.7-3.9-2.1-5.7c-0.6-2.1-1.1-4.3-1.7-6.4c-0.4-1.5-1-2.9-1.8-4.4c-0.7-1.3-1.3-2.8-1.7-4.4
	c-0.3-1.4-1-3-2-4.9C154.6,703.8,154.1,701.5,154.4,699.2z" class="st0"></path>
<path d="M871.1,557.4c-0.1-0.7,0.3-1.3,0.9-1.5l0.4-0.1c0.4-0.1,0.8,0.1,0.9,0.5c0.9,4,1.5,7.9,1.9,11.4
	c2.2,22.1,7.6,43.3,12.6,64.6c1.5,6.5,3.9,14.9,1.9,21.4c-1.8,6-7.4,6.2-11.7,2.8c-2.6-2-4.6-4.8-6.1-8.3c-6.9-16.7-10.6-34-13-51
	c-0.8-5.8-0.7-11.9-1.6-18c-0.2-1.5,0.1-2.8,1-3.7c1-1.1,1.6-0.9,1.7,0.6c0.1,1.8-0.2,3.3,0.1,5c1.1,5.8,1.4,12.4,2.2,17.5
	c2.6,16.6,6.1,31.5,11.7,46.7c1.4,3.9,7.6,15.2,12.2,8.4c2.4-3.5-0.1-13.2-1-17.2c-2.4-11.1-5-22.3-7.7-33.6
	c-1.8-7.3-2.8-14.3-3.6-21.6c-0.2-2-1-3.5-1.1-5.5C872.5,570,871.9,563.9,871.1,557.4z" class="st4"></path>
<path d="M531.3,562c1.6,3.2,3,6.2,4.4,9c0.3,0.7,0.3,1.3,0,2c-0.5,0.9-1.8,0.8-2.2-0.2l-4.3-11.5
	c-0.1-0.4,0-0.5,0.4-0.4l0.5,0.1C530.6,561.1,531.1,561.5,531.3,562z" class="st2"></path>
<path d="M811.5,585c-0.4-0.1-0.7-0.4-0.8-0.8c-0.1-0.7,0.1-1.2,0.8-1.6c2.9-1.6,5.2-4,7-7c1.5-2.5,1.7-5.2,2.2-7.9
	c0.1-0.5,0.3-1,0.7-1.4c0.6-0.5,1.2-0.7,1.9-0.4c0.4,0.2,0.6,0.4,0.8,0.9c1.6,6.2,3.3,10.7,10.2,11.7c1.8,0.3,2,1,0.5,2.1
	c-3.3,2.4-7,4.6-8.3,8.7c-0.8,2.5-1.5,5.1-2.1,7.7c-0.3,1.3-0.9,2.4-1.8,3.3c-0.4,0.4-1,0.2-1.2-0.3
	C820,593.6,819.1,586.9,811.5,585z" class="st0"></path>
<path d="M509.6,569.1l0.4-0.1c0.7-0.3,1.5,0.1,1.7,0.8l5.8,15.3c0.3,0.7-0.1,1.5-0.8,1.7l-0.4,0.1
	c-0.7,0.3-1.5-0.1-1.7-0.8l-5.8-15.3C508.5,570.2,508.9,569.4,509.6,569.1z" class="st3"></path>
<path d="M552.3,570.1c0,0.6,0.4,1.1,1.1,1.4c1.6,0.8,4-0.3,5.5,0.1c19.7,5.6,28.5,24.1,24.1,43.5
	c-3,13.2-11.2,22.7-22.6,29.5c-5,3-10.6,4.8-16.7,5.3c-2.2,0.2-4,1.4-6.1,1.2c-7.3-0.5-14.1-2.3-20.3-5.6
	c-5.1-2.7-10.8-8.1-13.9-12.5c-2.1-3-3.7-6.7-4.8-11.2c-0.1-0.4-0.1-0.8,0.1-1.2c1-2.1,1.5-4.1,1.5-6.1c3.2-6.9,7.1-13.6,11.7-20
	c6.6-9.3,14.3-15.9,23-19.9C538.6,572.9,544.4,571.4,552.3,570.1z" class="st5"></path>
<path d="M360.8,572.7l0.1,0.1c1.2,1.2,1.2,3.1,0,4.4l-21.7,22c-1.2,1.2-3.1,1.2-4.4,0l-0.1-0.1c-1.2-1.2-1.2-3.1,0-4.4
	l21.7-22C357.7,571.5,359.6,571.5,360.8,572.7z" class="st4"></path>
<path d="M492.9,574.7c1.3,1.5,2.3,3.1,3,4.9c2.7,7.2,5.3,14.9,8,23c0.3,0.8,0.1,1.7-0.4,2.7c-0.1,0.2-0.2,0.3-0.4,0.4
	c-0.7,0.6-1.3,0.4-1.6-0.5l-10.6-29.6C491.5,575.1,492.2,574.8,492.9,574.7z" class="st3"></path>
<path d="M134.2,581.6c-13.8,17.1-22.1,34.8-25.9,55.6c-2.2,12.3-3.2,24.7-2.8,37.2c0.1,1.3-1.1,2.3-2.4,2.1
	c-1.3-0.2-1.9-1-2.1-2.3c-2.8-28.7,2.9-55.2,17.2-79.5c3.7-6.3,7.9-11.7,12.6-16.1c0.9-0.8,2-1,3.3-0.6c0.7,0.2,0.9,1,0.5,2.6
	C134.6,580.9,134.5,581.3,134.2,581.6z" class="st0"></path>
<path d="M488.9,630.6c0.1,0.2,0.1,0.4,0.1,0.6c0,1.3-0.4,2-1.2,2.2c-0.5,0.1-0.8-0.1-1-0.5
	c-5.1-14.2-8.7-28.5-10.9-42.7c-0.3-2.1-0.5-4.2-0.6-6.2c0-0.4,0.3-0.8,0.8-0.9c0.3,0,0.6,0.1,0.7,0.4c1.4,3.6,2.5,7.3,3.1,11.1
	c0.7,4.1,1.4,7.8,2.3,11.1C484.2,613.8,486.5,622.1,488.9,630.6z" class="st3"></path>
<path d="M154.4,699.2c-1.1-0.4-2.2-1.1-3.4-2.3c-5.4-5.2-11.1-5.3-14.2-12.9c-0.7-1.6-0.6-3.1,0.1-4.4
	c0.8-1.6,1.9-2.8,3.3-3.7c3.4-2.2,6.9-4.9,10.4-8.1c4.4-3.3,7.4-6.7,9-10.3c3.5-8.1,6.2-16.9,8.1-26.3c0.6-2.9,2.4-5.6,5.6-8
	c0.4-0.3,0.8-0.4,1.3-0.2c3.2,1.3,5.2,3.7,6.1,7.1c1.4,5.2,2.8,10.7,4,16.4c1.5,6.8,4.1,11.8,8.2,16.9c1.3,1.6,2.7,2.9,4.2,4
	c4,2.9,8.4,6,13.2,9.4c4,2.8,1.9,8.8-1.4,11.1c-4.5,3.1-8.9,6.3-13.4,9.7c-2,1.5-3.9,3.6-5.5,6.2c-2.8,4.5-4.7,8.3-5.8,11.4
	c-1.5,4.6-2.8,9.4-4,14.6c-0.4,1.6-1.1,3.2-2.2,4.5c-4.9,6.1-9.3-2-10.2-6.1C165.2,717.6,160.8,707.9,154.4,699.2z" class="st1"></path>
<path d="M388.3,686.8c-4,5.1-4.6,11.8-5.9,18c-0.4,1.7-1,3.2-2,4.3c-0.3,0.3-0.7,0.5-1.1,0.5c-4.1,0.1-4.5-6.9-4.8-9.7
	c-1.3-10.9-6.1-18.3-14.3-22.3c-2.1-1-2.8-3.6-2.7-5.7c0-0.6,0.3-1,0.8-1.4c3.2-2.2,6.7-3.9,9.3-6.8c5.1-5.6,6.7-11.2,7.4-18.7
	c0.3-2.8,1-5.9,2.1-9.1c0.7-1.8,1.9-2.8,3.6-2.8c0.5,0,0.9,0.2,1.2,0.6c2.5,2.9,3.1,8.9,3.1,12.7c0,11.1,5.7,16.5,14.7,21.7
	c3.3,1.9,5.8,5.7,1,8.2C396.1,678.6,392,682.1,388.3,686.8z" class="st1"></path>
<path d="M1167.8,667.5c6.1-3.9,7.4-10.5,8.6-17.2c0.2-1,0.7-1.8,1.5-2.2c1.1-0.6,2.5,0,2.8,1.2
	c0.8,3.4,1.1,7.6,2.6,10.5c2.5,5,7.1,8.9,12.6,10.8c1.5,0.5,1.8,2.6,0.5,3.6c-1.9,1.3-3.7,2.6-5.4,3.8c-7,4.8-8.9,12.3-11.1,20.2
	c-0.2,0.9-1.2,1.5-2.1,1.4c-0.9-0.1-1.4-0.7-1.7-1.6c-1.3-4.1-2.5-7.9-3.7-11.4c-1.8-5.2-8.1-8.5-12.7-11.6c-1-0.7-1.2-2.2-0.2-3
	C1162,669.6,1165.1,669.2,1167.8,667.5z" class="st0"></path>
<path d="M766.6,704.6c2.4,1.9,4.7,3.8,6.8,5.8c0.6,0.5,0.4,1.5-0.3,1.8c-7.6,3.2-11.9,8.9-12.8,17.1
	c-0.2,1.6-0.9,2.8-2,3.6c-0.6,0.4-1.3,0.1-1.5-0.5c-1.3-4.9-1.5-10.1-5-14c-2-2.1-4.9-3.2-7.2-5.1c-0.9-0.8-0.7-2.3,0.4-2.7
	c7.9-3.2,11.7-9.9,13.1-18c0.1-0.7,0.7-1.3,1.5-1.3c1.4-0.1,2.2,0.6,2.5,2.1C762.8,697,763.4,702.2,766.6,704.6z" class="st0"></path>
<path d="M565.8,725.4l-4.6-6.5l4.5-7.6c0.2-0.4,0.6-0.7,1.1-0.7c1.1-0.1,1.7,0.4,1.8,1.6
	C568.9,716.7,568,721.1,565.8,725.4z" class="st6"></path>
<path d="M363.9,721.4c0.4,0,0.7,0.2,0.9,0.5c0.6,1.1,0.5,2.1-0.3,3c-8.1,9.7-18.2,20.2-30.5,31.7
	c-0.3,0.3-0.8,0.6-1.3,0.7c-2,0.5-3.3,0.3-3.8-0.7c-0.7-1.3-0.5-2.6,0.5-3.7c8.3-9.1,18-18.9,29-29.4
	C359.9,722.2,361.7,721.5,363.9,721.4z" class="st4"></path>
<path d="M1104.6,815.2c-5.2,4.6-7.5,12.7-9.2,19.2c-1.1,4.4-4.2,9.6-9.5,9.1c-4.2-0.3-7-2.6-8.5-6.9
	c-4.1-11.8-5.5-24.4-18.3-31c-5.8-3-11.2-8-8.8-15.2c1-3.1,2.4-5.4,5.2-7.2c3.9-2.6,8.2-5.2,11.4-8.5c5-5.1,7.4-11.2,9.5-17.9
	c1.1-3.5,2.7-6.6,4.9-9.3c4.9-5.9,10.6-2.4,13,3.3c2.3,5.5,4.5,10.9,6.5,16.2c0.6,1.6,1.8,3.1,3.7,4.4c5.5,4,10.7,8.1,15.4,12.5
	c4.4,4,4.1,10,2.1,15.3c-0.8,2.2-2.5,4.2-5,6.1C1112.4,808.6,1108.3,812,1104.6,815.2z M1076.3,769.8c-3.2,7-9.7,12.3-16.3,16.2
	c-4.3,2.5-6.2,5.9-4.5,10.7c0.2,0.5,0.5,1,1,1.3c4.7,3,9,6,12.7,8.9c3.6,2.9,5.4,7.2,7.3,11.4c2.6,5.6,3.9,12,5.5,17.8
	c0.3,1.1,1,1.7,2.2,1.8c1.9,0.2,4,0.8,5-1.3c2.2-4.9,2.8-10.4,5.2-15.3c3.1-6.3,7.5-11.5,13.2-15.4c3.3-2.3,8.2-5.7,9.8-8.7
	c2.3-4.3,1-9.4-3.2-12c-7.2-4.3-14.7-10.1-18.7-17.7c-2.4-4.5-4.1-9-5.1-13.4c-0.3-1.5-1.1-2.7-2.2-3.7c-1-0.9-2.4-0.8-3.4,0.1
	c-1.8,1.8-3,3.8-3.7,6.1C1079.9,761.2,1078.2,765.6,1076.3,769.8z" class="st1"></path>
<path d="M1076.3,769.8c2-4.2,3.6-8.6,5-13.1c0.7-2.3,2-4.3,3.7-6.1c0.9-0.9,2.4-0.9,3.4-0.1c1.1,1,1.8,2.2,2.2,3.7
	c1.1,4.4,2.8,8.9,5.1,13.4c3.9,7.6,11.5,13.4,18.7,17.7c4.2,2.5,5.4,7.7,3.2,12c-1.6,2.9-6.4,6.3-9.8,8.7
	c-5.7,3.9-10.1,9.1-13.2,15.4c-2.4,4.9-3,10.3-5.2,15.3c-1,2.2-3.1,1.6-5,1.3c-1.2-0.1-1.9-0.8-2.2-1.8c-1.5-5.8-2.9-12.2-5.5-17.8
	c-1.9-4.1-3.7-8.5-7.3-11.4c-3.7-3-8-6-12.7-8.9c-0.5-0.3-0.8-0.8-1-1.3c-1.7-4.8,0.2-8.1,4.5-10.7
	C1066.6,782.2,1073,776.8,1076.3,769.8z" class="st4"></path>
<path d="M1217.1,807c-0.6-3.6-1.3-7.2-2-10.7c-1.1-5.4-4.5-9.2-9.8-10.6c-1.8-0.5-3.7-1.2-5.5-2.1
	c-0.5-0.3-0.8-0.8-0.7-1.4c0.4-2.2,2.2-3.5,4.2-4.1c10.4-3.2,12-12.6,14.1-22.1c0.3-1.3,1.7-1.9,2.9-1.3c0.8,0.4,1.3,1.2,1.4,2.3
	c1.3,9.5,5.6,18.5,15.5,20.9c0.5,0.1,0.9,0.4,1.2,0.8c1.3,1.7,0.3,3.2-1.3,4c-3.2,1.7-7.2,2.9-9.4,5.7c-4.1,5.1-5.5,13.2-6.7,19.5
	c-0.1,0.8-0.5,1.4-1.2,1.8c-0.7,0.5-1.3,0.4-1.8-0.3C1217.6,808.8,1217.2,808,1217.1,807z" class="st0"></path>
<path d="M498.9,838c-1.1,3.6-3.6,9-7.5,16.3c-11.4,21.3-23.1,42.4-35,63.4l-26,46.4c-0.2,0.3-0.5,0.3-0.7,0
	c-0.8-1.4-1.2-3-1.4-4.7c-0.2-1.6-0.6-3.2-1.2-4.6c-6-14.6-12.6-26.9-19.8-37.1c-8.4-11.9-18.8-22.9-31.4-33.1
	c-0.5-0.5-1.2-1.3-1.9-2.4c-0.2-0.4-0.3-0.8-0.3-1.2l0.8-24.7c12.7-23.7,24.9-46.6,36.4-68.8c0.3-0.5,0.9-0.7,1.9-0.6
	c2.5-0.5,4.2-0.6,5-0.5c6.3,1.2,11.8,2.7,16.3,4.4c7.3,2.7,15.3,6.6,24,11.6c2.4,1.4,4.6,2.8,6.6,4.3c2.8,2.1,5.8,3.9,8.7,6.1
	c6.6,5.1,10.9,8.7,12.7,10.8C489.9,828.1,494.2,832.9,498.9,838z" class="st1"></path>
<path d="M715.3,801.8c1.2,6,5.8,10,11.7,11c0.9,0.2,1.3,1.3,0.6,2c-2.9,2.8-6.4,4-8.9,7.3c-3,4-3.8,9.1-4.9,13.9
	c-0.3,1.2-0.8,2.2-1.7,3c-0.9,0.8-2.4,0.4-2.7-0.9c-1.3-5.6-0.2-14.6-6.6-17.7c-1.7-0.8-3.5-1.8-5.4-2.8c-0.9-0.5-1.3-1.3-1.1-2.3
	c0.1-0.5,0.5-1,1.3-1.4c2.4-1.2,5.2-2.3,7.1-4.1c4.1-3.9,4.5-9.4,5.7-14.4c0.2-0.8,0.8-1.4,1.6-1.7c1.4-0.4,2.2,0,2.3,1.4
	C714.5,797.3,714.9,799.5,715.3,801.8z" class="st0"></path>
<path d="M286.2,800.2c3.5,9.7,6.1,18,7.8,24.8c1.4,5.7,3.4,14.8,5.9,27.1c0.7,3.2,0.7,6.4,1.5,9.5
	c0.6,2.2,1,4.5,1.2,6.9c0.2,2.5,0.6,5.1,1.1,7.7c0.5,2.5,0.9,5,1.2,7.7c0.3,3.2,0.8,6.3,1.5,9.2c0.5,2.4,0.1,4.7,1,7.1
	c1.1,2.9,0.9,5.9,1.5,8.9c0.9,4.6,2,9.1,2.3,13.7c0.1,1.7,0.4,3.4,0.9,5c0.7,2.4,1.3,4.8,1.6,7.4c1.3,8.9,3,17.4,5,25.6
	c0.3,1.2,0.2,2.5,0.5,3.8c2.1,9.2,4.4,18.3,6.9,27.4c2.5,9.3,5.8,18.7,8.5,27.7c4.1,14,10.2,28.7,15.8,42.6c0.6,1.6,1.3,3.1,2.1,4.5
	l-0.2,0.7c-0.1,0.3-0.2,0.6-0.5,0.9c-3.2,3-7.6,4.9-13,5.7c-5.1-10.3-10.4-20.5-14.9-31.1c-1.8-4.3-3.6-8.7-5.3-13.1
	c-0.5-1.2-0.9-2.5-1.4-3.7c-3-8.4-5.7-16.7-8.3-24.9c-0.6-2-0.4-3.8-1.3-5.8c-0.6-1.2-1-2.5-1.4-3.9c-6.1-21.3-10.6-42.1-13.5-62.3
	c-1.2-8.9-2.6-18.9-4-30.1c-1-8.2-2.1-16-3.4-23.3c-1.3-8.1-2.6-15.9-3.8-23.2c-0.4-2.6-1.4-4.9-1.7-7.4c-0.2-1.9-0.5-3.8-0.9-5.7
	c-2.1-10.1-3.4-19.5-7.2-29.9c-1-2.8-2.6-5-4.2-7.4c2.7-2.4,5.6-3.8,8.7-4.4C279.7,797.3,283,798,286.2,800.2z" class="st4"></path>
<path d="M320.6,836.8c3.5,6.1,6.3,12.6,8.2,19.6c0.2,0.6,0.5,1.1,1.1,1.4c1.8,1,3.3,1.5,5,2.7
	c7.8,5.3,15.6,10.6,23.3,16.1c0.8,0.6,1.9,2.4,3.3,5.5c0.2,0.4,0.4,0.7,0.8,0.9c1.6,1,3.1,1.8,4.5,3.1c11.8,11,21.7,21.7,29.8,32.2
	c7.9,10.3,14.7,21.9,20.3,34.8c0.8,1.9,1.5,3.8,2.1,5.7c0.8,2.7,2.3,5,2.9,7.7c0.4,2.2,1.1,4.2,2,6.2c1,2.2,0.1,4.2-0.8,6.2
	c-7.5,16.2-16.5,31.8-27,46.8c-11.5,16.3-25.4,30.7-42.4,41.4c-0.3,0.2-0.5,0.2-0.6,0.1c-0.2-0.1-0.4-0.2-0.6-0.4
	c-0.8-1.4-1.5-2.9-2.1-4.5c-5.6-13.9-11.7-28.7-15.8-42.6c-2.6-9-5.9-18.4-8.5-27.7c-2.5-9.1-4.8-18.2-6.9-27.4
	c-0.3-1.3-0.2-2.6-0.5-3.8c-2-8.2-3.7-16.8-5-25.6c-0.4-2.6-0.9-5-1.6-7.4c-0.5-1.6-0.8-3.3-0.9-5c-0.3-4.6-1.4-9.1-2.3-13.7
	c-0.6-3-0.4-6-1.5-8.9c-0.9-2.4-0.5-4.7-1-7.1c-0.6-3-1.1-6-1.5-9.2c-0.3-2.6-0.7-5.2-1.2-7.7c-0.5-2.7-0.9-5.3-1.1-7.7
	c-0.2-2.4-0.6-4.7-1.2-6.9c-0.8-3.1-0.9-6.2-1.5-9.5c-2.5-12.3-4.5-21.3-5.9-27.1c-1.6-6.8-4.2-15-7.8-24.8c7,2.8,13,7,18.2,12.3
	c2.4,2.5,5.3,6.4,8.6,11.8C315.5,828.5,318.1,832.6,320.6,836.8z" class="st1"></path>
<path d="M267.5,802.3c1.7,2.4,3.3,4.6,4.2,7.4c3.7,10.4,5,19.8,7.2,29.9c0.4,1.9,0.7,3.8,0.9,5.7
	c0.3,2.6,1.3,4.9,1.7,7.4c1.2,7.4,2.5,15.1,3.8,23.2c1.2,7.4,2.3,15.2,3.4,23.3c1.4,11.2,2.8,21.3,4,30.1
	c2.8,20.2,7.3,40.9,13.5,62.3c0.4,1.3,0.9,2.6,1.4,3.9c0.9,1.9,0.7,3.8,1.3,5.8c2.6,8.2,5.3,16.5,8.3,24.9c0.4,1.2,0.9,2.5,1.4,3.7
	c1.7,4.4,3.5,8.8,5.3,13.1c4.5,10.6,9.8,20.8,14.9,31.1c-6.5,4.2-12.3,3.5-17.6-2.2c-4.2-4.5-8.3-8.9-11.5-14
	c-3.1-5-7-10.2-9.4-15.7c-1.1-2.7-2.9-5-4.1-7.7c-7.9-18-14.5-36.4-19.7-55.1c-1.7-6.2-3.1-11.8-4.1-16.9
	c-2.8-14.1-5.9-27.8-7.9-42.3c-0.4-2.9-0.9-5.8-1.4-8.7c-0.4-2.1-0.7-4.8-1-8.2c-0.2-2.3-0.6-5.1-1.1-8.3
	c-0.5-3.5-1.4-11.9-2.4-25.2c-1.1-15.4-1.4-27.9-0.7-37.5c0.5-7.2,1.6-14.4,3.2-21.4C262.1,806.6,264.2,803.7,267.5,802.3z" class="st1"></path>
<path d="M239.9,871.4c-0.2,7.3,0.3,14.8,1.6,22.5c0.2,1.2,0.1,2.5-0.2,3.9c-0.1,0.5-0.1,0.9,0,1.4
	c1.6,5.6,1.7,11.5,2.8,17.1c0.7,3.4,0.9,6.7,1.6,10c0.9,4.2,1.6,8.3,2.2,12.3c0.6,4.3,1.5,8.4,2.5,12.1c1.4,4.9,2.6,9.8,3.8,14.7
	c2.3,9.6,5.5,18.6,8.5,28c0.7,2.1,0.8,4.2,1.1,6.4c0.1,0.5-0.2,0.9-0.6,1c-1.2,0.4-2.1,0-2.6-1.2c-2.6-5.6-5.5-11.8-6.8-18
	c-0.7-3.3-2.1-6.3-3-9.5c-4.5-17.1-7.6-30.8-9.2-41.2c-0.9-5.6-2-11.1-2.9-16.7c-0.8-5.3-1.3-9.6-1.6-12.9
	c-0.4-5.3-0.7-8.9-0.9-10.9c-0.7-6.2-1.1-12.5-1.4-19c-1-14.6-0.6-29.2,1-43.9c0.4-3.3,1.1-6.4,2.2-9.2c0.2-0.5,0.6-0.9,1.1-1
	c0.7-0.2,1.2,0.1,1.4,0.8c0.4,1.5,0.5,3,0.4,4.6c-1.2,12.1-1.7,24.8-1.7,38C239.2,865.3,239.4,868.8,239.9,871.4z" class="st1"></path>
<path d="M804.4,837.4c7.4-3,8.1-11,10.7-17.7c0.3-0.8,0.9-1.3,1.6-1.5c0.6-0.2,1.2,0.2,1.2,0.8c0.3,3,0.9,5.8,1.7,8.5
	c2.4,7.8,7.2,8.8,13.9,11.4c0.6,0.2,1.1,0.8,1.3,1.4c0.3,1.1-0.1,1.9-1.2,2.5c-4.1,2-9.1,4.1-10.9,8.8c-1.8,4.9-3.2,9.7-4.1,14.5
	c-0.3,1.4-1.1,2-2.6,1.8c-1.4-0.2-2.3-1.1-2.6-2.6c-1.8-9.2-3.9-16.7-13.8-19.8c-1.2-0.4-2-1.7-1.6-2.9
	C798.7,839.6,802,838.4,804.4,837.4z" class="st0"></path>
<path d="M355.9,870.4c-1.8-1-3.5-2.1-5-3.5c-4.2-3.8-8.5-8.1-12.9-12.9c-4.5-4.9-9.8-13.2-9.6-20.2
	c0.1-2.8,1.2-6,3.3-9.6c1.3-2.1,2.9-2.5,4.9-1.1c2,1.4,3.6,4.3,4.5,6.6c3.3,8,6.5,16.1,9.5,24.3c1.8,4.8,4.4,9.6,5.8,14.6
	c0.1,0.5,0.2,1,0.1,1.6C356.4,870.5,356.3,870.6,355.9,870.4z" class="st3"></path>
<path d="M672.1,930.7l-17,12.2c-1.8,0.7-4.3,1-7.5,1.1c-1.5,0-2.8,0.6-3.9,1.6c-0.3,0.3-0.4,0.7-0.3,1.1
	c3.2,11,5.2,20.4,6.1,28.3c1.4,12.4,2.1,22,2.2,28.8c0.1,9.9-0.2,19.6-1,29.4c-0.2,2.5-0.5,5.2-1,7.9c-0.4,2.6-0.9,5.2-1.4,7.8
	c-1.7,0.5-3.6,0.8-5.8,0.9c-20.2,1-40.5,1.5-60.7,1.7c-18.8,0.2-36.3,0.9-54,1.6c-9,0.3-17.4-1.3-25.2-5c-7-3.3-13-8.4-17.9-15.2
	c-10.6-14.8-13.9-31.7-10.1-50.7c2.3-11.2,6.3-21.9,12-31.9c4.5-7.8,10-16.3,16.5-25.3c1.3-1.4,2.5-2.9,3.6-4.6
	c1.1-1.6,2.2-3.2,3.4-4.7c8.1-11,17.4-23.3,28-36.9c9.3-11.9,19.2-24,29.8-36.2c0.9-1,1.3-0.9,1.2,0.5c-0.7,8.7-0.5,17.8,0.5,27.5
	c1.6,15.2,8.3,31.5,19.6,42.5c11.7,11.4,30.5,17.8,46.2,18.7C646,932.4,658.2,932,672.1,930.7z" class="st6"></path>
<path d="M1259.3,903.3c-7.3,3.7-8.5,15.9-9.7,23c-0.7,4.1-6.4,4.5-7,0.4c-0.4-2.7-0.8-5.5-1.1-8.3
	c-1-9.5-7.1-15-14.9-20c-0.4-0.3-0.7-0.6-0.8-1.1c-0.5-2.1-0.2-4.1,0.9-6.1c0.2-0.4,0.6-0.8,1.1-0.9c1.2-0.4,2.4-0.8,3.5-1
	c5-1.2,8.6-6.4,9.5-11.1c0.8-3.8,1.5-9.2,4.7-11.9c1-0.9,2.5-0.7,3.4,0.3c2.4,2.8,2.8,7.2,3.4,10.8c1.2,7.1,6.8,12,13.8,13.4
	c0.6,0.1,1.2,0.5,1.4,1.1c0.9,1.7,1.3,5-0.7,6.5C1264.4,900.5,1261.8,902.1,1259.3,903.3z" class="st1"></path>
<path d="M1041.4,900.6c5.7,11.5,9.6,19.6,11.5,24.4c6.2,15.2,12.7,30.3,19.3,45.4c5.2,12.8,10,25.6,14.5,38.6
	c2.2,6.4,3.9,13,5.2,19.7c0.6,3.2,0.6,6.3,0.1,9.3c-0.2,0.9-0.7,1.6-1.4,2.1c-2.7,1.8-5.6,2.9-8.9,3.3c-1.6,0.2-3-0.4-4.6-0.2
	c-1.2,0.1-2.4,0.1-3.5-0.1c-10.8-1.8-20.5-5.2-29.1-10.1c-6.7-3.9-14-8.5-21.7-14c-3.8-2.6-7.8-4.5-12.2-6.4
	c-0.9-0.7-1.3-1.5-1.4-2.4c0-0.5,0.2-0.9,0.6-1.1c2.6-1.5,4.2-3.7,4.6-6.5c1.4-8.9-6.6-16.7-14.2-19.8c-1.2-0.5-2.6-0.7-4.2-0.7
	c-4.3,0-7.5-1.3-11.7,1c-0.5,0.3-1.2,0.1-1.5-0.4c-2.5-3.9-5.7-7.2-8.3-11.2c-2.8-4.5-6.4-8.8-8.8-13.2c-2.3-4.2-4.6-8.6-6.8-13.3
	c8.3-5.4,16-11.5,22.9-18.3c3.2-3.1,6.1-5.7,8.7-7.8c4-3.2,8.2-7,12.3-9.5c5.4-3.3,11.2-5.9,17.6-7.7c6.2-1.8,13.2-1.9,19.6-1.7
	C1040.7,900,1041,900.2,1041.4,900.6z" class="st1"></path>
<path d="M864.8,925.5c-1.5,0.5-3.1,0.8-4.7,0.8c-3,0-4.5,0-4.5,0.1c-13.2,1-26.4,2.1-39.6,3.1c-0.6,0.1-1.5,0.3-2.8,0.7
	c-0.9-0.3-1.6-0.5-2-0.4c-14.5,1-29,2-43.4,3c-6.6,0.5-11.7,1-15.6,1.5c-2,0.3-3.5-0.5-5.4-0.1c-1.1,0.3-2.2,0.5-3.3,0.6
	c-20,1.5-38.6,3.1-55.6,4.6c-5.2,0.5-10.3,1.1-15.4,1.8c-2.2,0.3-4.7,0.7-7.4,1.1c-3,0.5-6.3,0.7-9.9,0.5l17-12.2
	c1.3,0,2.9-0.2,4.8-0.5c1.7-0.3,3.3-0.5,4.8-0.7c44.5-4.6,75-7.4,91.5-8.4c16.3-0.9,30.2-1.4,41.8-1.3c14,0.1,27.3,1,39.9,2.8
	C857.9,923.1,861.2,924,864.8,925.5z" class="st2"></path>
<path d="M864.8,925.5c6.7,1.9,13.3,4.6,19.9,7.9c7.6,3.9,15,7.6,22.2,11.1c9.6,4.6,23,8.6,33.7,6.8c3-0.5,6.7-1.5,11-3
	c1.5,2.1,2.5,3.6,2.9,4.5c4.8,11.5,11.3,21.8,19.6,31c0.6,0.7,1.9,1.8,3.9,3.5c2.3,1.9,3.1,3.5,2.5,4.8l-50.8,11.9l-7.3,1.9
	l-55.3,13l-23.3,4.8c0-2.4-0.1-4.9-0.4-7.4c-3.7-28.5-12.4-55.1-26-79.8c-0.8-1.4-2.2-3.5-4.2-6.4c1.2-0.4,2.1-0.7,2.8-0.7
	c13.2-1,26.4-2,39.6-3.1c0.1,0,1.6,0,4.5-0.1C861.7,926.3,863.3,926,864.8,925.5z" class="st6"></path>
<path d="M813.2,930.1c2,2.8,3.5,4.9,4.2,6.4c13.6,24.7,22.2,51.3,26,79.8c0.3,2.5,0.5,5,0.4,7.4c-6,1.4-12,2.8-18,4.2
	c-2.8,0.7-7.3,1.5-13.4,2.5c-6,1-11.9,2.7-17.9,3.5c-4.2,0.5-8.6,1.2-13.1,2c-4.4,0.8-8.8,1.4-13.2,2c-5.1,0.7-10.5,1.4-16,2.2
	c-13.4,1.9-27.1,3.2-40.4,4.8c-6.2,0.8-12.4,0.5-18.7,1.6c-3.1,0.6-6.2,0.3-9.4,0.7c-6.7,0.8-13.7,1.3-21,1.4
	c-2.4,0-4.1,1.1-6.6,0.8c-2.4-0.4-5-0.5-7.7-0.6c0.5-2.6,0.9-5.3,1.4-7.8c0.5-2.7,0.8-5.4,1-7.9c0.8-9.8,1.1-19.5,1-29.4
	c-0.1-6.8-0.8-16.4-2.2-28.8c-0.9-7.8-2.9-17.3-6.1-28.3c-0.1-0.4,0-0.8,0.3-1.1c1.1-1,2.4-1.6,3.9-1.6c3.3,0,5.8-0.4,7.5-1.1
	c3.6,0.1,6.9-0.1,9.9-0.5c2.7-0.4,5.2-0.8,7.4-1.1c5.1-0.7,10.3-1.3,15.4-1.8c17-1.5,35.6-3.1,55.6-4.6c1.1-0.1,2.2-0.3,3.3-0.6
	c1.8-0.5,3.4,0.3,5.4,0.1c3.8-0.5,9-1,15.6-1.5c14.5-1,29-2,43.4-3C811.6,929.7,812.3,929.8,813.2,930.1z" class="st1"></path>
<path d="M959.1,945.1c2.2,4.7,4.5,9.1,6.8,13.3c2.4,4.4,6,8.7,8.8,13.2c2.6,4,5.8,7.2,8.3,11.2c0.3,0.5,1,0.7,1.5,0.4
	c4.1-2.4,7.4-1,11.7-1c1.6,0,3,0.3,4.2,0.7c7.5,3.1,15.5,10.9,14.2,19.8c-0.4,2.9-2,5-4.6,6.5c-0.4,0.2-0.6,0.6-0.6,1.1
	c0.1,1,0.5,1.8,1.4,2.4c1.8,16.2,3.5,32.2,5.3,47.8c0.2,1.9,0.4,5,0.7,9.3c0.1,0.9-0.5,1.8-1.7,2.7c-0.2,0.2-0.4,0.3-0.7,0.3
	c-1.7,0.1-2.6-0.7-2.8-2.3c-2.5-18.2-4.5-36.2-5.9-53.9c-0.1-0.8-0.3-1.4-0.6-2.1c-0.6-1.1-1-1-1.2,0.2c-2,16.5-6.2,31-12.6,43.3
	c-3.5,6.7-8.2,13.2-15.5,15.3c-5.9,1.7-11,1.1-15.3-1.9c-3.7-2.6-6.1-6.2-7-10.8c-2.6-13.6,5.5-25.9,13.4-36c1-1.3,0.8-1.5-0.6-0.8
	c-13.9,7.4-27.1,13-39.8,16.9c-2.4,0.7-4.8,1-7.4,0.9c-1-0.1-1.7-1.1-1.3-2c0.6-1.6,1.7-2.8,3.3-3.4c13.4-5,28.4-11.2,44.8-18.8
	c0.2-0.1,0.3-0.2,0.2-0.4l-0.1-0.3c0-0.1-0.1-0.1-0.1-0.1c-7.4,3-15.1,4.9-23.1,5.7c-5.8,0.6-10.3-0.2-13.6-2.2
	c-4.4-2.7-6.7-7.4-6.8-14l7.3-1.9c-2.2,6.3,1.5,12.1,8.3,11.7c5.9-0.4,11.4-1.4,17.1-3.3c9.8-3.2,19.3-6.7,28.7-10.5
	c0.6-0.2,0.8-1,0.4-1.5c-1.8-2.5-3-5.3-3.7-8.3c0.6-1.3-0.2-2.9-2.5-4.8c-2-1.7-3.3-2.8-3.9-3.5c-8.3-9.2-14.8-19.5-19.6-31
	c-0.4-1-1.4-2.5-2.9-4.5L959.1,945.1z M1005.5,1001.9c1.7-2.3-0.4-6.7-4.8-9.8c-4.3-3.1-9.2-3.7-10.8-1.4c-1.7,2.3,0.4,6.7,4.8,9.8
	C999,1003.7,1003.8,1004.3,1005.5,1001.9z M988.1,1048.3c3.9-10.4,7.1-22.2,9.5-35.6c0.1-0.7-0.2-1.3-0.7-1.7l-3.7-2.5
	c-0.6-0.4-1.4-0.4-2,0.1c-11.8,9.8-21.1,20.9-28,33.3c-1.9,3.4-3.1,7.2-3.6,11.6c-0.9,7.9,2.1,12.5,9.3,13.8c4.4,0.8,8.4-1.6,11-5
	C983,1058,986.2,1053.3,988.1,1048.3z" class="st4"></path>
<path d="M126.4,957.7l55.4,0.3c2.1,0,3.8,1.7,3.7,3.8l0,0.8c0,2.1-1.7,3.8-3.8,3.7l-55.4-0.3c-2.1,0-3.8-1.7-3.7-3.8
	l0-0.8C122.6,959.4,124.3,957.7,126.4,957.7z" class="st1"></path>
<path d="M1072.2,970.4c1.6,0,3,0.5,4.3,1.7c5.3,5,11.9,9.8,16.7,14c30.8,27.3,60.6,55.6,89.4,85
	c3.4,3.4,6.6,7.3,9.8,11.5c4,5.3,5.5,11.3,4.5,18c-2,13.7-25.7,12.2-35,11.8c-20.8-0.9-42.2-2.4-63.4-3.1c-37-1.1-73.8-1.9-111-3.1
	c-7.8-0.2-14.8-1.7-21.3-4.4c-7.4-3.1-14.2-7.9-20.7-13.2c-25.2-20.7-49.6-41.2-73.3-61.6c-2.6-2.2-4.3-4.9-5.2-8.2l55.3-13
	c0.1,6.6,2.4,11.3,6.8,14c3.3,2.1,7.8,2.8,13.6,2.2c8-0.8,15.7-2.7,23.1-5.7c0,0,0.1,0,0.1,0.1l0.1,0.3c0.1,0.2,0,0.3-0.2,0.4
	c-16.5,7.6-31.4,13.8-44.8,18.8c-1.6,0.6-2.7,1.7-3.3,3.4c-0.3,0.9,0.3,2,1.3,2c2.6,0.1,5.1-0.1,7.4-0.9
	c12.7-3.9,25.9-9.5,39.8-16.9c1.4-0.8,1.6-0.5,0.6,0.8c-8,10.1-16,22.4-13.4,36c0.9,4.6,3.2,8.3,7,10.8c4.2,3,9.3,3.6,15.3,1.9
	c7.2-2.1,12-8.7,15.5-15.3c6.4-12.3,10.6-26.8,12.6-43.3c0.2-1.3,0.5-1.3,1.2-0.2c0.3,0.6,0.5,1.3,0.6,2.1
	c1.4,17.7,3.3,35.7,5.9,53.9c0.2,1.6,1.2,2.4,2.8,2.3c0.3,0,0.5-0.1,0.7-0.3c1.2-0.9,1.7-1.8,1.7-2.7c-0.3-4.3-0.5-7.4-0.7-9.3
	c-1.8-15.6-3.5-31.5-5.3-47.8c4.4,1.9,8.4,3.7,12.2,6.4c7.7,5.5,15,10.1,21.7,14c8.6,4.9,18.3,8.3,29.1,10.1
	c1.1,0.2,2.3,0.2,3.5,0.1c1.6-0.2,2.9,0.4,4.6,0.2c3.2-0.4,6.2-1.5,8.9-3.3c0.7-0.5,1.3-1.2,1.4-2.1c0.6-3,0.5-6.1-0.1-9.3
	c-1.3-6.7-3-13.2-5.2-19.7C1082.2,996,1077.4,983.1,1072.2,970.4z M1046.5,1071.4c9.2,3.5,21.3,5.7,30.6,2.5
	c1.2-0.4,1.6-1.2,1.3-2.5l-0.2-0.6c-0.2-0.8-0.8-1.1-1.6-0.9c-1,0.3-2,0.3-3,0.2c-6.6-1-12.9,0.2-19.4-2c-4.1-1.4-8.3-2.1-11.9-4.6
	c-3.2-2.2-6.3-3.8-9.4-4.9c-1.1-0.4-2.1-0.1-2.8,0.9c-0.6,0.8-0.5,1.6,0.3,2.2C1035.7,1066.2,1041.1,1069.4,1046.5,1071.4z" class="st0"></path>
<ellipse ry="9.6" rx="5.2" cy="996.3" cx="997.7" class="st1" transform="matrix(0.5835 -0.8121 0.8121 0.5835 -393.6039 1225.1505)"></ellipse>
<path d="M980.4,992.2c0.7,3,1.9,5.7,3.7,8.3c0.4,0.5,0.2,1.2-0.4,1.5c-9.4,3.8-18.9,7.3-28.7,10.5
	c-5.7,1.9-11.2,2.9-17.1,3.3c-6.8,0.4-10.5-5.4-8.3-11.7L980.4,992.2z" class="st0"></path>
<path d="M1358.5,1026.7c-3.7-4.4-7.6-8.6-11.9-12.7c-1.5-1.5-2.8-3.2-3.8-5.2c-0.9-1.9,0.1-4.3,2.2-4.8
	c5-1.4,10-1.9,15.1-1.7c1.2,0.1,1.8,1.5,0.9,2.4c-3.2,3.2-8.1,3.2-12.3,3.2c-0.3,0-0.5,0.4-0.3,0.6c5.8,6.5,10.6,11.7,14.6,15.8
	c2.1,2.1,5.7,5.5,5.6,8.7c-0.1,1.5-1.5,2.5-2.9,2c-11.2-3.4-22.1-7.2-32.7-11.3c-1.1-0.4-1.3-0.2-0.7,0.8c3,4.6,7.3,10.6,8.1,15.8
	c0.3,1.8-1,3.5-2.9,3.6c-1,0.1-2-0.2-2.9-0.7c-5.1-2.9-10.5-3.9-15.7-6.4c-4.7-2.3-9.2-4.2-13.5-5.7c-1.6-0.6-2.1-0.1-1.5,1.5
	c4.8,12.4,9.3,24,13.5,34.6c1.5,3.7,2.3,7.4,2.5,11c0.1,1.9-1.8,3.3-3.6,2.7c-4.9-1.6-11.3-8.1-15.4-12.1
	c-7.8-7.7-15.6-15.5-23.3-23.5c-0.7-0.8-1.4-1.4-2.1-1.9c-1.2-0.9-2.1-0.7-2.7,0.7c-2.5,5.7-5,11.2-7.4,16.4c-0.6,1.2-1.4,2.2-2.4,3
	c-0.3,0.3-0.7,0.4-1.1,0.4c-1.7,0-3.1-0.8-4.2-2.4c-3.5-5.2-6.8-10.5-9.9-15.7c-3.1-5.3-6.7-10.6-10.2-15.8c-0.3-0.4-0.6-0.5-1-0.2
	c-5.5,4.1-11.2,8.2-17.2,12.4c-1.1,0.8-2.1,0.8-3.2,0.2c-0.2-0.1-0.4-0.5-0.7-1.3c-2.2-5.8-4.5-12-6.9-18.4c-0.2-0.4-0.6-0.6-1-0.4
	c-4.8,1.8-9.8,4-14.8,6.7c-2.7,1.4-5.2,1.2-7.6-0.5c-0.3-0.2-0.5-0.5-0.5-0.9c-0.4-3.4-0.3-6.5,0.3-9.4c0.1-0.4,0.1-0.8-0.1-1.1
	c-1-2.9-0.6-5.6,1.2-8.3c0.3-0.4,0.9-0.5,1.4-0.2c1.4,1.1,2.2,2.6,2.2,4.5c0,3.7-0.3,7.3-0.8,10.8c-0.1,0.5,0.4,1,1,0.8
	c4.3-1.2,8.1-3,11.5-5.2c2.6-1.7,9.2-4.4,10.9-0.1c2.3,5.7,4.3,11.3,6,16.7c0.2,0.7,1.1,1,1.7,0.5c5-3.7,10.1-7.4,15.4-11
	c1.5-1,2.9-0.8,4.2,0.6c1.4,1.4,2.6,2.9,3.6,4.4c6,8.7,11.7,18,17.1,28c0.2,0.3,0.6,0.3,0.7,0c2.4-4.9,4.8-10.2,7.4-15.8
	c0.9-2,2-3.7,3.4-4.9c1.3-1.2,3.4-1.2,4.7,0.1c10.2,10.2,20.6,20.4,31.3,30.6c2.2,2.1,4.4,4,6.4,5.7c0.5,0.4,0.7,0.3,0.5-0.3
	c-4.9-14.5-12-29.8-16.2-43c-1-3.1-0.1-5.2,2.6-6.3c0.4-0.2,0.9-0.2,1.3,0l30.7,12.4c1.4,0.5,1.6,0.2,0.8-1
	c-2.7-3.9-5.2-7.8-7.4-11.8c-1.9-3.4-0.2-7.6,4.3-6.1c9,3,18,6.2,26.9,9.6C1359.3,1028.3,1359.6,1028,1358.5,1026.7z" class="st1"></path>
<path d="M988.1,1048.3c-1.9,5-5.1,9.7-8.3,14c-2.6,3.5-6.5,5.9-11,5c-7.1-1.3-10.2-5.9-9.3-13.8
	c0.5-4.4,1.7-8.3,3.6-11.6c6.9-12.4,16.3-23.5,28-33.3c0.6-0.5,1.4-0.5,2-0.1l3.7,2.5c0.6,0.4,0.8,1,0.7,1.7
	C995.1,1026.1,992,1037.9,988.1,1048.3z" class="st0"></path>
<path d="M1046.5,1071.4c-5.4-2-10.8-5.2-16.2-9.6c-0.8-0.7-0.9-1.4-0.3-2.2c0.8-1,1.7-1.3,2.8-0.9
	c3.1,1.1,6.2,2.7,9.4,4.9c3.6,2.5,7.8,3.2,11.9,4.6c6.5,2.2,12.8,0.9,19.4,2c1,0.2,2,0.1,3-0.2c0.8-0.2,1.4,0.1,1.6,0.9l0.2,0.6
	c0.3,1.2-0.1,2-1.3,2.5C1067.7,1077.1,1055.7,1074.9,1046.5,1071.4z" class="st1"></path>
</svg>
